font.ufo
<glyph name="exclam" format="2">
	<unicode hex="0021"/>
	<advance width="289"/>
	<outline>
		<contour>
			<point x="145" y="-13" type="curve" smooth="yes"/>
			<point x="181" y="-13"/>
			<point x="209" y="17"/>
			<point x="209" y="52" type="curve" smooth="yes"/>
			<point x="209" y="87"/>
			<point x="181" y="117"/>
			<point x="145" y="117" type="curve" smooth="yes"/>
			<point x="109" y="117"/>
			<point x="80" y="87"/>
			<point x="80" y="52" type="curve" smooth="yes"/>
			<point x="80" y="17"/>
			<point x="109" y="-13"/>
		</contour>
		<contour>
			<point x="145" y="685" type="curve" smooth="yes"/>
			<point x="109" y="685"/>
			<point x="87" y="666"/>
			<point x="87" y="622" type="curve" smooth="yes"/>
			<point x="87" y="585"/>
			<point x="98" y="491"/>
			<point x="113" y="352" type="curve" smooth="yes"/>
			<point x="126" y="215" type="line"/>
			<point x="163" y="215" type="line"/>
			<point x="177" y="352" type="line" smooth="yes"/>
			<point x="191" y="491"/>
			<point x="202" y="585"/>
			<point x="202" y="622" type="curve" smooth="yes"/>
			<point x="202" y="666"/>
			<point x="180" y="685"/>
		</contour>
	</outline>
</glyph>
<glyph name="dollar" format="2">
	<unicode hex="0024"/>
	<advance width="500"/>
	<outline>
		<contour>
			<point x="244" y="-13" type="curve" smooth="yes"/>
			<point x="381" y="-13"/>
			<point x="464" y="63"/>
			<point x="464" y="171" type="curve" smooth="yes"/>
			<point x="464" y="253"/>
			<point x="422" y="318"/>
			<point x="287" y="365" type="curve" smooth="yes"/>
			<point x="249" y="378" type="line" smooth="yes"/>
			<point x="178" y="401"/>
			<point x="138" y="437"/>
			<point x="138" y="500" type="curve" smooth="yes"/>
			<point x="138" y="575"/>
			<point x="195" y="611"/>
			<point x="269" y="611" type="curve" smooth="yes"/>
			<point x="299" y="611"/>
			<point x="335" y="606"/>
			<point x="377" y="589" type="curve"/>
			<point x="324" y="625" type="line"/>
			<point x="341" y="550" type="line" smooth="yes"/>
			<point x="353" y="497"/>
			<point x="378" y="483"/>
			<point x="401" y="483" type="curve" smooth="yes"/>
			<point x="420" y="483"/>
			<point x="438" y="493"/>
			<point x="445" y="515" type="curve"/>
			<point x="439" y="601"/>
			<point x="359" y="660"/>
			<point x="258" y="660" type="curve" smooth="yes"/>
			<point x="141" y="660"/>
			<point x="58" y="580"/>
			<point x="58" y="478" type="curve" smooth="yes"/>
			<point x="58" y="378"/>
			<point x="120" y="322"/>
			<point x="226" y="285" type="curve" smooth="yes"/>
			<point x="262" y="272" type="line" smooth="yes"/>
			<point x="347" y="242"/>
			<point x="383" y="213"/>
			<point x="383" y="150" type="curve" smooth="yes"/>
			<point x="383" y="77"/>
			<point x="330" y="35"/>
			<point x="248" y="35" type="curve" smooth="yes"/>
			<point x="208" y="35"/>
			<point x="164" y="40"/>
			<point x="118" y="59" type="curve"/>
			<point x="172" y="22" type="line"/>
			<point x="156" y="98" type="line" smooth="yes"/>
			<point x="144" y="151"/>
			<point x="122" y="165"/>
			<point x="97" y="165" type="curve" smooth="yes"/>
			<point x="75" y="165"/>
			<point x="60" y="154"/>
			<point x="51" y="133" type="curve"/>
			<point x="55" y="46"/>
			<point x="135" y="-13"/>
		</contour>
		<contour>
			<point x="238" y="-115" type="line"/>
			<point x="280" y="-115" type="line"/>
			<point x="280" y="322" type="line"/>
			<point x="238" y="322" type="line"/>
		</contour>
		<contour>
			<point x="240" y="322" type="line"/>
			<point x="281" y="322" type="line"/>
			<point x="281" y="750" type="line"/>
			<point x="240" y="750" type="line"/>
		</contour>
	</outline>
</glyph>
<glyph name="percent" format="2">
	<unicode hex="0025"/>
	<advance width="880"/>
	<outline>
		<contour>
			<point x="696" y="-9" type="curve" smooth="yes"/>
			<point x="767" y="-9"/>
			<point x="835" y="53"/>
			<point x="835" y="198" type="curve" smooth="yes"/>
			<point x="835" y="344"/>
			<point x="767" y="406"/>
			<point x="696" y="406" type="curve" smooth="yes"/>
			<point x="624" y="406"/>
			<point x="555" y="344"/>
			<point x="555" y="198" type="curve" smooth="yes"/>
			<point x="555" y="53"/>
			<point x="624" y="-9"/>
		</contour>
		<contour>
			<point x="696" y="24" type="curve" smooth="yes"/>
			<point x="661" y="24"/>
			<point x="628" y="55"/>
			<point x="628" y="198" type="curve" smooth="yes"/>
			<point x="628" y="342"/>
			<point x="661" y="372"/>
			<point x="696" y="372" type="curve" smooth="yes"/>
			<point x="731" y="372"/>
			<point x="762" y="341"/>
			<point x="762" y="198" type="curve" smooth="yes"/>
			<point x="762" y="55"/>
			<point x="731" y="24"/>
		</contour>
		<contour>
			<point x="186" y="265" type="curve" smooth="yes"/>
			<point x="257" y="265"/>
			<point x="325" y="327"/>
			<point x="325" y="472" type="curve" smooth="yes"/>
			<point x="325" y="618"/>
			<point x="257" y="680"/>
			<point x="186" y="680" type="curve" smooth="yes"/>
			<point x="114" y="680"/>
			<point x="45" y="618"/>
			<point x="45" y="472" type="curve" smooth="yes"/>
			<point x="45" y="327"/>
			<point x="114" y="265"/>
		</contour>
		<contour>
			<point x="186" y="298" type="curve" smooth="yes"/>
			<point x="151" y="298"/>
			<point x="118" y="329"/>
			<point x="118" y="472" type="curve" smooth="yes"/>
			<point x="118" y="616"/>
			<point x="151" y="646"/>
			<point x="186" y="646" type="curve" smooth="yes"/>
			<point x="221" y="646"/>
			<point x="252" y="615"/>
			<point x="252" y="472" type="curve" smooth="yes"/>
			<point x="252" y="329"/>
			<point x="221" y="298"/>
		</contour>
		<component base="fraction" xOffset="370"/>
	</outline>
</glyph>
<glyph name="parenleft" format="2">
	<unicode hex="0028"/>
	<advance width="339"/>
	<outline>
		<contour>
			<point x="160" y="278" type="curve" smooth="yes"/>
			<point x="160" y="438"/>
			<point x="196" y="555"/>
			<point x="314" y="725" type="curve"/>
			<point x="288" y="748" type="line"/>
			<point x="147" y="616"/>
			<point x="80" y="461"/>
			<point x="80" y="278" type="curve" smooth="yes"/>
			<point x="80" y="95"/>
			<point x="147" y="-60"/>
			<point x="288" y="-192" type="curve"/>
			<point x="314" y="-169" type="line"/>
			<point x="196" y="1"/>
			<point x="160" y="118"/>
		</contour>
	</outline>
</glyph>
<glyph name="asterisk" format="2">
	<unicode hex="002A"/>
	<advance width="439"/>
	<outline>
		<contour>
			<point x="210" y="539" type="line"/>
			<point x="230" y="539" type="line"/>
			<point x="241" y="607" type="line" smooth="yes"/>
			<point x="249" y="652"/>
			<point x="256" y="693"/>
			<point x="256" y="711" type="curve" smooth="yes"/>
			<point x="256" y="736"/>
			<point x="240" y="747"/>
			<point x="220" y="747" type="curve" smooth="yes"/>
			<point x="199" y="747"/>
			<point x="185" y="736"/>
			<point x="185" y="711" type="curve" smooth="yes"/>
			<point x="185" y="692"/>
			<point x="191" y="652"/>
			<point x="198" y="607" type="curve" smooth="yes"/>
		</contour>
		<contour>
			<point x="217" y="529" type="line"/>
			<point x="223" y="549" type="line"/>
			<point x="162" y="581" type="line" smooth="yes"/>
			<point x="122" y="602"/>
			<point x="84" y="621"/>
			<point x="67" y="627" type="curve" smooth="yes"/>
			<point x="44" y="634"/>
			<point x="28" y="623"/>
			<point x="22" y="603" type="curve" smooth="yes"/>
			<point x="15" y="584"/>
			<point x="21" y="567"/>
			<point x="45" y="559" type="curve" smooth="yes"/>
			<point x="63" y="553"/>
			<point x="104" y="546"/>
			<point x="149" y="540" type="curve" smooth="yes"/>
		</contour>
		<contour>
			<point x="228" y="533" type="line"/>
			<point x="212" y="545" type="line"/>
			<point x="163" y="497" type="line" smooth="yes"/>
			<point x="130" y="465"/>
			<point x="101" y="436"/>
			<point x="90" y="421" type="curve" smooth="yes"/>
			<point x="74" y="400"/>
			<point x="81" y="383"/>
			<point x="98" y="371" type="curve" smooth="yes"/>
			<point x="114" y="359"/>
			<point x="132" y="359"/>
			<point x="147" y="379" type="curve" smooth="yes"/>
			<point x="158" y="394"/>
			<point x="177" y="431"/>
			<point x="197" y="472" type="curve" smooth="yes"/>
		</contour>
		<contour>
			<point x="228" y="545" type="line"/>
			<point x="212" y="533" type="line"/>
			<point x="242" y="472" type="line" smooth="yes"/>
			<point x="263" y="431"/>
			<point x="281" y="394"/>
			<point x="291" y="378" type="curve" smooth="yes"/>
			<point x="307" y="358"/>
			<point x="325" y="359"/>
			<point x="342" y="371" type="curve" smooth="yes"/>
			<point x="358" y="383"/>
			<point x="364" y="400"/>
			<point x="349" y="420" type="curve" smooth="yes"/>
			<point x="338" y="435"/>
			<point x="309" y="465"/>
			<point x="277" y="497" type="curve" smooth="yes"/>
		</contour>
		<contour>
			<point x="217" y="549" type="line"/>
			<point x="223" y="529" type="line"/>
			<point x="291" y="540" type="line" smooth="yes"/>
			<point x="335" y="546"/>
			<point x="377" y="553"/>
			<point x="394" y="558" type="curve" smooth="yes"/>
			<point x="418" y="566"/>
			<point x="424" y="583"/>
			<point x="418" y="603" type="curve" smooth="yes"/>
			<point x="412" y="623"/>
			<point x="397" y="634"/>
			<point x="372" y="626" type="curve" smooth="yes"/>
			<point x="355" y="620"/>
			<point x="318" y="602"/>
			<point x="277" y="581" type="curve" smooth="yes"/>
		</contour>
	</outline>
</glyph>
<glyph name="plus" format="2">
	<unicode hex="002B"/>
	<advance width="530"/>
	<outline>
		<contour>
			<point x="235" y="77" type="line"/>
			<point x="296" y="77" type="line"/>
			<point x="296" y="577" type="line"/>
			<point x="235" y="577" type="line"/>
		</contour>
		<contour>
			<point x="502" y="301" type="line"/>
			<point x="502" y="358" type="line"/>
			<point x="29" y="358" type="line"/>
			<point x="29" y="301" type="line"/>
		</contour>
	</outline>
</glyph>
<glyph name="comma" format="2">
	<unicode hex="002C"/>
	<advance width="300"/>
	<outline>
		<contour>
			<point x="60" y="-177" type="line"/>
			<point x="145" y="-146"/>
			<point x="217" y="-72"/>
			<point x="217" y="28" type="curve" smooth="yes"/>
			<point x="217" y="51"/>
			<point x="216" y="75"/>
			<point x="209" y="97" type="curve"/>
			<point x="189" y="118"/>
			<point x="169" y="125"/>
			<point x="148" y="125" type="curve" smooth="yes"/>
			<point x="103" y="125"/>
			<point x="81" y="95"/>
			<point x="81" y="58" type="curve" smooth="yes"/>
			<point x="81" y="32"/>
			<point x="94" y="14"/>
			<point x="125" y="-5" type="curve" smooth="yes"/>
			<point x="178" y="-37" type="line"/>
			<point x="165" y="0" type="line"/>
			<point x="151" y="-70"/>
			<point x="119" y="-106"/>
			<point x="45" y="-140" type="curve"/>
		</contour>
	</outline>
</glyph>
<glyph name="hyphen" format="2">
	<unicode hex="002D"/>
	<unicode hex="00AD"/>
	<unicode hex="2010"/>
	<advance width="312"/>
	<outline>
		<contour>
			<point x="40" y="215" type="line"/>
			<point x="272" y="215" type="line"/>
			<point x="272" y="280" type="line"/>
			<point x="40" y="280" type="line"/>
		</contour>
	</outline>
</glyph>
<glyph name="slash" format="2">
	<unicode hex="002F"/>
	<advance width="330"/>
	<outline>
		<contour>
			<point x="2" y="-160" type="line"/>
			<point x="61" y="-160" type="line"/>
			<point x="328" y="710" type="line"/>
			<point x="269" y="710" type="line"/>
		</contour>
	</outline>
</glyph>
<glyph name="zero" format="2">
	<unicode hex="0030"/>
	<advance width="500"/>
	<outline>
		<contour>
			<point x="251" y="-13" type="curve" smooth="yes"/>
			<point x="356" y="-13"/>
			<point x="460" y="75"/>
			<point x="460" y="322" type="curve" smooth="yes"/>
			<point x="460" y="570"/>
			<point x="356" y="660"/>
			<point x="251" y="660" type="curve" smooth="yes"/>
			<point x="144" y="660"/>
			<point x="41" y="570"/>
			<point x="41" y="322" type="curve" smooth="yes"/>
			<point x="41" y="75"/>
			<point x="144" y="-13"/>
		</contour>
		<contour>
			<point x="251" y="32" type="curve" smooth="yes"/>
			<point x="189" y="32"/>
			<point x="133" y="90"/>
			<point x="133" y="322" type="curve" smooth="yes"/>
			<point x="133" y="556"/>
			<point x="189" y="615"/>
			<point x="251" y="615" type="curve" smooth="yes"/>
			<point x="311" y="615"/>
			<point x="367" y="555"/>
			<point x="367" y="322" type="curve" smooth="yes"/>
			<point x="367" y="91"/>
			<point x="311" y="32"/>
		</contour>
	</outline>
</glyph>
<glyph name="two" format="2">
	<unicode hex="0032"/>
	<advance width="500"/>
	<outline>
		<contour>
			<point x="49" y="0" type="line"/>
			<point x="460" y="0" type="line"/>
			<point x="460" y="82" type="line"/>
			<point x="116" y="82" type="line"/>
			<point x="116" y="106" type="line"/>
			<point x="104" y="63" type="line"/>
			<point x="153" y="108"/>
			<point x="201" y="153"/>
			<point x="233" y="185" type="curve" smooth="yes"/>
			<point x="387" y="333"/>
			<point x="431" y="402"/>
			<point x="431" y="490" type="curve" smooth="yes"/>
			<point x="431" y="590"/>
			<point x="375" y="660"/>
			<point x="246" y="660" type="curve" smooth="yes"/>
			<point x="145" y="660"/>
			<point x="55" y="611"/>
			<point x="44" y="505" type="curve"/>
			<point x="55" y="485"/>
			<point x="73" y="472"/>
			<point x="95" y="472" type="curve" smooth="yes"/>
			<point x="123" y="472"/>
			<point x="140" y="492"/>
			<point x="153" y="541" type="curve" smooth="yes"/>
			<point x="177" y="629" type="line"/>
			<point x="120" y="593" type="line"/>
			<point x="157" y="610"/>
			<point x="197" y="615"/>
			<point x="221" y="615" type="curve" smooth="yes"/>
			<point x="294" y="615"/>
			<point x="341" y="563"/>
			<point x="341" y="481" type="curve" smooth="yes"/>
			<point x="341" y="403"/>
			<point x="296" y="320"/>
			<point x="196" y="215" type="curve" smooth="yes"/>
			<point x="153" y="170"/>
			<point x="102" y="117"/>
			<point x="49" y="65" type="curve"/>
		</contour>
	</outline>
</glyph>
<glyph name="three" format="2">
	<unicode hex="0033"/>
	<advance width="500"/>
	<outline>
		<contour>
			<point x="236" y="-13" type="curve" smooth="yes"/>
			<point x="371" y="-13"/>
			<point x="460" y="70"/>
			<point x="460" y="178" type="curve" smooth="yes"/>
			<point x="460" y="271"/>
			<point x="399" y="335"/>
			<point x="269" y="347" type="curve"/>
			<point x="269" y="330" type="line"/>
			<point x="376" y="352"/>
			<point x="440" y="420"/>
			<point x="440" y="503" type="curve" smooth="yes"/>
			<point x="440" y="596"/>
			<point x="365" y="660"/>
			<point x="248" y="660" type="curve" smooth="yes"/>
			<point x="156" y="660"/>
			<point x="83" y="618"/>
			<point x="66" y="534" type="curve"/>
			<point x="74" y="508"/>
			<point x="93" y="499"/>
			<point x="114" y="499" type="curve" smooth="yes"/>
			<point x="148" y="499"/>
			<point x="161" y="519"/>
			<point x="172" y="561" type="curve" smooth="yes"/>
			<point x="190" y="629" type="line"/>
			<point x="146" y="601" type="line"/>
			<point x="181" y="612"/>
			<point x="210" y="615"/>
			<point x="231" y="615" type="curve" smooth="yes"/>
			<point x="309" y="615"/>
			<point x="353" y="573"/>
			<point x="353" y="500" type="curve" smooth="yes"/>
			<point x="353" y="415"/>
			<point x="300" y="365"/>
			<point x="210" y="365" type="curve" smooth="yes"/>
			<point x="170" y="365" type="line"/>
			<point x="170" y="315" type="line"/>
			<point x="218" y="315" type="line" smooth="yes"/>
			<point x="320" y="315"/>
			<point x="371" y="263"/>
			<point x="371" y="176" type="curve" smooth="yes"/>
			<point x="371" y="86"/>
			<point x="321" y="32"/>
			<point x="223" y="32" type="curve" smooth="yes"/>
			<point x="200" y="32"/>
			<point x="169" y="35"/>
			<point x="134" y="49" type="curve"/>
			<point x="174" y="13" type="line"/>
			<point x="154" y="90" type="line" smooth="yes"/>
			<point x="140" y="140"/>
			<point x="129" y="162"/>
			<point x="95" y="162" type="curve" smooth="yes"/>
			<point x="73" y="162"/>
			<point x="56" y="152"/>
			<point x="44" y="129" type="curve"/>
			<point x="62" y="29"/>
			<point x="138" y="-13"/>
		</contour>
	</outline>
</glyph>
<glyph name="six" format="2">
	<unicode hex="0036"/>
	<advance width="500"/>
	<outline>
		<contour>
			<point x="256" y="-13" type="curve" smooth="yes"/>
			<point x="358" y="-13"/>
			<point x="457" y="72"/>
			<point x="457" y="199" type="curve" smooth="yes"/>
			<point x="457" y="312"/>
			<point x="392" y="397"/>
			<point x="283" y="397" type="curve" smooth="yes"/>
			<point x="212" y="397"/>
			<point x="149" y="359"/>
			<point x="101" y="292" type="curve"/>
			<point x="96" y="292" type="line"/>
			<point x="117" y="278" type="line"/>
			<point x="159" y="321"/>
			<point x="207" y="336"/>
			<point x="253" y="336" type="curve" smooth="yes"/>
			<point x="322" y="336"/>
			<point x="368" y="290"/>
			<point x="368" y="197" type="curve" smooth="yes"/>
			<point x="368" y="93"/>
			<point x="321" y="32"/>
			<point x="254" y="32" type="curve" smooth="yes"/>
			<point x="180" y="32"/>
			<point x="131" y="98"/>
			<point x="131" y="250" type="curve" smooth="yes"/>
			<point x="131" y="433"/>
			<point x="213" y="572"/>
			<point x="429" y="628" type="curve"/>
			<point x="423" y="660" type="line"/>
			<point x="178" y="632"/>
			<point x="40" y="462"/>
			<point x="40" y="262" type="curve" smooth="yes"/>
			<point x="40" y="91"/>
			<point x="122" y="-13"/>
		</contour>
	</outline>
</glyph>
<glyph name="seven" format="2">
	<unicode hex="0037"/>
	<advance width="500"/>
	<outline>
		<contour>
			<point x="143" y="0" type="line"/>
			<point x="226" y="0" type="line"/>
			<point x="464" y="596" type="line"/>
			<point x="464" y="647" type="line"/>
			<point x="51" y="647" type="line"/>
			<point x="51" y="565" type="line"/>
			<point x="405" y="565" type="line"/>
			<point x="411" y="551" type="line"/>
			<point x="411" y="595" type="line"/>
			<point x="133" y="10" type="line"/>
		</contour>
	</outline>
</glyph>
<glyph name="eight" format="2">
	<unicode hex="0038"/>
	<advance width="500"/>
	<outline>
		<contour>
			<point x="251" y="-13" type="curve" smooth="yes"/>
			<point x="366" y="-13"/>
			<point x="455" y="57"/>
			<point x="455" y="158" type="curve" smooth="yes"/>
			<point x="455" y="252"/>
			<point x="400" y="304"/>
			<point x="288" y="356" type="curve" smooth="yes"/>
			<point x="173" y="409"/>
			<point x="145" y="460"/>
			<point x="145" y="515" type="curve" smooth="yes"/>
			<point x="145" y="576"/>
			<point x="194" y="615"/>
			<point x="251" y="615" type="curve" smooth="yes"/>
			<point x="314" y="615"/>
			<point x="350" y="564"/>
			<point x="350" y="504" type="curve" smooth="yes"/>
			<point x="350" y="442"/>
			<point x="323" y="401"/>
			<point x="243" y="346" type="curve"/>
			<point x="280" y="326" type="line"/>
			<point x="280" y="332" type="line"/>
			<point x="393" y="389"/>
			<point x="425" y="455"/>
			<point x="425" y="506" type="curve" smooth="yes"/>
			<point x="425" y="596"/>
			<point x="358" y="660"/>
			<point x="253" y="660" type="curve" smooth="yes"/>
			<point x="149" y="660"/>
			<point x="66" y="598"/>
			<point x="66" y="493" type="curve" smooth="yes"/>
			<point x="66" y="416"/>
			<point x="110" y="351"/>
			<point x="216" y="301" type="curve" smooth="yes"/>
			<point x="334" y="246"/>
			<point x="371" y="209"/>
			<point x="371" y="151" type="curve" smooth="yes"/>
			<point x="371" y="84"/>
			<point x="324" y="31"/>
			<point x="253" y="31" type="curve" smooth="yes"/>
			<point x="179" y="31"/>
			<point x="127" y="84"/>
			<point x="127" y="155" type="curve" smooth="yes"/>
			<point x="127" y="229"/>
			<point x="167" y="267"/>
			<point x="246" y="312" type="curve"/>
			<point x="204" y="332" type="line"/>
			<point x="204" y="326" type="line"/>
			<point x="100" y="278"/>
			<point x="44" y="226"/>
			<point x="44" y="149" type="curve" smooth="yes"/>
			<point x="44" y="42"/>
			<point x="130" y="-13"/>
		</contour>
	</outline>
</glyph>
<glyph name="nine" format="2">
	<unicode hex="0039"/>
	<advance width="500"/>
	<outline>
		<contour>
			<point x="86" y="-15" type="line"/>
			<point x="346" y="45"/>
			<point x="450" y="208"/>
			<point x="450" y="399" type="curve" smooth="yes"/>
			<point x="450" y="558"/>
			<point x="373" y="660"/>
			<point x="242" y="660" type="curve" smooth="yes"/>
			<point x="116" y="660"/>
			<point x="29" y="576"/>
			<point x="29" y="452" type="curve" smooth="yes"/>
			<point x="29" y="330"/>
			<point x="116" y="256"/>
			<point x="223" y="256" type="curve" smooth="yes"/>
			<point x="305" y="256"/>
			<point x="368" y="296"/>
			<point x="405" y="378" type="curve"/>
			<point x="411" y="378" type="line"/>
			<point x="387" y="385" type="line"/>
			<point x="348" y="338"/>
			<point x="307" y="316"/>
			<point x="250" y="316" type="curve" smooth="yes"/>
			<point x="176" y="316"/>
			<point x="118" y="359"/>
			<point x="118" y="461" type="curve" smooth="yes"/>
			<point x="118" y="562"/>
			<point x="173" y="615"/>
			<point x="238" y="615" type="curve" smooth="yes"/>
			<point x="311" y="615"/>
			<point x="360" y="544"/>
			<point x="360" y="382" type="curve" smooth="yes"/>
			<point x="360" y="199"/>
			<point x="288" y="93"/>
			<point x="76" y="23" type="curve"/>
		</contour>
	</outline>
</glyph>
<glyph name="less" format="2">
	<unicode hex="003C"/>
	<advance width="530"/>
	<outline>
		<contour>
			<point x="57" y="306" type="line"/>
			<point x="444" y="81" type="line"/>
			<point x="474" y="135" type="line"/>
			<point x="115" y="336" type="line"/>
			<point x="115" y="323" type="line"/>
			<point x="474" y="524" type="line"/>
			<point x="444" y="578" type="line"/>
			<point x="57" y="353" type="line"/>
		</contour>
	</outline>
</glyph>
<glyph name="question" format="2">
	<unicode hex="003F"/>
	<advance width="416"/>
	<outline>
		<contour>
			<point x="149" y="-13" type="curve" smooth="yes"/>
			<point x="185" y="-13"/>
			<point x="214" y="17"/>
			<point x="214" y="52" type="curve" smooth="yes"/>
			<point x="214" y="87"/>
			<point x="185" y="117"/>
			<point x="149" y="117" type="curve" smooth="yes"/>
			<point x="113" y="117"/>
			<point x="85" y="87"/>
			<point x="85" y="52" type="curve" smooth="yes"/>
			<point x="85" y="17"/>
			<point x="113" y="-13"/>
		</contour>
		<contour>
			<point x="350" y="461" type="curve" smooth="yes"/>
			<point x="350" y="590"/>
			<point x="206" y="677"/>
			<point x="121" y="685" type="curve"/>
			<point x="85" y="676"/>
			<point x="66" y="661"/>
			<point x="66" y="630" type="curve" smooth="yes"/>
			<point x="66" y="605"/>
			<point x="79" y="587"/>
			<point x="138" y="576" type="curve" smooth="yes"/>
			<point x="323" y="543" type="line"/>
			<point x="216" y="614" type="line"/>
			<point x="256" y="577"/>
			<point x="295" y="527"/>
			<point x="295" y="479" type="curve" smooth="yes"/>
			<point x="295" y="446"/>
			<point x="275" y="421"/>
			<point x="239" y="409" type="curve" smooth="yes"/>
			<point x="182" y="391" type="line" smooth="yes"/>
			<point x="123" y="373"/>
			<point x="102" y="355"/>
			<point x="102" y="325" type="curve" smooth="yes"/>
			<point x="102" y="313"/>
			<point x="106" y="294"/>
			<point x="118" y="255" type="curve" smooth="yes"/>
			<point x="130" y="213" type="line"/>
			<point x="169" y="213" type="line"/>
			<point x="169" y="268" type="line" smooth="yes"/>
			<point x="169" y="301"/>
			<point x="174" y="310"/>
			<point x="216" y="323" type="curve" smooth="yes"/>
			<point x="250" y="335" type="line" smooth="yes"/>
			<point x="318" y="357"/>
			<point x="350" y="399"/>
		</contour>
	</outline>
</glyph>
<glyph name="A" format="2">
	<unicode hex="0041"/>
	<advance width="664"/>
	<outline>
		<contour>
			<point x="5" y="0" type="line"/>
			<point x="234" y="0" type="line"/>
			<point x="234" y="41" type="line"/>
			<point x="125" y="56" type="line"/>
			<point x="105" y="56" type="line"/>
			<point x="5" y="41" type="line"/>
		</contour>
		<contour>
			<point x="71" y="0" type="line"/>
			<point x="118" y="0" type="line"/>
			<point x="314" y="576" type="line"/>
			<point x="319" y="591" type="line"/>
			<point x="299" y="591" type="line"/>
			<point x="497" y="0" type="line"/>
			<point x="595" y="0" type="line"/>
			<point x="365" y="675" type="line"/>
			<point x="302" y="675" type="line"/>
		</contour>
		<contour>
			<point x="177" y="217" type="line"/>
			<point x="463" y="217" type="line"/>
			<point x="463" y="264" type="line"/>
			<point x="177" y="264" type="line"/>
		</contour>
		<contour>
			<point x="381" y="0" type="line"/>
			<point x="653" y="0" type="line"/>
			<point x="653" y="41" type="line"/>
			<point x="529" y="56" type="line"/>
			<point x="507" y="56" type="line"/>
			<point x="381" y="41" type="line"/>
		</contour>
	</outline>
	<anchor name="aboveUC" x="331" y="690"/>
	<anchor name="belowLC" x="315" y="-20"/>
	<anchor name="ogonek" x="539" y="0"/>
</glyph>
<glyph name="C" format="2">
	<unicode hex="0043"/>
	<advance width="631"/>
	<outline>
		<contour>
			<point x="386" y="-15" type="curve" smooth="yes"/>
			<point x="457" y="-15"/>
			<point x="526" y="-1"/>
			<point x="588" y="33" type="curve"/>
			<point x="592" y="178" type="line"/>
			<point x="530" y="178" type="line"/>
			<point x="505" y="30" type="line"/>
			<point x="567" y="44" type="line"/>
			<point x="567" y="99" type="line"/>
			<point x="511" y="52"/>
			<point x="448" y="35"/>
			<point x="391" y="35" type="curve" smooth="yes"/>
			<point x="254" y="35"/>
			<point x="156" y="139"/>
			<point x="156" y="335" type="curve" smooth="yes"/>
			<point x="156" y="530"/>
			<point x="264" y="635"/>
			<point x="398" y="635" type="curve" smooth="yes"/>
			<point x="446" y="635"/>
			<point x="501" y="618"/>
			<point x="557" y="566" type="curve"/>
			<point x="557" y="626" type="line"/>
			<point x="495" y="640" type="line"/>
			<point x="520" y="492" type="line"/>
			<point x="582" y="492" type="line"/>
			<point x="578" y="637" type="line"/>
			<point x="511" y="676"/>
			<point x="440" y="685"/>
			<point x="385" y="685" type="curve" smooth="yes"/>
			<point x="191" y="685"/>
			<point x="47" y="537"/>
			<point x="47" y="335" type="curve" smooth="yes"/>
			<point x="47" y="129"/>
			<point x="184" y="-15"/>
		</contour>
	</outline>
	<anchor name="aboveUC" x="385" y="690"/>
	<anchor name="baseLC" x="386" y="0"/>
	<anchor name="belowLC" x="381" y="-20"/>
</glyph>
<glyph name="D" format="2">
	<unicode hex="0044"/>
	<advance width="710"/>
	<outline>
		<contour>
			<point x="44" y="0" type="line"/>
			<point x="185" y="0" type="line"/>
			<point x="185" y="56" type="line"/>
			<point x="175" y="56" type="line"/>
			<point x="44" y="41" type="line"/>
		</contour>
		<contour>
			<point x="135" y="0" type="curve"/>
			<point x="236" y="0" type="line"/>
			<point x="233" y="103"/>
			<point x="233" y="207"/>
			<point x="233" y="322" type="curve" smooth="yes"/>
			<point x="233" y="359" type="line" smooth="yes"/>
			<point x="233" y="464"/>
			<point x="233" y="569"/>
			<point x="236" y="670" type="curve"/>
			<point x="135" y="670" type="line"/>
			<point x="138" y="567"/>
			<point x="138" y="462"/>
			<point x="138" y="359" type="curve" smooth="yes"/>
			<point x="138" y="322" type="line" smooth="yes"/>
			<point x="138" y="205"/>
			<point x="138" y="101"/>
		</contour>
		<contour>
			<point x="185" y="0" type="line"/>
			<point x="320" y="0" type="line" smooth="yes"/>
			<point x="515" y="0"/>
			<point x="663" y="118"/>
			<point x="663" y="334" type="curve" smooth="yes"/>
			<point x="663" y="551"/>
			<point x="531" y="670"/>
			<point x="339" y="670" type="curve" smooth="yes"/>
			<point x="185" y="670" type="line"/>
			<point x="185" y="624" type="line"/>
			<point x="323" y="624" type="line" smooth="yes"/>
			<point x="468" y="624"/>
			<point x="554" y="522"/>
			<point x="554" y="334" type="curve" smooth="yes"/>
			<point x="554" y="152"/>
			<point x="468" y="47"/>
			<point x="314" y="47" type="curve" smooth="yes"/>
			<point x="185" y="47" type="line"/>
		</contour>
		<contour>
			<point x="44" y="629" type="line"/>
			<point x="175" y="614" type="line"/>
			<point x="185" y="614" type="line"/>
			<point x="185" y="670" type="line"/>
			<point x="44" y="670" type="line"/>
		</contour>
	</outline>
	<anchor name="aboveUC" x="340" y="690"/>
	<anchor name="belowLC" x="329" y="-20"/>
</glyph>
<glyph name="F" format="2">
	<unicode hex="0046"/>
	<advance width="579"/>
	<outline>
		<contour>
			<point x="44" y="0" type="line"/>
			<point x="328" y="0" type="line"/>
			<point x="328" y="41" type="line"/>
			<point x="197" y="56" type="line"/>
			<point x="175" y="56" type="line"/>
			<point x="44" y="41" type="line"/>
		</contour>
		<contour>
			<point x="135" y="0" type="curve"/>
			<point x="236" y="0" type="line"/>
			<point x="233" y="103"/>
			<point x="233" y="207"/>
			<point x="233" y="322" type="curve" smooth="yes"/>
			<point x="233" y="359" type="line" smooth="yes"/>
			<point x="233" y="464"/>
			<point x="233" y="569"/>
			<point x="236" y="670" type="curve"/>
			<point x="135" y="670" type="line"/>
			<point x="138" y="567"/>
			<point x="138" y="462"/>
			<point x="138" y="359" type="curve" smooth="yes"/>
			<point x="138" y="310" type="line" smooth="yes"/>
			<point x="138" y="205"/>
			<point x="138" y="101"/>
		</contour>
		<contour>
			<point x="185" y="318" type="line"/>
			<point x="419" y="318" type="line"/>
			<point x="419" y="365" type="line"/>
			<point x="185" y="365" type="line"/>
		</contour>
		<contour>
			<point x="402" y="214" type="line"/>
			<point x="448" y="214" type="line"/>
			<point x="448" y="460" type="line"/>
			<point x="402" y="460" type="line"/>
			<point x="387" y="355" type="line"/>
			<point x="387" y="325" type="line"/>
		</contour>
		<contour>
			<point x="44" y="629" type="line"/>
			<point x="175" y="614" type="line"/>
			<point x="185" y="614" type="line"/>
			<point x="185" y="670" type="line"/>
			<point x="44" y="670" type="line"/>
		</contour>
		<contour>
			<point x="492" y="493" type="line"/>
			<point x="549" y="493" type="line"/>
			<point x="542" y="670" type="line"/>
			<point x="185" y="670" type="line"/>
			<point x="185" y="620" type="line"/>
			<point x="500" y="620" type="line"/>
			<point x="465" y="650" type="line"/>
		</contour>
	</outline>
	<anchor name="aboveUC" x="331" y="690"/>
	<anchor name="belowLC" x="184" y="-20"/>
</glyph>
<glyph name="J" format="2">
	<unicode hex="004A"/>
	<advance width="374"/>
	<outline>
		<contour>
			<point x="70" y="-133" type="curve" smooth="yes"/>
			<point x="116" y="-133"/>
			<point x="155" y="-117"/>
			<point x="189" y="-75" type="curve" smooth="yes"/>
			<point x="237" y="-17"/>
			<point x="246" y="41"/>
			<point x="246" y="215" type="curve" smooth="yes"/>
			<point x="246" y="360" type="line" smooth="yes"/>
			<point x="246" y="465"/>
			<point x="246" y="569"/>
			<point x="249" y="670" type="curve"/>
			<point x="152" y="670" type="line"/>
			<point x="157" y="178"/>
			<point x="157" y="205"/>
			<point x="157" y="122" type="curve" smooth="yes"/>
			<point x="157" y="-9"/>
			<point x="150" y="-55"/>
			<point x="125" y="-94" type="curve"/>
			<point x="125" y="-98" type="line"/>
			<point x="152" y="-98" type="line"/>
			<point x="152" y="-90" type="line"/>
			<point x="118" y="-64" type="line" smooth="yes"/>
			<point x="90" y="-43"/>
			<point x="69" y="-35"/>
			<point x="43" y="-35" type="curve" smooth="yes"/>
			<point x="12" y="-35"/>
			<point x="-11" y="-47"/>
			<point x="-17" y="-84" type="curve"/>
			<point x="-8" y="-122"/>
			<point x="31" y="-133"/>
		</contour>
		<contour>
			<point x="47" y="629" type="line"/>
			<point x="188" y="614" type="line"/>
			<point x="209" y="614" type="line"/>
			<point x="340" y="629" type="line"/>
			<point x="340" y="670" type="line"/>
			<point x="47" y="670" type="line"/>
		</contour>
	</outline>
	<anchor name="aboveUC" x="197" y="690"/>
	<anchor name="belowLC" x="143" y="-143"/>
</glyph>
<glyph name="N" format="2">
	<unicode hex="004E"/>
	<advance width="735"/>
	<outline>
		<contour>
			<point x="39" y="0" type="line"/>
			<point x="281" y="0" type="line"/>
			<point x="281" y="41" type="line"/>
			<point x="165" y="56" type="line"/>
			<point x="144" y="56" type="line"/>
			<point x="39" y="41" type="line"/>
		</contour>
		<contour>
			<point x="124" y="0" type="line"/>
			<point x="175" y="0" type="line"/>
			<point x="175" y="335" type="line"/>
			<point x="175" y="647" type="line"/>
			<point x="124" y="647" type="line"/>
		</contour>
		<contour>
			<point x="454" y="629" type="line"/>
			<point x="575" y="614" type="line"/>
			<point x="595" y="614" type="line"/>
			<point x="695" y="629" type="line"/>
			<point x="695" y="670" type="line"/>
			<point x="454" y="670" type="line"/>
		</contour>
		<contour>
			<point x="575" y="-7" type="line"/>
			<point x="610" y="-7" type="line"/>
			<point x="610" y="670" type="line"/>
			<point x="559" y="670" type="line"/>
			<point x="559" y="335" type="line"/>
			<point x="559" y="143" type="line"/>
			<point x="576" y="148" type="line"/>
			<point x="209" y="670" type="line"/>
			<point x="44" y="670" type="line"/>
			<point x="44" y="629" type="line"/>
			<point x="130" y="621" type="line"/>
			<point x="164" y="571" type="line"/>
			<point x="166" y="571" type="line"/>
		</contour>
	</outline>
	<anchor name="aboveUC" x="371" y="690"/>
	<anchor name="belowLC" x="368" y="-20"/>
</glyph>
<glyph name="R" format="2">
	<unicode hex="0052"/>
	<advance width="651"/>
	<outline>
		<contour>
			<point x="44" y="0" type="line"/>
			<point x="327" y="0" type="line"/>
			<point x="327" y="41" type="line"/>
			<point x="196" y="56" type="line"/>
			<point x="175" y="56" type="line"/>
			<point x="44" y="41" type="line"/>
		</contour>
		<contour>
			<point x="135" y="0" type="curve"/>
			<point x="236" y="0" type="line"/>
			<point x="233" y="103"/>
			<point x="233" y="207"/>
			<point x="233" y="320" type="curve" smooth="yes"/>
			<point x="233" y="350" type="line" smooth="yes"/>
			<point x="233" y="467"/>
			<point x="233" y="566"/>
			<point x="236" y="670" type="curve"/>
			<point x="135" y="670" type="line"/>
			<point x="138" y="567"/>
			<point x="138" y="462"/>
			<point x="138" y="359" type="curve" smooth="yes"/>
			<point x="138" y="310" type="line" smooth="yes"/>
			<point x="138" y="205"/>
			<point x="138" y="101"/>
		</contour>
		<contour>
			<point x="562" y="-10" type="curve" smooth="yes"/>
			<point x="593" y="-10"/>
			<point x="617" y="-6"/>
			<point x="637" y="0" type="curve"/>
			<point x="637" y="41" type="line"/>
			<point x="531" y="53" type="line"/>
			<point x="565" y="32" type="line"/>
			<point x="517" y="198" type="line" smooth="yes"/>
			<point x="491" y="289"/>
			<point x="448" y="323"/>
			<point x="367" y="329" type="curve"/>
			<point x="367" y="321" type="line"/>
			<point x="501" y="332"/>
			<point x="567" y="410"/>
			<point x="567" y="495" type="curve" smooth="yes"/>
			<point x="567" y="605"/>
			<point x="477" y="670"/>
			<point x="324" y="670" type="curve" smooth="yes"/>
			<point x="185" y="670" type="line"/>
			<point x="185" y="624" type="line"/>
			<point x="321" y="624" type="line" smooth="yes"/>
			<point x="424" y="624"/>
			<point x="468" y="578"/>
			<point x="468" y="494" type="curve" smooth="yes"/>
			<point x="468" y="414"/>
			<point x="418" y="355"/>
			<point x="310" y="355" type="curve" smooth="yes"/>
			<point x="186" y="355" type="line"/>
			<point x="186" y="310" type="line"/>
			<point x="282" y="310" type="line" smooth="yes"/>
			<point x="363" y="310"/>
			<point x="400" y="295"/>
			<point x="419" y="214" type="curve" smooth="yes"/>
			<point x="459" y="54" type="line" smooth="yes"/>
			<point x="471" y="6"/>
			<point x="499" y="-10"/>
		</contour>
		<contour>
			<point x="44" y="629" type="line"/>
			<point x="175" y="614" type="line"/>
			<point x="185" y="614" type="line"/>
			<point x="185" y="670" type="line"/>
			<point x="44" y="670" type="line"/>
		</contour>
	</outline>
	<anchor name="aboveUC" x="323" y="690"/>
	<anchor name="belowLC" x="352" y="-20"/>
</glyph>
<glyph name="S" format="2">
	<unicode hex="0053"/>
	<advance width="512"/>
	<outline>
		<contour>
			<point x="235" y="-15" type="curve" smooth="yes"/>
			<point x="374" y="-15"/>
			<point x="472" y="57"/>
			<point x="472" y="175" type="curve" smooth="yes"/>
			<point x="472" y="270"/>
			<point x="421" y="328"/>
			<point x="290" y="379" type="curve" smooth="yes"/>
			<point x="250" y="394" type="line" smooth="yes"/>
			<point x="178" y="422"/>
			<point x="137" y="460"/>
			<point x="137" y="522" type="curve" smooth="yes"/>
			<point x="137" y="596"/>
			<point x="196" y="635"/>
			<point x="272" y="635" type="curve" smooth="yes"/>
			<point x="325" y="635"/>
			<point x="362" y="618"/>
			<point x="412" y="570" type="curve"/>
			<point x="412" y="620" type="line"/>
			<point x="347" y="653" type="line"/>
			<point x="375" y="502" type="line"/>
			<point x="436" y="502" type="line"/>
			<point x="442" y="633" type="line"/>
			<point x="399" y="665"/>
			<point x="345" y="685"/>
			<point x="278" y="685" type="curve" smooth="yes"/>
			<point x="150" y="685"/>
			<point x="53" y="615"/>
			<point x="53" y="500" type="curve" smooth="yes"/>
			<point x="53" y="398"/>
			<point x="122" y="338"/>
			<point x="225" y="298" type="curve" smooth="yes"/>
			<point x="264" y="282" type="line" smooth="yes"/>
			<point x="349" y="249"/>
			<point x="387" y="220"/>
			<point x="387" y="156" type="curve" smooth="yes"/>
			<point x="387" y="79"/>
			<point x="326" y="35"/>
			<point x="232" y="35" type="curve" smooth="yes"/>
			<point x="164" y="35"/>
			<point x="130" y="55"/>
			<point x="68" y="100" type="curve"/>
			<point x="68" y="52" type="line"/>
			<point x="134" y="24" type="line"/>
			<point x="108" y="178" type="line"/>
			<point x="46" y="178" type="line"/>
			<point x="40" y="38" type="line"/>
			<point x="86" y="8"/>
			<point x="160" y="-15"/>
		</contour>
	</outline>
	<anchor name="aboveUC" x="278" y="690"/>
	<anchor name="baseLC" x="237" y="0"/>
	<anchor name="belowLC" x="241" y="-20"/>
</glyph>
<glyph name="T" format="2">
	<unicode hex="0054"/>
	<advance width="604"/>
	<outline>
		<contour>
			<point x="151" y="0" type="line"/>
			<point x="453" y="0" type="line"/>
			<point x="453" y="41" type="line"/>
			<point x="313" y="56" type="line"/>
			<point x="291" y="56" type="line"/>
			<point x="151" y="41" type="line"/>
		</contour>
		<contour>
			<point x="252" y="0" type="curve"/>
			<point x="352" y="0" type="line"/>
			<point x="349" y="103"/>
			<point x="349" y="207"/>
			<point x="349" y="310" type="curve" smooth="yes"/>
			<point x="349" y="359" type="line" smooth="yes"/>
			<point x="349" y="464"/>
			<point x="349" y="569"/>
			<point x="352" y="670" type="curve"/>
			<point x="252" y="670" type="line"/>
			<point x="255" y="567"/>
			<point x="255" y="462"/>
			<point x="255" y="359" type="curve" smooth="yes"/>
			<point x="255" y="310" type="line" smooth="yes"/>
			<point x="255" y="205"/>
			<point x="255" y="101"/>
		</contour>
		<contour>
			<point x="20" y="492" type="line"/>
			<point x="78" y="492" type="line"/>
			<point x="109" y="670" type="line"/>
			<point x="63" y="620" type="line"/>
			<point x="541" y="620" type="line"/>
			<point x="495" y="670" type="line"/>
			<point x="526" y="492" type="line"/>
			<point x="584" y="492" type="line"/>
			<point x="576" y="670" type="line"/>
			<point x="28" y="670" type="line"/>
		</contour>
	</outline>
	<anchor name="aboveUC" x="302" y="690"/>
	<anchor name="baseLC" x="302" y="0"/>
	<anchor name="belowLC" x="302" y="-20"/>
</glyph>
<glyph name="U" format="2">
	<unicode hex="0055"/>
	<advance width="727"/>
	<outline>
		<contour>
			<point x="367" y="-15" type="curve" smooth="yes"/>
			<point x="504" y="-15"/>
			<point x="606" y="63"/>
			<point x="606" y="274" type="curve" smooth="yes"/>
			<point x="606" y="670" type="line"/>
			<point x="555" y="670" type="line"/>
			<point x="555" y="298" type="line" smooth="yes"/>
			<point x="555" y="121"/>
			<point x="497" y="56"/>
			<point x="384" y="56" type="curve" smooth="yes"/>
			<point x="282" y="56"/>
			<point x="218" y="110"/>
			<point x="218" y="281" type="curve" smooth="yes"/>
			<point x="218" y="360" type="line" smooth="yes"/>
			<point x="218" y="465"/>
			<point x="218" y="569"/>
			<point x="221" y="670" type="curve"/>
			<point x="121" y="670" type="line"/>
			<point x="124" y="567"/>
			<point x="124" y="463"/>
			<point x="124" y="360" type="curve" smooth="yes"/>
			<point x="124" y="252" type="line" smooth="yes"/>
			<point x="124" y="65"/>
			<point x="222" y="-15"/>
		</contour>
		<contour>
			<point x="39" y="629" type="line"/>
			<point x="170" y="614" type="line"/>
			<point x="191" y="614" type="line"/>
			<point x="322" y="629" type="line"/>
			<point x="322" y="670" type="line"/>
			<point x="39" y="670" type="line"/>
		</contour>
		<contour>
			<point x="453" y="629" type="line"/>
			<point x="563" y="615" type="line"/>
			<point x="583" y="615" type="line"/>
			<point x="693" y="629" type="line"/>
			<point x="693" y="670" type="line"/>
			<point x="453" y="670" type="line"/>
		</contour>
	</outline>
	<anchor name="aboveUC" x="385" y="690"/>
	<anchor name="belowLC" x="368" y="-20"/>
	<anchor name="hornLC" x="606" y="594"/>
	<anchor name="ogonek" x="452" y="0"/>
</glyph>
<glyph name="W" format="2">
	<unicode hex="0057"/>
	<advance width="962"/>
	<outline>
		<contour>
			<point x="278" y="-7" type="line"/>
			<point x="321" y="-7" type="line"/>
			<point x="488" y="527" type="line"/>
			<point x="493" y="542" type="line"/>
			<point x="474" y="542" type="line"/>
			<point x="657" y="-7" type="line"/>
			<point x="700" y="-7" type="line"/>
			<point x="883" y="670" type="line"/>
			<point x="832" y="670" type="line"/>
			<point x="686" y="140" type="line"/>
			<point x="682" y="124" type="line"/>
			<point x="699" y="124" type="line"/>
			<point x="524" y="670" type="line"/>
			<point x="488" y="670" type="line"/>
			<point x="313" y="144" type="line"/>
			<point x="308" y="128" type="line"/>
			<point x="326" y="128" type="line"/>
			<point x="181" y="670" type="line"/>
			<point x="83" y="670" type="line"/>
		</contour>
		<contour>
			<point x="15" y="629" type="line"/>
			<point x="145" y="614" type="line"/>
			<point x="166" y="614" type="line"/>
			<point x="287" y="629" type="line"/>
			<point x="287" y="670" type="line"/>
			<point x="15" y="670" type="line"/>
		</contour>
		<contour>
			<point x="370" y="629" type="line"/>
			<point x="498" y="614" type="line"/>
			<point x="520" y="614" type="line"/>
			<point x="642" y="629" type="line"/>
			<point x="642" y="670" type="line"/>
			<point x="370" y="670" type="line"/>
		</contour>
		<contour>
			<point x="726" y="629" type="line"/>
			<point x="830" y="614" type="line"/>
			<point x="850" y="614" type="line"/>
			<point x="953" y="629" type="line"/>
			<point x="953" y="670" type="line"/>
			<point x="726" y="670" type="line"/>
		</contour>
	</outline>
	<anchor name="aboveUC" x="506" y="690"/>
	<anchor name="belowLC" x="491" y="-20"/>
</glyph>
<glyph name="Z" format="2">
	<unicode hex="005A"/>
	<advance width="551"/>
	<outline>
		<contour>
			<point x="20" y="0" type="line"/>
			<point x="523" y="0" type="line"/>
			<point x="531" y="178" type="line"/>
			<point x="470" y="178" type="line"/>
			<point x="437" y="21" type="line"/>
			<point x="473" y="50" type="line"/>
			<point x="298" y="50" type="line"/>
			<point x="126" y="50" type="line"/>
			<point x="126" y="62" type="line"/>
			<point x="116" y="25" type="line"/>
			<point x="509" y="635" type="line"/>
			<point x="509" y="670" type="line"/>
			<point x="38" y="670" type="line"/>
			<point x="30" y="492" type="line"/>
			<point x="91" y="492" type="line"/>
			<point x="124" y="649" type="line"/>
			<point x="88" y="620" type="line"/>
			<point x="246" y="620" type="line"/>
			<point x="404" y="620" type="line"/>
			<point x="404" y="605" type="line"/>
			<point x="414" y="645" type="line"/>
			<point x="20" y="36" type="line"/>
		</contour>
	</outline>
	<anchor name="aboveUC" x="266" y="690"/>
	<anchor name="belowLC" x="286" y="-20"/>
</glyph>
<glyph name="underscore" format="2">
	<unicode hex="005F"/>
	<advance width="512"/>
	<outline>
		<contour>
			<point x="-5" y="-69" type="line"/>
			<point x="517" y="-69" type="line"/>
			<point x="517" y="-4" type="line"/>
			<point x="-5" y="-4" type="line"/>
		</contour>
	</outline>
</glyph>
<glyph name="c" format="2">
	<unicode hex="0063"/>
	<advance width="488"/>
	<outline>
		<contour>
			<point x="272" y="-13" type="curve" smooth="yes"/>
			<point x="365" y="-13"/>
			<point x="418" y="28"/>
			<point x="457" y="100" type="curve"/>
			<point x="435" y="118" type="line"/>
			<point x="390" y="66"/>
			<point x="345" y="52"/>
			<point x="295" y="52" type="curve" smooth="yes"/>
			<point x="205" y="52"/>
			<point x="133" y="108"/>
			<point x="133" y="242" type="curve" smooth="yes"/>
			<point x="133" y="373"/>
			<point x="195" y="442"/>
			<point x="280" y="442" type="curve" smooth="yes"/>
			<point x="308" y="442"/>
			<point x="342" y="435"/>
			<point x="376" y="417" type="curve"/>
			<point x="328" y="455" type="line"/>
			<point x="352" y="368" type="line" smooth="yes"/>
			<point x="359" y="340"/>
			<point x="373" y="320"/>
			<point x="407" y="320" type="curve" smooth="yes"/>
			<point x="432" y="320"/>
			<point x="448" y="332"/>
			<point x="453" y="358" type="curve"/>
			<point x="440" y="432"/>
			<point x="366" y="488"/>
			<point x="276" y="488" type="curve" smooth="yes"/>
			<point x="155" y="488"/>
			<point x="45" y="393"/>
			<point x="45" y="232" type="curve" smooth="yes"/>
			<point x="45" y="79"/>
			<point x="129" y="-13"/>
		</contour>
	</outline>
	<anchor name="aboveLC" x="277" y="495"/>
	<anchor name="baseLC" x="275" y="0"/>
	<anchor name="belowLC" x="275" y="-20"/>
</glyph>
<glyph name="g" format="2">
	<unicode hex="0067"/>
	<advance width="518"/>
	<outline>
		<contour>
			<point x="232" y="-240" type="curve" smooth="yes"/>
			<point x="403" y="-240"/>
			<point x="490" y="-153"/>
			<point x="490" y="-66" type="curve" smooth="yes"/>
			<point x="490" y="14"/>
			<point x="439" y="61"/>
			<point x="329" y="61" type="curve" smooth="yes"/>
			<point x="210" y="61" type="line" smooth="yes"/>
			<point x="162" y="61"/>
			<point x="140" y="78"/>
			<point x="140" y="115" type="curve" smooth="yes"/>
			<point x="140" y="137"/>
			<point x="153" y="159"/>
			<point x="182" y="190" type="curve"/>
			<point x="148" y="205" type="line"/>
			<point x="148" y="194" type="line"/>
			<point x="89" y="142"/>
			<point x="68" y="106"/>
			<point x="68" y="73" type="curve" smooth="yes"/>
			<point x="68" y="30"/>
			<point x="94" y="4"/>
			<point x="145" y="-7" type="curve"/>
			<point x="145" y="-10" type="line"/>
			<point x="161" y="-13"/>
			<point x="180" y="-14"/>
			<point x="198" y="-14" type="curve" smooth="yes"/>
			<point x="315" y="-14" type="line" smooth="yes"/>
			<point x="387" y="-14"/>
			<point x="415" y="-47"/>
			<point x="415" y="-92" type="curve" smooth="yes"/>
			<point x="415" y="-148"/>
			<point x="357" y="-193"/>
			<point x="247" y="-193" type="curve" smooth="yes"/>
			<point x="168" y="-193"/>
			<point x="118" y="-167"/>
			<point x="118" y="-102" type="curve" smooth="yes"/>
			<point x="118" y="-63"/>
			<point x="134" y="-34"/>
			<point x="174" y="4" type="curve"/>
			<point x="168" y="10" type="line"/>
			<point x="68" y="-31"/>
			<point x="36" y="-69"/>
			<point x="36" y="-118" type="curve" smooth="yes"/>
			<point x="36" y="-189"/>
			<point x="95" y="-240"/>
		</contour>
		<contour>
			<point x="239" y="160" type="curve" smooth="yes"/>
			<point x="343" y="160"/>
			<point x="420" y="219"/>
			<point x="420" y="324" type="curve" smooth="yes"/>
			<point x="420" y="370"/>
			<point x="406" y="407"/>
			<point x="382" y="434" type="curve"/>
			<point x="380" y="436" type="line"/>
			<point x="348" y="470"/>
			<point x="299" y="488"/>
			<point x="240" y="488" type="curve" smooth="yes"/>
			<point x="136" y="488"/>
			<point x="59" y="429"/>
			<point x="59" y="324" type="curve" smooth="yes"/>
			<point x="59" y="215"/>
			<point x="134" y="160"/>
		</contour>
		<contour>
			<point x="237" y="200" type="curve" smooth="yes"/>
			<point x="175" y="200"/>
			<point x="140" y="250"/>
			<point x="140" y="323" type="curve" smooth="yes"/>
			<point x="140" y="396"/>
			<point x="178" y="447"/>
			<point x="241" y="447" type="curve" smooth="yes"/>
			<point x="303" y="447"/>
			<point x="339" y="398"/>
			<point x="339" y="327" type="curve" smooth="yes"/>
			<point x="339" y="253"/>
			<point x="301" y="200"/>
		</contour>
		<contour>
			<point x="343" y="415" type="line"/>
			<point x="495" y="415" type="line"/>
			<point x="495" y="478" type="line"/>
			<point x="480" y="488" type="line"/>
			<point x="349" y="442" type="line"/>
			<point x="343" y="442" type="line"/>
		</contour>
	</outline>
	<anchor name="aboveLC" x="270" y="495"/>
	<anchor name="belowLC" x="259" y="-250"/>
</glyph>
<glyph name="k" format="2">
	<unicode hex="006B"/>
	<advance width="547"/>
	<outline>
		<contour>
			<point x="25" y="0" type="line"/>
			<point x="273" y="0" type="line"/>
			<point x="273" y="36" type="line"/>
			<point x="160" y="56" type="line"/>
			<point x="137" y="56" type="line"/>
			<point x="25" y="36" type="line"/>
		</contour>
		<contour>
			<point x="104" y="0" type="curve"/>
			<point x="194" y="0" type="line"/>
			<point x="192" y="68"/>
			<point x="191" y="141"/>
			<point x="191" y="210" type="curve" smooth="yes"/>
			<point x="191" y="589" type="line"/>
			<point x="195" y="732" type="line"/>
			<point x="181" y="740" type="line"/>
			<point x="25" y="695" type="line"/>
			<point x="25" y="659" type="line"/>
			<point x="107" y="649" type="line"/>
			<point x="107" y="210" type="line" smooth="yes"/>
			<point x="107" y="141"/>
			<point x="106" y="68"/>
		</contour>
		<contour>
			<point x="149" y="137" type="line"/>
			<point x="479" y="475" type="line"/>
			<point x="417" y="475" type="line"/>
			<point x="284" y="337" type="line"/>
			<point x="152" y="199" type="line"/>
			<point x="149" y="199" type="line"/>
		</contour>
		<contour>
			<point x="411" y="0" type="line"/>
			<point x="547" y="0" type="line"/>
			<point x="547" y="36" type="line"/>
			<point x="481" y="48" type="line"/>
			<point x="306" y="326" type="line"/>
			<point x="246" y="266" type="line"/>
		</contour>
		<contour>
			<point x="288" y="436" type="line"/>
			<point x="380" y="413" type="line"/>
			<point x="410" y="419" type="line"/>
			<point x="521" y="436" type="line"/>
			<point x="521" y="475" type="line"/>
			<point x="288" y="475" type="line"/>
		</contour>
	</outline>
	<anchor name="aboveLC" x="155" y="740"/>
	<anchor name="belowLC" x="297" y="-20"/>
</glyph>
<glyph name="n" format="2">
	<unicode hex="006E"/>
	<advance width="606"/>
	<outline>
		<contour>
			<point x="40" y="0" type="line"/>
			<point x="272" y="0" type="line"/>
			<point x="272" y="36" type="line"/>
			<point x="172" y="56" type="line"/>
			<point x="149" y="56" type="line"/>
			<point x="40" y="36" type="line"/>
		</contour>
		<contour>
			<point x="113" y="0" type="curve"/>
			<point x="204" y="0" type="line"/>
			<point x="202" y="45"/>
			<point x="201" y="148"/>
			<point x="201" y="210" type="curve" smooth="yes"/>
			<point x="201" y="361" type="line"/>
			<point x="201" y="362" type="line"/>
			<point x="189" y="478" type="line"/>
			<point x="174" y="488" type="line"/>
			<point x="34" y="427" type="line"/>
			<point x="34" y="392" type="line"/>
			<point x="113" y="383" type="line"/>
			<point x="115" y="343"/>
			<point x="116" y="313"/>
			<point x="116" y="258" type="curve" smooth="yes"/>
			<point x="116" y="210" type="line" smooth="yes"/>
			<point x="116" y="148"/>
			<point x="115" y="45"/>
		</contour>
		<contour>
			<point x="344" y="0" type="line"/>
			<point x="576" y="0" type="line"/>
			<point x="576" y="36" type="line"/>
			<point x="476" y="56" type="line"/>
			<point x="453" y="56" type="line"/>
			<point x="344" y="36" type="line"/>
		</contour>
		<contour>
			<point x="417" y="0" type="curve"/>
			<point x="507" y="0" type="line"/>
			<point x="505" y="45"/>
			<point x="504" y="146"/>
			<point x="504" y="210" type="curve" smooth="yes"/>
			<point x="504" y="303" type="line" smooth="yes"/>
			<point x="504" y="434"/>
			<point x="462" y="488"/>
			<point x="376" y="488" type="curve" smooth="yes"/>
			<point x="309" y="488"/>
			<point x="235" y="445"/>
			<point x="186" y="385" type="curve"/>
			<point x="178" y="385" type="line"/>
			<point x="191" y="347" type="line"/>
			<point x="247" y="396"/>
			<point x="288" y="416"/>
			<point x="337" y="416" type="curve" smooth="yes"/>
			<point x="396" y="416"/>
			<point x="420" y="387"/>
			<point x="420" y="295" type="curve" smooth="yes"/>
			<point x="420" y="210" type="line" smooth="yes"/>
			<point x="420" y="146"/>
			<point x="419" y="45"/>
		</contour>
	</outline>
	<anchor name="aboveLC" x="307" y="495"/>
	<anchor name="belowLC" x="311" y="-20"/>
</glyph>
<glyph name="q" format="2">
	<unicode hex="0071"/>
	<advance width="557"/>
	<outline>
		<contour>
			<point x="299" y="-240" type="line"/>
			<point x="556" y="-240" type="line"/>
			<point x="556" y="-204" type="line"/>
			<point x="444" y="-184" type="line"/>
			<point x="420" y="-184" type="line"/>
			<point x="299" y="-204" type="line"/>
		</contour>
		<contour>
			<point x="249" y="-13" type="curve" smooth="yes"/>
			<point x="314" y="-13"/>
			<point x="363" y="16"/>
			<point x="405" y="83" type="curve"/>
			<point x="414" y="83" type="line"/>
			<point x="405" y="125" type="line"/>
			<point x="359" y="67"/>
			<point x="324" y="44"/>
			<point x="274" y="44" type="curve" smooth="yes"/>
			<point x="194" y="44"/>
			<point x="135" y="103"/>
			<point x="135" y="234" type="curve" smooth="yes"/>
			<point x="135" y="370"/>
			<point x="199" y="431"/>
			<point x="273" y="431" type="curve" smooth="yes"/>
			<point x="311" y="431"/>
			<point x="351" y="415"/>
			<point x="408" y="359" type="curve"/>
			<point x="418" y="403" type="line"/>
			<point x="406" y="403" type="line"/>
			<point x="357" y="467"/>
			<point x="307" y="488"/>
			<point x="255" y="488" type="curve" smooth="yes"/>
			<point x="136" y="488"/>
			<point x="45" y="385"/>
			<point x="45" y="232" type="curve" smooth="yes"/>
			<point x="45" y="86"/>
			<point x="127" y="-13"/>
		</contour>
		<contour>
			<point x="390" y="-240" type="curve"/>
			<point x="477" y="-240" type="line"/>
			<point x="475" y="-170"/>
			<point x="474" y="-97"/>
			<point x="474" y="-27" type="curve" smooth="yes"/>
			<point x="474" y="343" type="line"/>
			<point x="477" y="478" type="line"/>
			<point x="461" y="488" type="line"/>
			<point x="390" y="416" type="line"/>
			<point x="390" y="414" type="line"/>
			<point x="390" y="86" type="line"/>
			<point x="393" y="72" type="line"/>
			<point x="393" y="-27" type="line" smooth="yes"/>
			<point x="393" y="-97"/>
			<point x="392" y="-170"/>
		</contour>
	</outline>
	<anchor name="aboveLC" x="301" y="495"/>
	<anchor name="belowLC" x="430" y="-260"/>
</glyph>
<glyph name="r" format="2">
	<unicode hex="0072"/>
	<advance width="423"/>
	<outline>
		<contour>
			<point x="42" y="0" type="line"/>
			<point x="285" y="0" type="line"/>
			<point x="285" y="36" type="line"/>
			<point x="176" y="56" type="line"/>
			<point x="151" y="56" type="line"/>
			<point x="42" y="36" type="line"/>
		</contour>
		<contour>
			<point x="113" y="0" type="curve"/>
			<point x="204" y="0" type="line"/>
			<point x="202" y="45"/>
			<point x="201" y="148"/>
			<point x="201" y="210" type="curve" smooth="yes"/>
			<point x="201" y="351" type="line"/>
			<point x="201" y="353" type="line"/>
			<point x="189" y="478" type="line"/>
			<point x="174" y="488" type="line"/>
			<point x="34" y="427" type="line"/>
			<point x="34" y="392" type="line"/>
			<point x="113" y="383" type="line"/>
			<point x="115" y="343"/>
			<point x="116" y="313"/>
			<point x="116" y="258" type="curve" smooth="yes"/>
			<point x="116" y="210" type="line" smooth="yes"/>
			<point x="116" y="148"/>
			<point x="115" y="45"/>
		</contour>
		<contour>
			<point x="199" y="278" type="line"/>
			<point x="221" y="354"/>
			<point x="257" y="404"/>
			<point x="318" y="436" type="curve"/>
			<point x="269" y="427" type="line"/>
			<point x="296" y="403" type="line" smooth="yes"/>
			<point x="315" y="387"/>
			<point x="334" y="378"/>
			<point x="357" y="378" type="curve" smooth="yes"/>
			<point x="397" y="378"/>
			<point x="416" y="404"/>
			<point x="416" y="451" type="curve"/>
			<point x="404" y="473"/>
			<point x="374" y="488"/>
			<point x="344" y="488" type="curve" smooth="yes"/>
			<point x="287" y="488"/>
			<point x="227" y="435"/>
			<point x="195" y="346" type="curve"/>
			<point x="184" y="346" type="line"/>
		</contour>
	</outline>
	<anchor name="aboveLC" x="246" y="495"/>
	<anchor name="belowLC" x="164" y="-20"/>
</glyph>
<glyph name="z" format="2">
	<unicode hex="007A"/>
	<advance width="456"/>
	<outline>
		<contour>
			<point x="29" y="0" type="line"/>
			<point x="421" y="0" type="line"/>
			<point x="431" y="163" type="line"/>
			<point x="379" y="163" type="line"/>
			<point x="342" y="13" type="line"/>
			<point x="379" y="42" type="line"/>
			<point x="240" y="42" type="line"/>
			<point x="123" y="42" type="line"/>
			<point x="123" y="63" type="line"/>
			<point x="113" y="18" type="line"/>
			<point x="416" y="439" type="line"/>
			<point x="416" y="475" type="line"/>
			<point x="43" y="475" type="line"/>
			<point x="35" y="325" type="line"/>
			<point x="87" y="321" type="line"/>
			<point x="121" y="461" type="line"/>
			<point x="84" y="432" type="line"/>
			<point x="214" y="432" type="line"/>
			<point x="324" y="432" type="line"/>
			<point x="333" y="422" type="line"/>
			<point x="333" y="456" type="line"/>
			<point x="29" y="35" type="line"/>
		</contour>
	</outline>
	<anchor name="aboveLC" x="229" y="495"/>
	<anchor name="belowLC" x="237" y="-20"/>
</glyph>
<glyph name="exclamdown" format="2">
	<unicode hex="00A1"/>
	<advance width="289"/>
	<outline>
		<contour>
			<point x="144" y="489" type="curve" smooth="yes"/>
			<point x="108" y="489"/>
			<point x="80" y="459"/>
			<point x="80" y="424" type="curve" smooth="yes"/>
			<point x="80" y="389"/>
			<point x="108" y="359"/>
			<point x="144" y="359" type="curve" smooth="yes"/>
			<point x="180" y="359"/>
			<point x="209" y="389"/>
			<point x="209" y="424" type="curve" smooth="yes"/>
			<point x="209" y="459"/>
			<point x="180" y="489"/>
		</contour>
		<contour>
			<point x="144" y="-209" type="curve" smooth="yes"/>
			<point x="180" y="-209"/>
			<point x="202" y="-190"/>
			<point x="202" y="-146" type="curve" smooth="yes"/>
			<point x="202" y="-109"/>
			<point x="191" y="-15"/>
			<point x="176" y="124" type="curve" smooth="yes"/>
			<point x="163" y="261" type="line"/>
			<point x="126" y="261" type="line"/>
			<point x="112" y="124" type="line" smooth="yes"/>
			<point x="98" y="-15"/>
			<point x="87" y="-109"/>
			<point x="87" y="-146" type="curve" smooth="yes"/>
			<point x="87" y="-190"/>
			<point x="109" y="-209"/>
		</contour>
	</outline>
</glyph>
<glyph name="cent" format="2">
	<unicode hex="00A2"/>
	<advance width="500"/>
	<outline>
		<contour>
			<point x="289" y="-45" type="line"/>
			<point x="289" y="661" type="line"/>
			<point x="248" y="661" type="line"/>
			<point x="248" y="-45" type="line"/>
		</contour>
		<contour>
			<point x="277" y="524" type="curve" smooth="yes"/>
			<point x="306" y="524"/>
			<point x="341" y="517"/>
			<point x="375" y="499" type="curve"/>
			<point x="328" y="536" type="line"/>
			<point x="342" y="477" type="line" smooth="yes"/>
			<point x="355" y="423"/>
			<point x="374" y="400"/>
			<point x="406" y="400" type="curve" smooth="yes"/>
			<point x="432" y="400"/>
			<point x="448" y="413"/>
			<point x="453" y="438" type="curve"/>
			<point x="440" y="513"/>
			<point x="366" y="569"/>
			<point x="277" y="569" type="curve" smooth="yes"/>
			<point x="154" y="569"/>
			<point x="43" y="471"/>
			<point x="43" y="314" type="curve" smooth="yes"/>
			<point x="43" y="160"/>
			<point x="131" y="62"/>
			<point x="265" y="62" type="curve" smooth="yes"/>
			<point x="363" y="62"/>
			<point x="428" y="108"/>
			<point x="455" y="191" type="curve"/>
			<point x="431" y="204" type="line"/>
			<point x="399" y="154"/>
			<point x="342" y="126"/>
			<point x="282" y="126" type="curve" smooth="yes"/>
			<point x="192" y="126"/>
			<point x="130" y="197"/>
			<point x="130" y="323" type="curve" smooth="yes"/>
			<point x="130" y="451"/>
			<point x="192" y="524"/>
		</contour>
	</outline>
</glyph>
<glyph name="yen" format="2">
	<unicode hex="00A5"/>
	<advance width="500"/>
	<outline>
		<contour>
			<point x="277" y="239" type="line"/>
			<point x="464" y="647" type="line"/>
			<point x="414" y="647" type="line"/>
			<point x="269" y="323" type="line"/>
			<point x="263" y="311" type="line"/>
			<point x="279" y="311" type="line"/>
			<point x="134" y="647" type="line"/>
			<point x="34" y="647" type="line"/>
			<point x="226" y="239" type="line"/>
		</contour>
		<contour>
			<point x="105" y="593" type="line"/>
			<point x="115" y="593" type="line"/>
			<point x="232" y="608" type="line"/>
			<point x="232" y="647" type="line"/>
			<point x="-11" y="647" type="line"/>
			<point x="-11" y="608" type="line"/>
		</contour>
		<contour>
			<point x="240" y="54" type="line"/>
			<point x="105" y="40" type="line"/>
			<point x="105" y="0" type="line"/>
			<point x="397" y="0" type="line"/>
			<point x="397" y="40" type="line"/>
			<point x="261" y="54" type="line"/>
		</contour>
		<contour>
			<point x="210" y="192" type="line" smooth="yes"/>
			<point x="210" y="127"/>
			<point x="208" y="70"/>
			<point x="207" y="0" type="curve"/>
			<point x="293" y="0" type="line"/>
			<point x="291" y="72"/>
			<point x="290" y="128"/>
			<point x="290" y="192" type="curve" smooth="yes"/>
			<point x="290" y="311" type="line"/>
			<point x="210" y="311" type="line"/>
		</contour>
		<contour>
			<point x="419" y="593" type="line"/>
			<point x="425" y="593" type="line"/>
			<point x="511" y="608" type="line"/>
			<point x="511" y="647" type="line"/>
			<point x="319" y="647" type="line"/>
			<point x="319" y="608" type="line"/>
		</contour>
		<contour>
			<point x="50" y="148" type="line"/>
			<point x="457" y="148" type="line"/>
			<point x="457" y="198" type="line"/>
			<point x="50" y="198" type="line"/>
		</contour>
		<contour>
			<point x="50" y="270" type="line"/>
			<point x="457" y="270" type="line"/>
			<point x="457" y="320" type="line"/>
			<point x="50" y="320" type="line"/>
		</contour>
	</outline>
</glyph>
<glyph name="dieresis" format="2">
	<unicode hex="00A8"/>
	<advance width="400"/>
	<outline>
		<contour>
			<point x="95" y="596" type="curve" smooth="yes"/>
			<point x="128" y="596"/>
			<point x="155" y="620"/>
			<point x="155" y="653" type="curve" smooth="yes"/>
			<point x="155" y="685"/>
			<point x="128" y="710"/>
			<point x="95" y="710" type="curve" smooth="yes"/>
			<point x="63" y="710"/>
			<point x="36" y="685"/>
			<point x="36" y="653" type="curve" smooth="yes"/>
			<point x="36" y="620"/>
			<point x="63" y="596"/>
		</contour>
		<contour>
			<point x="305" y="596" type="curve" smooth="yes"/>
			<point x="337" y="596"/>
			<point x="364" y="620"/>
			<point x="364" y="653" type="curve" smooth="yes"/>
			<point x="364" y="685"/>
			<point x="337" y="710"/>
			<point x="305" y="710" type="curve" smooth="yes"/>
			<point x="272" y="710"/>
			<point x="245" y="685"/>
			<point x="245" y="653" type="curve" smooth="yes"/>
			<point x="245" y="620"/>
			<point x="272" y="596"/>
		</contour>
	</outline>
</glyph>
<glyph name="copyright" format="2">
	<unicode hex="00A9"/>
	<advance width="755"/>
	<outline>
		<contour>
			<point x="378" y="-15" type="curve" smooth="yes"/>
			<point x="571" y="-15"/>
			<point x="725" y="119"/>
			<point x="725" y="337" type="curve" smooth="yes"/>
			<point x="725" y="554"/>
			<point x="571" y="685"/>
			<point x="378" y="685" type="curve" smooth="yes"/>
			<point x="184" y="685"/>
			<point x="30" y="554"/>
			<point x="30" y="337" type="curve" smooth="yes"/>
			<point x="30" y="119"/>
			<point x="184" y="-15"/>
		</contour>
		<contour>
			<point x="378" y="25" type="curve" smooth="yes"/>
			<point x="210" y="25"/>
			<point x="81" y="144"/>
			<point x="81" y="337" type="curve" smooth="yes"/>
			<point x="81" y="529"/>
			<point x="210" y="645"/>
			<point x="378" y="645" type="curve" smooth="yes"/>
			<point x="546" y="645"/>
			<point x="675" y="528"/>
			<point x="675" y="337" type="curve" smooth="yes"/>
			<point x="675" y="145"/>
			<point x="546" y="25"/>
		</contour>
		<contour>
			<point x="394" y="134" type="curve" smooth="yes"/>
			<point x="436" y="134"/>
			<point x="476" y="143"/>
			<point x="512" y="162" type="curve"/>
			<point x="515" y="257" type="line"/>
			<point x="471" y="257" type="line"/>
			<point x="456" y="161" type="line"/>
			<point x="500" y="209" type="line"/>
			<point x="469" y="182"/>
			<point x="425" y="175"/>
			<point x="402" y="175" type="curve" smooth="yes"/>
			<point x="324" y="175"/>
			<point x="271" y="231"/>
			<point x="271" y="338" type="curve" smooth="yes"/>
			<point x="271" y="445"/>
			<point x="329" y="503"/>
			<point x="402" y="503" type="curve" smooth="yes"/>
			<point x="429" y="503"/>
			<point x="462" y="492"/>
			<point x="495" y="466" type="curve"/>
			<point x="451" y="515" type="line"/>
			<point x="466" y="418" type="line"/>
			<point x="509" y="418" type="line"/>
			<point x="507" y="514" type="line"/>
			<point x="468" y="536"/>
			<point x="436" y="542"/>
			<point x="393" y="542" type="curve" smooth="yes"/>
			<point x="282" y="542"/>
			<point x="198" y="455"/>
			<point x="198" y="337" type="curve" smooth="yes"/>
			<point x="198" y="218"/>
			<point x="278" y="134"/>
		</contour>
	</outline>
</glyph>
<glyph name="registered" format="2">
	<unicode hex="00AE"/>
	<advance width="459"/>
	<outline>
		<contour>
			<point x="336" y="434" type="line"/>
			<point x="289" y="439" type="line"/>
			<point x="314" y="426" type="line"/>
			<point x="304" y="478" type="line" smooth="yes"/>
			<point x="298" y="506"/>
			<point x="271" y="519"/>
			<point x="234" y="519" type="curve"/>
			<point x="219" y="512" type="line"/>
			<point x="286" y="512"/>
			<point x="308" y="542"/>
			<point x="308" y="569" type="curve" smooth="yes"/>
			<point x="308" y="599"/>
			<point x="280" y="620"/>
			<point x="232" y="620" type="curve" smooth="yes"/>
			<point x="187" y="620" type="line"/>
			<point x="187" y="603" type="line"/>
			<point x="222" y="603" type="line" smooth="yes"/>
			<point x="249" y="603"/>
			<point x="262" y="590"/>
			<point x="262" y="565" type="curve" smooth="yes"/>
			<point x="262" y="543"/>
			<point x="251" y="525"/>
			<point x="222" y="525" type="curve" smooth="yes"/>
			<point x="187" y="525" type="line"/>
			<point x="187" y="508" type="line"/>
			<point x="223" y="508" type="line" smooth="yes"/>
			<point x="242" y="508"/>
			<point x="255" y="501"/>
			<point x="258" y="484" type="curve" smooth="yes"/>
			<point x="267" y="441" type="line" smooth="yes"/>
			<point x="271" y="420"/>
			<point x="281" y="415"/>
			<point x="306" y="415" type="curve" smooth="yes"/>
			<point x="317" y="415"/>
			<point x="323" y="416"/>
			<point x="336" y="419" type="curve"/>
		</contour>
		<contour>
			<point x="181" y="439" type="line"/>
			<point x="137" y="434" type="line"/>
			<point x="137" y="419" type="line"/>
			<point x="237" y="419" type="line"/>
			<point x="237" y="434" type="line"/>
			<point x="189" y="439" type="line"/>
		</contour>
		<contour>
			<point x="181" y="599" type="line"/>
			<point x="187" y="599" type="line"/>
			<point x="187" y="620" type="line"/>
			<point x="137" y="620" type="line"/>
			<point x="137" y="604" type="line"/>
		</contour>
		<contour>
			<point x="65" y="516" type="curve" smooth="yes"/>
			<point x="65" y="618"/>
			<point x="140" y="681"/>
			<point x="229" y="681" type="curve" smooth="yes"/>
			<point x="319" y="681"/>
			<point x="394" y="618"/>
			<point x="394" y="516" type="curve" smooth="yes"/>
			<point x="394" y="414"/>
			<point x="319" y="348"/>
			<point x="229" y="348" type="curve" smooth="yes"/>
			<point x="140" y="348"/>
			<point x="65" y="414"/>
		</contour>
		<contour>
			<point x="166" y="419" type="line"/>
			<point x="209" y="419" type="line"/>
			<point x="209" y="620" type="line"/>
			<point x="166" y="620" type="line"/>
		</contour>
		<contour>
			<point x="30" y="516" type="curve" smooth="yes"/>
			<point x="30" y="393"/>
			<point x="119" y="317"/>
			<point x="229" y="317" type="curve" smooth="yes"/>
			<point x="337" y="317"/>
			<point x="429" y="393"/>
			<point x="429" y="516" type="curve" smooth="yes"/>
			<point x="429" y="639"/>
			<point x="336" y="712"/>
			<point x="229" y="712" type="curve" smooth="yes"/>
			<point x="123" y="712"/>
			<point x="30" y="639"/>
		</contour>
	</outline>
</glyph>
<glyph name="macron" format="2">
	<unicode hex="00AF"/>
	<advance width="400"/>
	<outline>
		<contour>
			<point x="80" y="596" type="line"/>
			<point x="320" y="596" type="line"/>
			<point x="320" y="659" type="line"/>
			<point x="80" y="659" type="line"/>
		</contour>
	</outline>
</glyph>
<glyph name="plusminus" format="2">
	<unicode hex="00B1"/>
	<advance width="530"/>
	<outline>
		<contour>
			<point x="235" y="98" type="line"/>
			<point x="296" y="98" type="line"/>
			<point x="296" y="558" type="line"/>
			<point x="235" y="558" type="line"/>
		</contour>
		<contour>
			<point x="502" y="302" type="line"/>
			<point x="502" y="360" type="line"/>
			<point x="29" y="360" type="line"/>
			<point x="29" y="302" type="line"/>
		</contour>
		<contour>
			<point x="502" y="0" type="line"/>
			<point x="502" y="58" type="line"/>
			<point x="29" y="58" type="line"/>
			<point x="29" y="0" type="line"/>
		</contour>
	</outline>
</glyph>
<glyph name="two.sups" format="2">
	<unicode hex="00B2"/>
	<advance width="370"/>
	<outline>
		<contour>
			<point x="54" y="427" type="line"/>
			<point x="323" y="427" type="line"/>
			<point x="323" y="497" type="line"/>
			<point x="118" y="497" type="line"/>
			<point x="118" y="509" type="line"/>
			<point x="98" y="470" type="line"/>
			<point x="179" y="544" type="line" smooth="yes"/>
			<point x="269" y="627"/>
			<point x="308" y="671"/>
			<point x="308" y="729" type="curve" smooth="yes"/>
			<point x="308" y="782"/>
			<point x="274" y="833"/>
			<point x="187" y="833" type="curve" smooth="yes"/>
			<point x="116" y="833"/>
			<point x="53" y="800"/>
			<point x="48" y="732" type="curve"/>
			<point x="56" y="717"/>
			<point x="69" y="708"/>
			<point x="85" y="708" type="curve" smooth="yes"/>
			<point x="103" y="708"/>
			<point x="115" y="719"/>
			<point x="124" y="758" type="curve" smooth="yes"/>
			<point x="138" y="814" type="line"/>
			<point x="98" y="786" type="line"/>
			<point x="122" y="796"/>
			<point x="142" y="799"/>
			<point x="160" y="799" type="curve" smooth="yes"/>
			<point x="207" y="799"/>
			<point x="235" y="772"/>
			<point x="235" y="721" type="curve" smooth="yes"/>
			<point x="235" y="670"/>
			<point x="206" y="623"/>
			<point x="147" y="566" type="curve" smooth="yes"/>
			<point x="54" y="477" type="line"/>
		</contour>
	</outline>
</glyph>
<glyph name="three.sups" format="2">
	<unicode hex="00B3"/>
	<advance width="370"/>
	<outline>
		<contour>
			<point x="179" y="418" type="curve" smooth="yes"/>
			<point x="253" y="418"/>
			<point x="325" y="451"/>
			<point x="325" y="533" type="curve" smooth="yes"/>
			<point x="325" y="601"/>
			<point x="277" y="640"/>
			<point x="192" y="640" type="curve"/>
			<point x="199" y="632" type="line"/>
			<point x="261" y="632"/>
			<point x="307" y="677"/>
			<point x="307" y="735" type="curve" smooth="yes"/>
			<point x="307" y="794"/>
			<point x="257" y="833"/>
			<point x="183" y="833" type="curve" smooth="yes"/>
			<point x="120" y="833"/>
			<point x="67" y="804"/>
			<point x="59" y="740" type="curve"/>
			<point x="66" y="726"/>
			<point x="79" y="719"/>
			<point x="93" y="719" type="curve" smooth="yes"/>
			<point x="111" y="719"/>
			<point x="127" y="731"/>
			<point x="132" y="761" type="curve" smooth="yes"/>
			<point x="142" y="814" type="line"/>
			<point x="113" y="791" type="line"/>
			<point x="135" y="797"/>
			<point x="151" y="799"/>
			<point x="163" y="799" type="curve" smooth="yes"/>
			<point x="208" y="799"/>
			<point x="236" y="774"/>
			<point x="236" y="727" type="curve" smooth="yes"/>
			<point x="236" y="680"/>
			<point x="209" y="655"/>
			<point x="154" y="655" type="curve" smooth="yes"/>
			<point x="129" y="655" type="line"/>
			<point x="129" y="615" type="line"/>
			<point x="159" y="615" type="line" smooth="yes"/>
			<point x="224" y="615"/>
			<point x="252" y="585"/>
			<point x="252" y="536" type="curve" smooth="yes"/>
			<point x="252" y="483"/>
			<point x="219" y="451"/>
			<point x="160" y="451" type="curve" smooth="yes"/>
			<point x="142" y="451"/>
			<point x="125" y="454"/>
			<point x="105" y="461" type="curve"/>
			<point x="131" y="434" type="line"/>
			<point x="119" y="491" type="line" smooth="yes"/>
			<point x="112" y="529"/>
			<point x="98" y="539"/>
			<point x="80" y="539" type="curve" smooth="yes"/>
			<point x="66" y="539"/>
			<point x="52" y="533"/>
			<point x="45" y="513" type="curve"/>
			<point x="55" y="452"/>
			<point x="101" y="418"/>
		</contour>
	</outline>
</glyph>
<glyph name="acute" format="2">
	<unicode hex="00B4"/>
	<advance width="400"/>
	<outline>
		<contour>
			<point x="140" y="576" type="curve"/>
			<point x="166" y="557" type="line"/>
			<point x="207" y="593"/>
			<point x="246" y="628"/>
			<point x="287" y="665" type="curve" smooth="yes"/>
			<point x="315" y="691"/>
			<point x="321" y="706"/>
			<point x="321" y="720" type="curve" smooth="yes"/>
			<point x="321" y="746"/>
			<point x="302" y="758"/>
			<point x="283" y="758" type="curve" smooth="yes"/>
			<point x="265" y="758"/>
			<point x="248" y="748"/>
			<point x="229" y="717" type="curve" smooth="yes"/>
			<point x="197" y="669"/>
			<point x="168" y="623"/>
		</contour>
	</outline>
</glyph>
<glyph name="paragraph" format="2">
	<unicode hex="00B6"/>
	<advance width="598"/>
	<outline>
		<contour>
			<point x="316" y="149" type="curve"/>
			<point x="316" y="624" type="line"/>
			<point x="418" y="624" type="line"/>
			<point x="418" y="670" type="line"/>
			<point x="355" y="670" type="line" smooth="yes"/>
			<point x="153" y="670"/>
			<point x="25" y="568"/>
			<point x="25" y="412" type="curve" smooth="yes"/>
			<point x="25" y="259"/>
			<point x="131" y="150"/>
		</contour>
		<contour>
			<point x="381" y="-129" type="curve"/>
			<point x="463" y="-129" type="line"/>
			<point x="460" y="-26"/>
			<point x="460" y="78"/>
			<point x="460" y="181" type="curve" smooth="yes"/>
			<point x="460" y="359" type="line" smooth="yes"/>
			<point x="460" y="464"/>
			<point x="460" y="569"/>
			<point x="463" y="670" type="curve"/>
			<point x="384" y="670" type="line"/>
			<point x="384" y="181" type="line" smooth="yes"/>
			<point x="384" y="76"/>
			<point x="384" y="-28"/>
		</contour>
		<contour>
			<point x="418" y="614" type="line"/>
			<point x="424" y="614" type="line"/>
			<point x="554" y="629" type="line"/>
			<point x="554" y="670" type="line"/>
			<point x="418" y="670" type="line"/>
		</contour>
	</outline>
</glyph>
<glyph name="onequarter" format="2">
	<unicode hex="00BC"/>
	<advance width="850"/>
	<outline>
		<contour>
			<point x="682" y="0" type="line"/>
			<point x="747" y="0" type="line"/>
			<point x="747" y="403" type="line"/>
			<point x="700" y="403" type="line"/>
			<point x="512" y="147" type="line"/>
			<point x="512" y="101" type="line"/>
			<point x="811" y="101" type="line"/>
			<point x="811" y="158" type="line"/>
			<point x="556" y="158" type="line"/>
			<point x="556" y="172" type="line"/>
			<point x="551" y="144" type="line"/>
			<point x="632" y="260" type="line"/>
			<point x="713" y="376" type="line"/>
			<point x="675" y="345" type="line"/>
			<point x="682" y="345" type="line"/>
			<point x="682" y="140" type="line"/>
			<point x="682" y="122" type="line"/>
		</contour>
		<contour>
			<point x="66" y="274" type="line"/>
			<point x="315" y="274" type="line"/>
			<point x="315" y="303" type="line"/>
			<point x="222" y="320" type="line"/>
			<point x="160" y="320" type="line"/>
			<point x="66" y="303" type="line"/>
		</contour>
		<contour>
			<point x="156" y="274" type="line"/>
			<point x="227" y="274" type="line"/>
			<point x="227" y="671" type="line"/>
			<point x="218" y="677" type="line"/>
			<point x="79" y="645" type="line"/>
			<point x="79" y="608" type="line"/>
			<point x="156" y="614" type="line"/>
		</contour>
		<component base="fraction" xOffset="370"/>
	</outline>
</glyph>
<glyph name="Atilde" format="2">
	<unicode hex="00C3"/>
	<advance width="664"/>
	<outline>
		<contour>
			<point x="151" y="735" type="curve"/>
			<point x="181" y="726" type="line"/>
			<point x="196" y="775"/>
			<point x="217" y="805"/>
			<point x="249" y="805" type="curve" smooth="yes"/>
			<point x="279" y="805"/>
			<point x="300" y="778"/>
			<point x="325" y="757" type="curve" smooth="yes"/>
			<point x="347" y="740"/>
			<point x="370" y="724"/>
			<point x="407" y="724" type="curve" smooth="yes"/>
			<point x="468" y="724"/>
			<point x="498" y="775"/>
			<point x="511" y="852" type="curve"/>
			<point x="481" y="862" type="line"/>
			<point x="466" y="813"/>
			<point x="446" y="782"/>
			<point x="413" y="782" type="curve" smooth="yes"/>
			<point x="383" y="782"/>
			<point x="362" y="810"/>
			<point x="340" y="827" type="curve" smooth="yes"/>
			<point x="314" y="848"/>
			<point x="292" y="864"/>
			<point x="256" y="864" type="curve" smooth="yes"/>
			<point x="195" y="864"/>
			<point x="163" y="813"/>
		</contour>
		<component base="A"/>
	</outline>
</glyph>
<glyph name="Aring" format="2">
	<unicode hex="00C5"/>
	<advance width="664"/>
	<outline>
		<contour>
			<point x="331" y="723" type="curve" smooth="yes"/>
			<point x="380" y="723"/>
			<point x="427" y="758"/>
			<point x="427" y="815" type="curve" smooth="yes"/>
			<point x="427" y="875"/>
			<point x="380" y="908"/>
			<point x="331" y="908" type="curve" smooth="yes"/>
			<point x="282" y="908"/>
			<point x="235" y="873"/>
			<point x="235" y="815" type="curve" smooth="yes"/>
			<point x="235" y="756"/>
			<point x="282" y="723"/>
		</contour>
		<contour>
			<point x="331" y="758" type="curve" smooth="yes"/>
			<point x="297" y="758"/>
			<point x="279" y="787"/>
			<point x="279" y="815" type="curve" smooth="yes"/>
			<point x="279" y="844"/>
			<point x="298" y="871"/>
			<point x="331" y="871" type="curve" smooth="yes"/>
			<point x="365" y="871"/>
			<point x="383" y="844"/>
			<point x="383" y="815" type="curve" smooth="yes"/>
			<point x="383" y="787"/>
			<point x="364" y="758"/>
		</contour>
		<component base="A"/>
	</outline>
</glyph>
<glyph name="Egrave" format="2">
	<unicode hex="00C8"/>
	<advance width="603"/>
	<outline>
		<contour>
			<point x="398" y="746" type="line"/>
			<point x="368" y="778"/>
			<point x="337" y="809"/>
			<point x="304" y="840" type="curve" smooth="yes"/>
			<point x="276" y="868"/>
			<point x="259" y="878"/>
			<point x="242" y="878" type="curve" smooth="yes"/>
			<point x="221" y="878"/>
			<point x="204" y="864"/>
			<point x="204" y="844" type="curve" smooth="yes"/>
			<point x="204" y="826"/>
			<point x="216" y="809"/>
			<point x="254" y="788" type="curve" smooth="yes"/>
			<point x="295" y="766"/>
			<point x="337" y="743"/>
			<point x="380" y="721" type="curve"/>
		</contour>
		<component base="E"/>
	</outline>
</glyph>
<glyph name="Eacute" format="2">
	<unicode hex="00C9"/>
	<advance width="603"/>
	<outline>
		<contour>
			<point x="264" y="746" type="curve"/>
			<point x="282" y="721" type="line"/>
			<point x="324" y="743"/>
			<point x="366" y="766"/>
			<point x="408" y="789" type="curve" smooth="yes"/>
			<point x="446" y="810"/>
			<point x="458" y="826"/>
			<point x="458" y="844" type="curve" smooth="yes"/>
			<point x="458" y="864"/>
			<point x="441" y="878"/>
			<point x="420" y="878" type="curve" smooth="yes"/>
			<point x="403" y="878"/>
			<point x="386" y="868"/>
			<point x="358" y="840" type="curve" smooth="yes"/>
			<point x="326" y="810"/>
			<point x="295" y="779"/>
		</contour>
		<component base="E"/>
	</outline>
</glyph>
<glyph name="Ecircumflex" format="2">
	<unicode hex="00CA"/>
	<advance width="603"/>
	<outline>
		<contour>
			<point x="348" y="857" type="line"/>
			<point x="314" y="857" type="line"/>
			<point x="183" y="742" type="line"/>
			<point x="202" y="717" type="line"/>
			<point x="373" y="815" type="line"/>
			<point x="289" y="815" type="line"/>
			<point x="460" y="717" type="line"/>
			<point x="479" y="742" type="line"/>
		</contour>
		<component base="E"/>
	</outline>
</glyph>
<glyph name="Igrave" format="2">
	<unicode hex="00CC"/>
	<advance width="371"/>
	<outline>
		<contour>
			<point x="253" y="746" type="line"/>
			<point x="223" y="778"/>
			<point x="192" y="809"/>
			<point x="159" y="840" type="curve" smooth="yes"/>
			<point x="131" y="868"/>
			<point x="114" y="878"/>
			<point x="97" y="878" type="curve" smooth="yes"/>
			<point x="76" y="878"/>
			<point x="59" y="864"/>
			<point x="59" y="844" type="curve" smooth="yes"/>
			<point x="59" y="826"/>
			<point x="71" y="809"/>
			<point x="109" y="788" type="curve" smooth="yes"/>
			<point x="150" y="766"/>
			<point x="192" y="743"/>
			<point x="235" y="721" type="curve"/>
		</contour>
		<component base="I"/>
	</outline>
</glyph>
<glyph name="Iacute" format="2">
	<unicode hex="00CD"/>
	<advance width="371"/>
	<outline>
		<contour>
			<point x="119" y="746" type="curve"/>
			<point x="137" y="721" type="line"/>
			<point x="179" y="743"/>
			<point x="221" y="766"/>
			<point x="263" y="789" type="curve" smooth="yes"/>
			<point x="301" y="810"/>
			<point x="313" y="826"/>
			<point x="313" y="844" type="curve" smooth="yes"/>
			<point x="313" y="864"/>
			<point x="296" y="878"/>
			<point x="275" y="878" type="curve" smooth="yes"/>
			<point x="258" y="878"/>
			<point x="241" y="868"/>
			<point x="213" y="840" type="curve" smooth="yes"/>
			<point x="181" y="810"/>
			<point x="150" y="779"/>
		</contour>
		<component base="I"/>
	</outline>
</glyph>
<glyph name="Ntilde" format="2">
	<unicode hex="00D1"/>
	<advance width="735"/>
	<outline>
		<contour>
			<point x="191" y="735" type="curve"/>
			<point x="221" y="726" type="line"/>
			<point x="236" y="775"/>
			<point x="257" y="805"/>
			<point x="289" y="805" type="curve" smooth="yes"/>
			<point x="319" y="805"/>
			<point x="340" y="778"/>
			<point x="365" y="757" type="curve" smooth="yes"/>
			<point x="387" y="740"/>
			<point x="410" y="724"/>
			<point x="447" y="724" type="curve" smooth="yes"/>
			<point x="508" y="724"/>
			<point x="538" y="775"/>
			<point x="551" y="852" type="curve"/>
			<point x="521" y="862" type="line"/>
			<point x="506" y="813"/>
			<point x="486" y="782"/>
			<point x="453" y="782" type="curve" smooth="yes"/>
			<point x="423" y="782"/>
			<point x="402" y="810"/>
			<point x="380" y="827" type="curve" smooth="yes"/>
			<point x="354" y="848"/>
			<point x="332" y="864"/>
			<point x="296" y="864" type="curve" smooth="yes"/>
			<point x="235" y="864"/>
			<point x="203" y="813"/>
		</contour>
		<component base="N"/>
	</outline>
</glyph>
<glyph name="Ocircumflex" format="2">
	<unicode hex="00D4"/>
	<advance width="707"/>
	<outline>
		<contour>
			<point x="371" y="857" type="line"/>
			<point x="337" y="857" type="line"/>
			<point x="206" y="742" type="line"/>
			<point x="225" y="717" type="line"/>
			<point x="396" y="815" type="line"/>
			<point x="312" y="815" type="line"/>
			<point x="483" y="717" type="line"/>
			<point x="502" y="742" type="line"/>
		</contour>
		<component base="O"/>
	</outline>
</glyph>
<glyph name="Otilde" format="2">
	<unicode hex="00D5"/>
	<advance width="707"/>
	<outline>
		<contour>
			<point x="174" y="735" type="curve"/>
			<point x="204" y="726" type="line"/>
			<point x="219" y="775"/>
			<point x="240" y="805"/>
			<point x="272" y="805" type="curve" smooth="yes"/>
			<point x="302" y="805"/>
			<point x="323" y="778"/>
			<point x="348" y="757" type="curve" smooth="yes"/>
			<point x="370" y="740"/>
			<point x="393" y="724"/>
			<point x="430" y="724" type="curve" smooth="yes"/>
			<point x="491" y="724"/>
			<point x="521" y="775"/>
			<point x="534" y="852" type="curve"/>
			<point x="504" y="862" type="line"/>
			<point x="489" y="813"/>
			<point x="469" y="782"/>
			<point x="436" y="782" type="curve" smooth="yes"/>
			<point x="406" y="782"/>
			<point x="385" y="810"/>
			<point x="363" y="827" type="curve" smooth="yes"/>
			<point x="337" y="848"/>
			<point x="315" y="864"/>
			<point x="279" y="864" type="curve" smooth="yes"/>
			<point x="218" y="864"/>
			<point x="186" y="813"/>
		</contour>
		<component base="O"/>
	</outline>
</glyph>
<glyph name="Oslash" format="2">
	<unicode hex="00D8"/>
	<advance width="707"/>
	<outline>
		<contour>
			<point x="646" y="657" type="line"/>
			<point x="604" y="691" type="line"/>
			<point x="52" y="13" type="line"/>
			<point x="95" y="-21" type="line"/>
		</contour>
		<contour>
			<point x="146" y="335" type="curve" smooth="yes"/>
			<point x="146" y="485"/>
			<point x="207" y="635"/>
			<point x="354" y="635" type="curve" smooth="yes"/>
			<point x="500" y="635"/>
			<point x="560" y="485"/>
			<point x="560" y="335" type="curve" smooth="yes"/>
			<point x="560" y="184"/>
			<point x="500" y="35"/>
			<point x="354" y="35" type="curve" smooth="yes"/>
			<point x="207" y="35"/>
			<point x="146" y="184"/>
		</contour>
		<contour>
			<point x="354" y="685" type="curve" smooth="yes"/>
			<point x="199" y="685"/>
			<point x="47" y="554"/>
			<point x="47" y="335" type="curve" smooth="yes"/>
			<point x="47" y="106"/>
			<point x="198" y="-15"/>
			<point x="354" y="-15" type="curve" smooth="yes"/>
			<point x="509" y="-15"/>
			<point x="660" y="115"/>
			<point x="660" y="335" type="curve" smooth="yes"/>
			<point x="660" y="563"/>
			<point x="508" y="685"/>
		</contour>
	</outline>
	<anchor name="aboveUC" x="354" y="690"/>
</glyph>
<glyph name="Ugrave" format="2">
	<unicode hex="00D9"/>
	<advance width="727"/>
	<outline>
		<contour>
			<point x="452" y="746" type="line"/>
			<point x="422" y="778"/>
			<point x="391" y="809"/>
			<point x="358" y="840" type="curve" smooth="yes"/>
			<point x="330" y="868"/>
			<point x="313" y="878"/>
			<point x="296" y="878" type="curve" smooth="yes"/>
			<point x="275" y="878"/>
			<point x="258" y="864"/>
			<point x="258" y="844" type="curve" smooth="yes"/>
			<point x="258" y="826"/>
			<point x="270" y="809"/>
			<point x="308" y="788" type="curve" smooth="yes"/>
			<point x="349" y="766"/>
			<point x="391" y="743"/>
			<point x="434" y="721" type="curve"/>
		</contour>
		<component base="U"/>
	</outline>
</glyph>
<glyph name="Ucircumflex" format="2">
	<unicode hex="00DB"/>
	<advance width="727"/>
	<outline>
		<contour>
			<point x="402" y="857" type="line"/>
			<point x="368" y="857" type="line"/>
			<point x="237" y="742" type="line"/>
			<point x="256" y="717" type="line"/>
			<point x="427" y="815" type="line"/>
			<point x="343" y="815" type="line"/>
			<point x="514" y="717" type="line"/>
			<point x="533" y="742" type="line"/>
		</contour>
		<component base="U"/>
	</outline>
</glyph>
<glyph name="Yacute" format="2">
	<unicode hex="00DD"/>
	<advance width="633"/>
	<outline>
		<contour>
			<point x="278" y="746" type="curve"/>
			<point x="296" y="721" type="line"/>
			<point x="338" y="743"/>
			<point x="380" y="766"/>
			<point x="422" y="789" type="curve" smooth="yes"/>
			<point x="460" y="810"/>
			<point x="472" y="826"/>
			<point x="472" y="844" type="curve" smooth="yes"/>
			<point x="472" y="864"/>
			<point x="455" y="878"/>
			<point x="434" y="878" type="curve" smooth="yes"/>
			<point x="417" y="878"/>
			<point x="400" y="868"/>
			<point x="372" y="840" type="curve" smooth="yes"/>
			<point x="340" y="810"/>
			<point x="309" y="779"/>
		</contour>
		<component base="Y"/>
	</outline>
</glyph>
<glyph name="Thorn" format="2">
	<unicode hex="00DE"/>
	<advance width="611"/>
	<outline>
		<contour>
			<point x="186" y="154" type="line"/>
			<point x="301" y="154" type="line" smooth="yes"/>
			<point x="530" y="154"/>
			<point x="586" y="251"/>
			<point x="586" y="346" type="curve" smooth="yes"/>
			<point x="586" y="459"/>
			<point x="501" y="536"/>
			<point x="326" y="536" type="curve" smooth="yes"/>
			<point x="186" y="536" type="line"/>
			<point x="186" y="489" type="line"/>
			<point x="314" y="489" type="line" smooth="yes"/>
			<point x="434" y="489"/>
			<point x="488" y="438"/>
			<point x="488" y="348" type="curve" smooth="yes"/>
			<point x="488" y="262"/>
			<point x="434" y="201"/>
			<point x="317" y="201" type="curve" smooth="yes"/>
			<point x="186" y="201" type="line"/>
		</contour>
		<contour>
			<point x="135" y="0" type="curve"/>
			<point x="236" y="0" type="line"/>
			<point x="233" y="101"/>
			<point x="233" y="211"/>
			<point x="233" y="310" type="curve" smooth="yes"/>
			<point x="233" y="361" type="line" smooth="yes"/>
			<point x="233" y="464"/>
			<point x="233" y="568"/>
			<point x="236" y="670" type="curve"/>
			<point x="135" y="670" type="line"/>
			<point x="138" y="567"/>
			<point x="138" y="462"/>
			<point x="138" y="359" type="curve" smooth="yes"/>
			<point x="138" y="310" type="line" smooth="yes"/>
			<point x="138" y="205"/>
			<point x="138" y="101"/>
		</contour>
		<contour>
			<point x="175" y="614" type="line"/>
			<point x="201" y="614" type="line"/>
			<point x="332" y="629" type="line"/>
			<point x="332" y="670" type="line"/>
			<point x="44" y="670" type="line"/>
			<point x="44" y="629" type="line"/>
		</contour>
		<contour>
			<point x="44" y="0" type="line"/>
			<point x="332" y="0" type="line"/>
			<point x="332" y="41" type="line"/>
			<point x="201" y="56" type="line"/>
			<point x="175" y="56" type="line"/>
			<point x="44" y="41" type="line"/>
		</contour>
	</outline>
</glyph>
<glyph name="germandbls" format="2">
	<unicode hex="00DF"/>
	<advance width="592"/>
	<outline>
		<contour>
			<point x="25" y="0" type="line"/>
			<point x="149" y="0" type="line"/>
			<point x="149" y="56" type="line"/>
			<point x="137" y="56" type="line"/>
			<point x="25" y="36" type="line"/>
		</contour>
		<contour>
			<point x="104" y="0" type="curve"/>
			<point x="194" y="0" type="line"/>
			<point x="192" y="70"/>
			<point x="191" y="140"/>
			<point x="191" y="210" type="curve" smooth="yes"/>
			<point x="191" y="476" type="line" smooth="yes"/>
			<point x="191" y="599"/>
			<point x="205" y="643"/>
			<point x="234" y="672" type="curve" smooth="yes"/>
			<point x="258" y="696"/>
			<point x="286" y="705"/>
			<point x="323" y="705" type="curve" smooth="yes"/>
			<point x="396" y="705"/>
			<point x="429" y="663"/>
			<point x="429" y="600" type="curve" smooth="yes"/>
			<point x="429" y="552"/>
			<point x="411" y="524"/>
			<point x="365" y="486" type="curve" smooth="yes"/>
			<point x="317" y="447"/>
			<point x="297" y="407"/>
			<point x="297" y="357" type="curve" smooth="yes"/>
			<point x="297" y="286"/>
			<point x="337" y="256"/>
			<point x="403" y="218" type="curve" smooth="yes"/>
			<point x="477" y="173"/>
			<point x="490" y="148"/>
			<point x="490" y="113" type="curve" smooth="yes"/>
			<point x="490" y="63"/>
			<point x="463" y="32"/>
			<point x="396" y="32" type="curve" smooth="yes"/>
			<point x="367" y="32"/>
			<point x="335" y="38"/>
			<point x="287" y="65" type="curve"/>
			<point x="338" y="16" type="line"/>
			<point x="306" y="134" type="line"/>
			<point x="257" y="134" type="line"/>
			<point x="261" y="15" type="line"/>
			<point x="307" y="-2"/>
			<point x="351" y="-13"/>
			<point x="401" y="-13" type="curve" smooth="yes"/>
			<point x="517" y="-13"/>
			<point x="571" y="44"/>
			<point x="571" y="131" type="curve" smooth="yes"/>
			<point x="571" y="195"/>
			<point x="544" y="230"/>
			<point x="447" y="290" type="curve" smooth="yes"/>
			<point x="390" y="324"/>
			<point x="369" y="340"/>
			<point x="369" y="381" type="curve" smooth="yes"/>
			<point x="369" y="412"/>
			<point x="382" y="442"/>
			<point x="426" y="474" type="curve" smooth="yes"/>
			<point x="480" y="513"/>
			<point x="512" y="559"/>
			<point x="512" y="613" type="curve" smooth="yes"/>
			<point x="512" y="692"/>
			<point x="441" y="750"/>
			<point x="338" y="750" type="curve" smooth="yes"/>
			<point x="280" y="750"/>
			<point x="227" y="733"/>
			<point x="183" y="689" type="curve" smooth="yes"/>
			<point x="134" y="640"/>
			<point x="107" y="581"/>
			<point x="107" y="419" type="curve" smooth="yes"/>
			<point x="107" y="210" type="line" smooth="yes"/>
			<point x="107" y="140"/>
			<point x="106" y="70"/>
		</contour>
	</outline>
</glyph>
<glyph name="agrave" format="2">
	<unicode hex="00E0"/>
	<advance width="509"/>
	<outline>
		<contour>
			<point x="306" y="576" type="line"/>
			<point x="277" y="623"/>
			<point x="249" y="669"/>
			<point x="217" y="717" type="curve" smooth="yes"/>
			<point x="198" y="748"/>
			<point x="181" y="758"/>
			<point x="163" y="758" type="curve" smooth="yes"/>
			<point x="143" y="758"/>
			<point x="125" y="746"/>
			<point x="125" y="720" type="curve" smooth="yes"/>
			<point x="125" y="706"/>
			<point x="131" y="691"/>
			<point x="159" y="665" type="curve" smooth="yes"/>
			<point x="200" y="628"/>
			<point x="239" y="593"/>
			<point x="280" y="557" type="curve"/>
		</contour>
		<component base="a"/>
	</outline>
</glyph>
<glyph name="aacute" format="2">
	<unicode hex="00E1"/>
	<advance width="509"/>
	<outline>
		<contour>
			<point x="192" y="576" type="curve"/>
			<point x="218" y="557" type="line"/>
			<point x="259" y="593"/>
			<point x="298" y="628"/>
			<point x="339" y="665" type="curve" smooth="yes"/>
			<point x="367" y="691"/>
			<point x="373" y="706"/>
			<point x="373" y="720" type="curve" smooth="yes"/>
			<point x="373" y="746"/>
			<point x="354" y="758"/>
			<point x="335" y="758" type="curve" smooth="yes"/>
			<point x="317" y="758"/>
			<point x="300" y="748"/>
			<point x="281" y="717" type="curve" smooth="yes"/>
			<point x="249" y="669"/>
			<point x="220" y="623"/>
		</contour>
		<component base="a"/>
	</outline>
</glyph>
<glyph name="acircumflex" format="2">
	<unicode hex="00E2"/>
	<advance width="509"/>
	<outline>
		<contour>
			<point x="377" y="546" type="line"/>
			<point x="400" y="568" type="line"/>
			<point x="268" y="744" type="line"/>
			<point x="234" y="744" type="line"/>
			<point x="102" y="568" type="line"/>
			<point x="125" y="546" type="line"/>
			<point x="293" y="698" type="line"/>
			<point x="209" y="698" type="line"/>
		</contour>
		<component base="a"/>
	</outline>
</glyph>
<glyph name="atilde" format="2">
	<unicode hex="00E3"/>
	<advance width="509"/>
	<outline>
		<contour>
			<point x="88" y="586" type="curve"/>
			<point x="115" y="577" type="line"/>
			<point x="129" y="626"/>
			<point x="147" y="656"/>
			<point x="177" y="656" type="curve" smooth="yes"/>
			<point x="204" y="656"/>
			<point x="224" y="630"/>
			<point x="246" y="608" type="curve" smooth="yes"/>
			<point x="266" y="589"/>
			<point x="286" y="575"/>
			<point x="319" y="575" type="curve" smooth="yes"/>
			<point x="375" y="575"/>
			<point x="402" y="626"/>
			<point x="414" y="703" type="curve"/>
			<point x="387" y="713" type="line"/>
			<point x="373" y="664"/>
			<point x="355" y="633"/>
			<point x="325" y="633" type="curve" smooth="yes"/>
			<point x="298" y="633"/>
			<point x="280" y="658"/>
			<point x="256" y="681" type="curve" smooth="yes"/>
			<point x="237" y="700"/>
			<point x="216" y="715"/>
			<point x="183" y="715" type="curve" smooth="yes"/>
			<point x="128" y="715"/>
			<point x="99" y="664"/>
		</contour>
		<component base="a"/>
	</outline>
</glyph>
<glyph name="adieresis" format="2">
	<unicode hex="00E4"/>
	<advance width="509"/>
	<outline>
		<contour>
			<point x="146" y="596" type="curve" smooth="yes"/>
			<point x="179" y="596"/>
			<point x="206" y="620"/>
			<point x="206" y="653" type="curve" smooth="yes"/>
			<point x="206" y="685"/>
			<point x="179" y="710"/>
			<point x="146" y="710" type="curve" smooth="yes"/>
			<point x="114" y="710"/>
			<point x="87" y="685"/>
			<point x="87" y="653" type="curve" smooth="yes"/>
			<point x="87" y="620"/>
			<point x="114" y="596"/>
		</contour>
		<contour>
			<point x="356" y="596" type="curve" smooth="yes"/>
			<point x="388" y="596"/>
			<point x="415" y="620"/>
			<point x="415" y="653" type="curve" smooth="yes"/>
			<point x="415" y="685"/>
			<point x="388" y="710"/>
			<point x="356" y="710" type="curve" smooth="yes"/>
			<point x="323" y="710"/>
			<point x="296" y="685"/>
			<point x="296" y="653" type="curve" smooth="yes"/>
			<point x="296" y="620"/>
			<point x="323" y="596"/>
		</contour>
		<component base="a"/>
	</outline>
</glyph>
<glyph name="ccedilla" format="2">
	<unicode hex="00E7"/>
	<advance width="488"/>
	<outline>
		<contour>
			<point x="249" y="-86" type="line"/>
			<point x="298" y="-93"/>
			<point x="321" y="-107"/>
			<point x="321" y="-138" type="curve" smooth="yes"/>
			<point x="321" y="-166"/>
			<point x="302" y="-184"/>
			<point x="263" y="-184" type="curve" smooth="yes"/>
			<point x="245" y="-184"/>
			<point x="231" y="-181"/>
			<point x="215" y="-178" type="curve"/>
			<point x="208" y="-211" type="line"/>
			<point x="221" y="-215"/>
			<point x="242" y="-221"/>
			<point x="271" y="-221" type="curve" smooth="yes"/>
			<point x="344" y="-221"/>
			<point x="383" y="-186"/>
			<point x="383" y="-140" type="curve" smooth="yes"/>
			<point x="383" y="-85"/>
			<point x="330" y="-59"/>
			<point x="269" y="-55" type="curve"/>
			<point x="289" y="-77" type="line"/>
			<point x="299" y="3" type="line"/>
			<point x="262" y="3" type="line"/>
		</contour>
		<component base="c"/>
	</outline>
</glyph>
<glyph name="ecircumflex" format="2">
	<unicode hex="00EA"/>
	<advance width="510"/>
	<outline>
		<contour>
			<point x="401" y="546" type="line"/>
			<point x="424" y="568" type="line"/>
			<point x="292" y="744" type="line"/>
			<point x="258" y="744" type="line"/>
			<point x="126" y="568" type="line"/>
			<point x="149" y="546" type="line"/>
			<point x="317" y="698" type="line"/>
			<point x="233" y="698" type="line"/>
		</contour>
		<component base="e"/>
	</outline>
</glyph>
<glyph name="igrave" format="2">
	<unicode hex="00EC"/>
	<advance width="298"/>
	<outline>
		<contour>
			<point x="204" y="576" type="line"/>
			<point x="175" y="623"/>
			<point x="147" y="669"/>
			<point x="115" y="717" type="curve" smooth="yes"/>
			<point x="96" y="748"/>
			<point x="79" y="758"/>
			<point x="61" y="758" type="curve" smooth="yes"/>
			<point x="41" y="758"/>
			<point x="23" y="746"/>
			<point x="23" y="720" type="curve" smooth="yes"/>
			<point x="23" y="706"/>
			<point x="29" y="691"/>
			<point x="57" y="665" type="curve" smooth="yes"/>
			<point x="98" y="628"/>
			<point x="137" y="593"/>
			<point x="178" y="557" type="curve"/>
		</contour>
		<component base="dotlessi"/>
	</outline>
</glyph>
<glyph name="iacute" format="2">
	<unicode hex="00ED"/>
	<advance width="298"/>
	<outline>
		<contour>
			<point x="90" y="576" type="curve"/>
			<point x="116" y="557" type="line"/>
			<point x="157" y="593"/>
			<point x="196" y="628"/>
			<point x="237" y="665" type="curve" smooth="yes"/>
			<point x="265" y="691"/>
			<point x="271" y="706"/>
			<point x="271" y="720" type="curve" smooth="yes"/>
			<point x="271" y="746"/>
			<point x="252" y="758"/>
			<point x="233" y="758" type="curve" smooth="yes"/>
			<point x="215" y="758"/>
			<point x="198" y="748"/>
			<point x="179" y="717" type="curve" smooth="yes"/>
			<point x="147" y="669"/>
			<point x="118" y="623"/>
		</contour>
		<component base="dotlessi"/>
	</outline>
</glyph>
<glyph name="icircumflex" format="2">
	<unicode hex="00EE"/>
	<advance width="298"/>
	<outline>
		<contour>
			<point x="275" y="546" type="line"/>
			<point x="298" y="568" type="line"/>
			<point x="166" y="744" type="line"/>
			<point x="132" y="744" type="line"/>
			<point x="0" y="568" type="line"/>
			<point x="23" y="546" type="line"/>
			<point x="191" y="698" type="line"/>
			<point x="107" y="698" type="line"/>
		</contour>
		<component base="dotlessi"/>
	</outline>
</glyph>
<glyph name="idieresis" format="2">
	<unicode hex="00EF"/>
	<advance width="298"/>
	<outline>
		<contour>
			<point x="57" y="596" type="curve" smooth="yes"/>
			<point x="89" y="596"/>
			<point x="117" y="620"/>
			<point x="117" y="653" type="curve" smooth="yes"/>
			<point x="117" y="685"/>
			<point x="89" y="710"/>
			<point x="57" y="710" type="curve" smooth="yes"/>
			<point x="24" y="710"/>
			<point x="-2" y="685"/>
			<point x="-2" y="653" type="curve" smooth="yes"/>
			<point x="-2" y="620"/>
			<point x="24" y="596"/>
		</contour>
		<contour>
			<point x="246" y="596" type="curve" smooth="yes"/>
			<point x="279" y="596"/>
			<point x="305" y="620"/>
			<point x="305" y="653" type="curve" smooth="yes"/>
			<point x="305" y="685"/>
			<point x="279" y="710"/>
			<point x="246" y="710" type="curve" smooth="yes"/>
			<point x="214" y="710"/>
			<point x="186" y="685"/>
			<point x="186" y="653" type="curve" smooth="yes"/>
			<point x="186" y="620"/>
			<point x="214" y="596"/>
		</contour>
		<component base="dotlessi"/>
	</outline>
</glyph>
<glyph name="eth" format="2">
	<unicode hex="00F0"/>
	<advance width="546"/>
	<outline>
		<contour>
			<point x="262" y="-13" type="curve" smooth="yes"/>
			<point x="410" y="-13"/>
			<point x="495" y="99"/>
			<point x="495" y="280" type="curve" smooth="yes"/>
			<point x="495" y="512"/>
			<point x="358" y="663"/>
			<point x="171" y="750" type="curve"/>
			<point x="151" y="717" type="line"/>
			<point x="300" y="622"/>
			<point x="368" y="539"/>
			<point x="406" y="372" type="curve"/>
			<point x="420" y="378" type="line"/>
			<point x="396" y="442"/>
			<point x="339" y="475"/>
			<point x="266" y="475" type="curve" smooth="yes"/>
			<point x="154" y="475"/>
			<point x="45" y="389"/>
			<point x="45" y="234" type="curve" smooth="yes"/>
			<point x="45" y="73"/>
			<point x="151" y="-13"/>
		</contour>
		<contour>
			<point x="271" y="32" type="curve" smooth="yes"/>
			<point x="188" y="32"/>
			<point x="140" y="101"/>
			<point x="140" y="229" type="curve" smooth="yes"/>
			<point x="140" y="358"/>
			<point x="185" y="429"/>
			<point x="271" y="429" type="curve" smooth="yes"/>
			<point x="357" y="429"/>
			<point x="409" y="368"/>
			<point x="409" y="243" type="curve" smooth="yes"/>
			<point x="409" y="110"/>
			<point x="364" y="32"/>
		</contour>
		<contour>
			<point x="157" y="524" type="line"/>
			<point x="492" y="696" type="line"/>
			<point x="474" y="733" type="line"/>
			<point x="139" y="561" type="line"/>
		</contour>
	</outline>
</glyph>
<glyph name="oacute" format="2">
	<unicode hex="00F3"/>
	<advance width="549"/>
	<outline>
		<contour>
			<point x="216" y="576" type="curve"/>
			<point x="242" y="557" type="line"/>
			<point x="283" y="593"/>
			<point x="322" y="628"/>
			<point x="363" y="665" type="curve" smooth="yes"/>
			<point x="391" y="691"/>
			<point x="397" y="706"/>
			<point x="397" y="720" type="curve" smooth="yes"/>
			<point x="397" y="746"/>
			<point x="378" y="758"/>
			<point x="359" y="758" type="curve" smooth="yes"/>
			<point x="341" y="758"/>
			<point x="324" y="748"/>
			<point x="305" y="717" type="curve" smooth="yes"/>
			<point x="273" y="669"/>
			<point x="244" y="623"/>
		</contour>
		<component base="o"/>
	</outline>
</glyph>
<glyph name="otilde" format="2">
	<unicode hex="00F5"/>
	<advance width="549"/>
	<outline>
		<contour>
			<point x="112" y="586" type="curve"/>
			<point x="139" y="577" type="line"/>
			<point x="153" y="626"/>
			<point x="171" y="656"/>
			<point x="201" y="656" type="curve" smooth="yes"/>
			<point x="228" y="656"/>
			<point x="248" y="630"/>
			<point x="270" y="608" type="curve" smooth="yes"/>
			<point x="290" y="589"/>
			<point x="310" y="575"/>
			<point x="343" y="575" type="curve" smooth="yes"/>
			<point x="399" y="575"/>
			<point x="426" y="626"/>
			<point x="438" y="703" type="curve"/>
			<point x="411" y="713" type="line"/>
			<point x="397" y="664"/>
			<point x="379" y="633"/>
			<point x="349" y="633" type="curve" smooth="yes"/>
			<point x="322" y="633"/>
			<point x="304" y="658"/>
			<point x="280" y="681" type="curve" smooth="yes"/>
			<point x="261" y="700"/>
			<point x="240" y="715"/>
			<point x="207" y="715" type="curve" smooth="yes"/>
			<point x="152" y="715"/>
			<point x="123" y="664"/>
		</contour>
		<component base="o"/>
	</outline>
</glyph>
<glyph name="odieresis" format="2">
	<unicode hex="00F6"/>
	<advance width="549"/>
	<outline>
		<contour>
			<point x="170" y="596" type="curve" smooth="yes"/>
			<point x="203" y="596"/>
			<point x="230" y="620"/>
			<point x="230" y="653" type="curve" smooth="yes"/>
			<point x="230" y="685"/>
			<point x="203" y="710"/>
			<point x="170" y="710" type="curve" smooth="yes"/>
			<point x="138" y="710"/>
			<point x="111" y="685"/>
			<point x="111" y="653" type="curve" smooth="yes"/>
			<point x="111" y="620"/>
			<point x="138" y="596"/>
		</contour>
		<contour>
			<point x="380" y="596" type="curve" smooth="yes"/>
			<point x="412" y="596"/>
			<point x="439" y="620"/>
			<point x="439" y="653" type="curve" smooth="yes"/>
			<point x="439" y="685"/>
			<point x="412" y="710"/>
			<point x="380" y="710" type="curve" smooth="yes"/>
			<point x="347" y="710"/>
			<point x="320" y="685"/>
			<point x="320" y="653" type="curve" smooth="yes"/>
			<point x="320" y="620"/>
			<point x="347" y="596"/>
		</contour>
		<component base="o"/>
	</outline>
</glyph>
<glyph name="oslash" format="2">
	<unicode hex="00F8"/>
	<advance width="549"/>
	<outline>
		<contour>
			<point x="487" y="475" type="line"/>
			<point x="455" y="501" type="line"/>
			<point x="54" y="5" type="line"/>
			<point x="87" y="-21" type="line"/>
		</contour>
		<contour>
			<point x="274" y="-13" type="curve" smooth="yes"/>
			<point x="390" y="-13"/>
			<point x="504" y="70"/>
			<point x="504" y="235" type="curve" smooth="yes"/>
			<point x="504" y="401"/>
			<point x="389" y="488"/>
			<point x="274" y="488" type="curve" smooth="yes"/>
			<point x="158" y="488"/>
			<point x="45" y="401"/>
			<point x="45" y="235" type="curve" smooth="yes"/>
			<point x="45" y="70"/>
			<point x="157" y="-13"/>
		</contour>
		<contour>
			<point x="274" y="32" type="curve" smooth="yes"/>
			<point x="184" y="32"/>
			<point x="135" y="101"/>
			<point x="135" y="235" type="curve" smooth="yes"/>
			<point x="135" y="370"/>
			<point x="184" y="442"/>
			<point x="274" y="442" type="curve" smooth="yes"/>
			<point x="363" y="442"/>
			<point x="414" y="370"/>
			<point x="414" y="235" type="curve" smooth="yes"/>
			<point x="414" y="101"/>
			<point x="363" y="32"/>
		</contour>
	</outline>
	<anchor name="aboveLC" x="275" y="495"/>
</glyph>
<glyph name="uacute" format="2">
	<unicode hex="00FA"/>
	<advance width="583"/>
	<outline>
		<contour>
			<point x="224" y="576" type="curve"/>
			<point x="250" y="557" type="line"/>
			<point x="291" y="593"/>
			<point x="330" y="628"/>
			<point x="371" y="665" type="curve" smooth="yes"/>
			<point x="399" y="691"/>
			<point x="405" y="706"/>
			<point x="405" y="720" type="curve" smooth="yes"/>
			<point x="405" y="746"/>
			<point x="386" y="758"/>
			<point x="367" y="758" type="curve" smooth="yes"/>
			<point x="349" y="758"/>
			<point x="332" y="748"/>
			<point x="313" y="717" type="curve" smooth="yes"/>
			<point x="281" y="669"/>
			<point x="252" y="623"/>
		</contour>
		<component base="u"/>
	</outline>
</glyph>
<glyph name="ydieresis" format="2">
	<unicode hex="00FF"/>
	<advance width="512"/>
	<outline>
		<contour>
			<point x="178" y="596" type="curve" smooth="yes"/>
			<point x="211" y="596"/>
			<point x="238" y="620"/>
			<point x="238" y="653" type="curve" smooth="yes"/>
			<point x="238" y="685"/>
			<point x="211" y="710"/>
			<point x="178" y="710" type="curve" smooth="yes"/>
			<point x="146" y="710"/>
			<point x="119" y="685"/>
			<point x="119" y="653" type="curve" smooth="yes"/>
			<point x="119" y="620"/>
			<point x="146" y="596"/>
		</contour>
		<contour>
			<point x="388" y="596" type="curve" smooth="yes"/>
			<point x="420" y="596"/>
			<point x="447" y="620"/>
			<point x="447" y="653" type="curve" smooth="yes"/>
			<point x="447" y="685"/>
			<point x="420" y="710"/>
			<point x="388" y="710" type="curve" smooth="yes"/>
			<point x="355" y="710"/>
			<point x="328" y="685"/>
			<point x="328" y="653" type="curve" smooth="yes"/>
			<point x="328" y="620"/>
			<point x="355" y="596"/>
		</contour>
		<component base="y"/>
	</outline>
</glyph>
<glyph name="aogonek" format="2">
	<unicode hex="0105"/>
	<advance width="509"/>
	<outline>
		<contour>
			<point x="179" y="-13" type="curve" smooth="yes"/>
			<point x="241" y="-13"/>
			<point x="274" y="15"/>
			<point x="334" y="75" type="curve"/>
			<point x="364" y="75" type="line"/>
			<point x="350" y="125" type="line"/>
			<point x="269" y="65"/>
			<point x="248" y="53"/>
			<point x="214" y="53" type="curve" smooth="yes"/>
			<point x="168" y="53"/>
			<point x="134" y="74"/>
			<point x="134" y="126" type="curve" smooth="yes"/>
			<point x="134" y="157"/>
			<point x="142" y="197"/>
			<point x="233" y="226" type="curve" smooth="yes"/>
			<point x="277" y="240"/>
			<point x="321" y="255"/>
			<point x="366" y="269" type="curve"/>
			<point x="366" y="305" type="line"/>
			<point x="314" y="290"/>
			<point x="263" y="275"/>
			<point x="211" y="260" type="curve" smooth="yes"/>
			<point x="72" y="220"/>
			<point x="45" y="169"/>
			<point x="45" y="112" type="curve" smooth="yes"/>
			<point x="45" y="29"/>
			<point x="106" y="-13"/>
		</contour>
		<contour>
			<point x="403" y="-221" type="curve" smooth="yes"/>
			<point x="444" y="-221"/>
			<point x="473" y="-209"/>
			<point x="499" y="-177" type="curve"/>
			<point x="486" y="-152" type="line"/>
			<point x="468" y="-162"/>
			<point x="453" y="-165"/>
			<point x="437" y="-165" type="curve" smooth="yes"/>
			<point x="407" y="-165"/>
			<point x="383" y="-141"/>
			<point x="383" y="-106" type="curve" smooth="yes"/>
			<point x="383" y="-62"/>
			<point x="420" y="-34"/>
			<point x="456" y="-5" type="curve" smooth="yes"/>
			<point x="477" y="12"/>
			<point x="487" y="21"/>
			<point x="503" y="40" type="curve"/>
			<point x="483" y="64" type="line"/>
			<point x="470" y="51"/>
			<point x="457" y="42"/>
			<point x="444" y="42" type="curve" smooth="yes"/>
			<point x="422" y="42"/>
			<point x="408" y="58"/>
			<point x="408" y="101" type="curve" smooth="yes"/>
			<point x="408" y="314" type="line" smooth="yes"/>
			<point x="408" y="440"/>
			<point x="358" y="488"/>
			<point x="253" y="488" type="curve" smooth="yes"/>
			<point x="151" y="488"/>
			<point x="77" y="440"/>
			<point x="58" y="364" type="curve"/>
			<point x="61" y="338"/>
			<point x="77" y="323"/>
			<point x="105" y="323" type="curve" smooth="yes"/>
			<point x="132" y="323"/>
			<point x="148" y="340"/>
			<point x="157" y="371" type="curve" smooth="yes"/>
			<point x="182" y="456" type="line"/>
			<point x="140" y="424" type="line"/>
			<point x="178" y="439"/>
			<point x="207" y="442"/>
			<point x="230" y="442" type="curve" smooth="yes"/>
			<point x="296" y="442"/>
			<point x="324" y="418"/>
			<point x="324" y="321" type="curve" smooth="yes"/>
			<point x="324" y="96" type="line"/>
			<point x="324" y="91" type="line" smooth="yes"/>
			<point x="324" y="30"/>
			<point x="360" y="-10"/>
			<point x="416" y="-10" type="curve" smooth="yes"/>
			<point x="418" y="-10"/>
			<point x="425" y="-9"/>
			<point x="429" y="-9" type="curve"/>
			<point x="429" y="-4" type="line"/>
			<point x="372" y="-32"/>
			<point x="319" y="-78"/>
			<point x="319" y="-138" type="curve" smooth="yes"/>
			<point x="319" y="-189"/>
			<point x="354" y="-221"/>
		</contour>
	</outline>
	<anchor name="aboveLC" x="251" y="495"/>
</glyph>
<glyph name="dcroat" format="2">
	<unicode hex="0111"/>
	<advance width="567"/>
	<outline>
		<contour>
			<point x="204" y="543" type="line"/>
			<point x="552" y="543" type="line"/>
			<point x="552" y="589" type="line"/>
			<point x="204" y="589" type="line"/>
		</contour>
		<contour>
			<point x="135" y="225" type="curve" smooth="yes"/>
			<point x="135" y="354"/>
			<point x="199" y="418"/>
			<point x="275" y="418" type="curve" smooth="yes"/>
			<point x="311" y="418"/>
			<point x="350" y="401"/>
			<point x="407" y="346" type="curve"/>
			<point x="419" y="372" type="line"/>
			<point x="417" y="372" type="line"/>
			<point x="366" y="450"/>
			<point x="320" y="475"/>
			<point x="255" y="475" type="curve" smooth="yes"/>
			<point x="136" y="475"/>
			<point x="45" y="370"/>
			<point x="45" y="223" type="curve" smooth="yes"/>
			<point x="45" y="83"/>
			<point x="127" y="-13"/>
			<point x="249" y="-13" type="curve" smooth="yes"/>
			<point x="319" y="-13"/>
			<point x="370" y="21"/>
			<point x="414" y="99" type="curve"/>
			<point x="407" y="125" type="line"/>
			<point x="405" y="125" type="line"/>
			<point x="359" y="67"/>
			<point x="324" y="44"/>
			<point x="274" y="44" type="curve" smooth="yes"/>
			<point x="194" y="44"/>
			<point x="135" y="101"/>
		</contour>
		<contour>
			<point x="551" y="0" type="line"/>
			<point x="551" y="36" type="line"/>
			<point x="470" y="48" type="line"/>
			<point x="470" y="579" type="line"/>
			<point x="474" y="732" type="line"/>
			<point x="460" y="740" type="line"/>
			<point x="304" y="695" type="line"/>
			<point x="304" y="659" type="line"/>
			<point x="389" y="654" type="line"/>
			<point x="389" y="396" type="line"/>
			<point x="386" y="383" type="line"/>
			<point x="386" y="93" type="line"/>
			<point x="386" y="91" type="line"/>
			<point x="396" y="-10" type="line"/>
		</contour>
	</outline>
</glyph>
<glyph name="hbar" format="2">
	<unicode hex="0127"/>
	<advance width="601"/>
	<outline>
		<contour>
			<point x="104" y="0" type="curve"/>
			<point x="194" y="0" type="line"/>
			<point x="192" y="45"/>
			<point x="191" y="148"/>
			<point x="191" y="210" type="curve" smooth="yes"/>
			<point x="191" y="342" type="line"/>
			<point x="188" y="355" type="line"/>
			<point x="188" y="579" type="line"/>
			<point x="192" y="732" type="line"/>
			<point x="178" y="740" type="line"/>
			<point x="25" y="695" type="line"/>
			<point x="25" y="659" type="line"/>
			<point x="107" y="649" type="line"/>
			<point x="107" y="210" type="line" smooth="yes"/>
			<point x="107" y="148"/>
			<point x="106" y="45"/>
		</contour>
		<contour>
			<point x="30" y="0" type="line"/>
			<point x="262" y="0" type="line"/>
			<point x="262" y="36" type="line"/>
			<point x="162" y="56" type="line"/>
			<point x="139" y="56" type="line"/>
			<point x="30" y="36" type="line"/>
		</contour>
		<contour>
			<point x="339" y="0" type="line"/>
			<point x="571" y="0" type="line"/>
			<point x="571" y="36" type="line"/>
			<point x="471" y="56" type="line"/>
			<point x="448" y="56" type="line"/>
			<point x="339" y="36" type="line"/>
		</contour>
		<contour>
			<point x="25" y="538" type="line"/>
			<point x="372" y="538" type="line"/>
			<point x="372" y="584" type="line"/>
			<point x="25" y="584" type="line"/>
		</contour>
		<contour>
			<point x="411" y="0" type="curve"/>
			<point x="502" y="0" type="line"/>
			<point x="500" y="45"/>
			<point x="499" y="146"/>
			<point x="499" y="210" type="curve" smooth="yes"/>
			<point x="499" y="280" type="line" smooth="yes"/>
			<point x="499" y="411"/>
			<point x="457" y="465"/>
			<point x="371" y="465" type="curve" smooth="yes"/>
			<point x="307" y="465"/>
			<point x="235" y="425"/>
			<point x="186" y="370" type="curve"/>
			<point x="164" y="370" type="line"/>
			<point x="186" y="323" type="line"/>
			<point x="242" y="374"/>
			<point x="283" y="393"/>
			<point x="332" y="393" type="curve" smooth="yes"/>
			<point x="391" y="393"/>
			<point x="414" y="363"/>
			<point x="414" y="272" type="curve" smooth="yes"/>
			<point x="414" y="210" type="line" smooth="yes"/>
			<point x="414" y="146"/>
			<point x="413" y="45"/>
		</contour>
	</outline>
</glyph>
<glyph name="dotlessi" format="2">
	<unicode hex="0131"/>
	<advance width="298"/>
	<outline>
		<contour>
			<point x="35" y="0" type="line"/>
			<point x="267" y="0" type="line"/>
			<point x="267" y="36" type="line"/>
			<point x="167" y="56" type="line"/>
			<point x="144" y="56" type="line"/>
			<point x="35" y="36" type="line"/>
		</contour>
		<contour>
			<point x="108" y="0" type="curve"/>
			<point x="199" y="0" type="line"/>
			<point x="197" y="45"/>
			<point x="196" y="148"/>
			<point x="196" y="210" type="curve" smooth="yes"/>
			<point x="196" y="342" type="line"/>
			<point x="199" y="478" type="line"/>
			<point x="184" y="488" type="line"/>
			<point x="29" y="427" type="line"/>
			<point x="29" y="392" type="line"/>
			<point x="108" y="383" type="line"/>
			<point x="110" y="343"/>
			<point x="111" y="312"/>
			<point x="111" y="257" type="curve" smooth="yes"/>
			<point x="111" y="210" type="line" smooth="yes"/>
			<point x="111" y="148"/>
			<point x="110" y="45"/>
		</contour>
	</outline>
	<anchor name="aboveLC" x="149" y="495"/>
	<anchor name="belowLC" x="149" y="-20"/>
	<anchor name="ogonek" x="187" y="0"/>
</glyph>
<glyph name="Eng" format="2">
	<unicode hex="014A"/>
	<advance width="735"/>
	<outline>
		<contour>
			<point x="39" y="0" type="line"/>
			<point x="281" y="0" type="line"/>
			<point x="281" y="41" type="line"/>
			<point x="165" y="56" type="line"/>
			<point x="144" y="56" type="line"/>
			<point x="39" y="41" type="line"/>
		</contour>
		<contour>
			<point x="124" y="0" type="line"/>
			<point x="175" y="0" type="line"/>
			<point x="175" y="335" type="line"/>
			<point x="175" y="647" type="line"/>
			<point x="124" y="647" type="line"/>
		</contour>
		<contour>
			<point x="435" y="-133" type="curve" smooth="yes"/>
			<point x="481" y="-133"/>
			<point x="520" y="-117"/>
			<point x="554" y="-75" type="curve" smooth="yes"/>
			<point x="602" y="-17"/>
			<point x="611" y="41"/>
			<point x="610" y="215" type="curve" smooth="yes"/>
			<point x="610" y="670" type="line"/>
			<point x="559" y="670" type="line"/>
			<point x="559" y="335" type="line"/>
			<point x="562" y="122" type="line" smooth="yes"/>
			<point x="562" y="7"/>
			<point x="541" y="-39"/>
			<point x="489" y="-94" type="curve"/>
			<point x="489" y="-98" type="line"/>
			<point x="517" y="-98" type="line"/>
			<point x="517" y="-90" type="line"/>
			<point x="483" y="-64" type="line" smooth="yes"/>
			<point x="455" y="-43"/>
			<point x="434" y="-35"/>
			<point x="408" y="-35" type="curve" smooth="yes"/>
			<point x="377" y="-35"/>
			<point x="354" y="-47"/>
			<point x="348" y="-84" type="curve"/>
			<point x="357" y="-122"/>
			<point x="396" y="-133"/>
		</contour>
		<contour>
			<point x="570" y="0" type="line"/>
			<point x="592" y="0" type="line"/>
			<point x="592" y="130" type="line"/>
			<point x="589" y="130" type="line"/>
			<point x="208" y="670" type="line"/>
			<point x="44" y="670" type="line"/>
			<point x="44" y="629" type="line"/>
			<point x="130" y="621" type="line"/>
			<point x="164" y="571" type="line"/>
			<point x="164" y="571" type="line"/>
		</contour>
		<contour>
			<point x="575" y="614" type="line"/>
			<point x="595" y="614" type="line"/>
			<point x="695" y="629" type="line"/>
			<point x="695" y="670" type="line"/>
			<point x="454" y="670" type="line"/>
			<point x="454" y="629" type="line"/>
		</contour>
	</outline>
</glyph>
<glyph name="oe" format="2">
	<unicode hex="0153"/>
	<advance width="872"/>
	<outline>
		<contour>
			<point x="274" y="-13" type="curve" smooth="yes"/>
			<point x="355" y="-13"/>
			<point x="441" y="37"/>
			<point x="476" y="128" type="curve"/>
			<point x="431" y="129" type="line"/>
			<point x="463" y="38"/>
			<point x="534" y="-13"/>
			<point x="640" y="-13" type="curve" smooth="yes"/>
			<point x="741" y="-13"/>
			<point x="791" y="31"/>
			<point x="831" y="100" type="curve"/>
			<point x="810" y="117" type="line"/>
			<point x="771" y="71"/>
			<point x="724" y="52"/>
			<point x="663" y="52" type="curve" smooth="yes"/>
			<point x="559" y="52"/>
			<point x="495" y="119"/>
			<point x="495" y="244" type="curve" smooth="yes"/>
			<point x="495" y="389"/>
			<point x="568" y="442"/>
			<point x="637" y="442" type="curve" smooth="yes"/>
			<point x="700" y="442"/>
			<point x="740" y="403"/>
			<point x="740" y="334" type="curve" smooth="yes"/>
			<point x="740" y="305"/>
			<point x="729" y="282"/>
			<point x="676" y="282" type="curve" smooth="yes"/>
			<point x="446" y="282" type="line"/>
			<point x="446" y="240" type="line"/>
			<point x="817" y="240" type="line"/>
			<point x="821" y="253"/>
			<point x="823" y="273"/>
			<point x="823" y="296" type="curve" smooth="yes"/>
			<point x="823" y="417"/>
			<point x="742" y="488"/>
			<point x="637" y="488" type="curve" smooth="yes"/>
			<point x="549" y="488"/>
			<point x="476" y="436"/>
			<point x="439" y="351" type="curve"/>
			<point x="476" y="350" type="line"/>
			<point x="443" y="437"/>
			<point x="354" y="488"/>
			<point x="274" y="488" type="curve" smooth="yes"/>
			<point x="159" y="488"/>
			<point x="45" y="402"/>
			<point x="45" y="236" type="curve" smooth="yes"/>
			<point x="45" y="71"/>
			<point x="158" y="-13"/>
		</contour>
		<contour>
			<point x="274" y="32" type="curve" smooth="yes"/>
			<point x="188" y="32"/>
			<point x="140" y="102"/>
			<point x="140" y="236" type="curve" smooth="yes"/>
			<point x="140" y="371"/>
			<point x="188" y="442"/>
			<point x="274" y="442" type="curve" smooth="yes"/>
			<point x="361" y="442"/>
			<point x="409" y="368"/>
			<point x="409" y="233" type="curve" smooth="yes"/>
			<point x="409" y="99"/>
			<point x="361" y="32"/>
		</contour>
	</outline>
	<anchor name="aboveLC" x="455" y="495"/>
</glyph>
<glyph name="scaron" format="2">
	<unicode hex="0161"/>
	<advance width="434"/>
	<outline>
		<contour>
			<point x="111" y="739" type="line"/>
			<point x="87" y="719" type="line"/>
			<point x="189" y="571" type="line"/>
			<point x="263" y="571" type="line"/>
			<point x="365" y="719" type="line"/>
			<point x="341" y="739" type="line"/>
			<point x="184" y="596" type="line"/>
			<point x="268" y="596" type="line"/>
		</contour>
		<component base="s"/>
	</outline>
</glyph>
<glyph name="Tbar" format="2">
	<unicode hex="0166"/>
	<advance width="604"/>
	<outline>
		<contour>
			<point x="80" y="306" type="line"/>
			<point x="523" y="306" type="line"/>
			<point x="523" y="352" type="line"/>
			<point x="80" y="352" type="line"/>
		</contour>
		<component base="T"/>
	</outline>
</glyph>
<glyph name="Uogonek" format="2">
	<unicode hex="0172"/>
	<advance width="727"/>
	<outline>
		<contour>
			<point x="170" y="614" type="line"/>
			<point x="191" y="614" type="line"/>
			<point x="322" y="629" type="line"/>
			<point x="322" y="670" type="line"/>
			<point x="39" y="670" type="line"/>
			<point x="39" y="629" type="line"/>
		</contour>
		<contour>
			<point x="442" y="-221" type="curve" smooth="yes"/>
			<point x="483" y="-221"/>
			<point x="512" y="-209"/>
			<point x="538" y="-177" type="curve"/>
			<point x="525" y="-152" type="line"/>
			<point x="507" y="-162"/>
			<point x="492" y="-165"/>
			<point x="476" y="-165" type="curve" smooth="yes"/>
			<point x="446" y="-165"/>
			<point x="422" y="-141"/>
			<point x="422" y="-102" type="curve" smooth="yes"/>
			<point x="422" y="-54"/>
			<point x="446" y="-16"/>
			<point x="496" y="18" type="curve" smooth="yes"/>
			<point x="561" y="61"/>
			<point x="606" y="133"/>
			<point x="606" y="274" type="curve" smooth="yes"/>
			<point x="606" y="670" type="line"/>
			<point x="555" y="670" type="line"/>
			<point x="555" y="298" type="line" smooth="yes"/>
			<point x="555" y="121"/>
			<point x="497" y="56"/>
			<point x="380" y="56" type="curve" smooth="yes"/>
			<point x="282" y="56"/>
			<point x="218" y="110"/>
			<point x="218" y="281" type="curve" smooth="yes"/>
			<point x="218" y="360" type="line" smooth="yes"/>
			<point x="218" y="464"/>
			<point x="218" y="568"/>
			<point x="221" y="670" type="curve"/>
			<point x="121" y="670" type="line"/>
			<point x="124" y="568"/>
			<point x="124" y="464"/>
			<point x="124" y="360" type="curve" smooth="yes"/>
			<point x="124" y="252" type="line" smooth="yes"/>
			<point x="124" y="65"/>
			<point x="222" y="-15"/>
			<point x="374" y="-15" type="curve" smooth="yes"/>
			<point x="393" y="-15"/>
			<point x="412" y="-13"/>
			<point x="429" y="-10" type="curve"/>
			<point x="429" y="-6" type="line"/>
			<point x="388" y="-37"/>
			<point x="358" y="-82"/>
			<point x="358" y="-138" type="curve" smooth="yes"/>
			<point x="358" y="-189"/>
			<point x="393" y="-221"/>
		</contour>
		<contour>
			<point x="570" y="615" type="line"/>
			<point x="591" y="615" type="line"/>
			<point x="693" y="629" type="line"/>
			<point x="693" y="670" type="line"/>
			<point x="453" y="670" type="line"/>
			<point x="453" y="629" type="line"/>
		</contour>
	</outline>
	<anchor name="aboveUC" x="385" y="690"/>
</glyph>
<glyph name="Zcaron" format="2">
	<unicode hex="017D"/>
	<advance width="551"/>
	<outline>
		<contour>
			<point x="151" y="869" type="line"/>
			<point x="127" y="848" type="line"/>
			<point x="229" y="730" type="line"/>
			<point x="303" y="730" type="line"/>
			<point x="405" y="848" type="line"/>
			<point x="381" y="869" type="line"/>
			<point x="224" y="753" type="line"/>
			<point x="308" y="753" type="line"/>
		</contour>
		<component base="Z"/>
	</outline>
</glyph>
<glyph name="longs" format="2">
	<unicode hex="017F"/>
	<advance width="344"/>
	<outline>
		<contour>
			<point x="25" y="0" type="line"/>
			<point x="283" y="0" type="line"/>
			<point x="283" y="36" type="line"/>
			<point x="161" y="56" type="line"/>
			<point x="136" y="56" type="line"/>
			<point x="25" y="36" type="line"/>
		</contour>
		<contour>
			<point x="104" y="0" type="curve"/>
			<point x="194" y="0" type="line"/>
			<point x="192" y="70"/>
			<point x="191" y="140"/>
			<point x="191" y="210" type="curve" smooth="yes"/>
			<point x="191" y="432" type="line" smooth="yes"/>
			<point x="191" y="595"/>
			<point x="200" y="651"/>
			<point x="242" y="693" type="curve" smooth="yes"/>
			<point x="256" y="707"/>
			<point x="267" y="714"/>
			<point x="289" y="720" type="curve"/>
			<point x="289" y="726" type="line"/>
			<point x="235" y="726" type="line"/>
			<point x="235" y="719" type="line"/>
			<point x="283" y="681" type="line" smooth="yes"/>
			<point x="309" y="659"/>
			<point x="330" y="650"/>
			<point x="355" y="650" type="curve" smooth="yes"/>
			<point x="391" y="650"/>
			<point x="414" y="670"/>
			<point x="415" y="696" type="curve"/>
			<point x="405" y="733"/>
			<point x="367" y="750"/>
			<point x="319" y="750" type="curve" smooth="yes"/>
			<point x="273" y="750"/>
			<point x="224" y="735"/>
			<point x="188" y="698" type="curve" smooth="yes"/>
			<point x="131" y="642"/>
			<point x="107" y="566"/>
			<point x="107" y="420" type="curve" smooth="yes"/>
			<point x="107" y="210" type="line" smooth="yes"/>
			<point x="107" y="140"/>
			<point x="106" y="70"/>
		</contour>
	</outline>
</glyph>
<glyph name="Uhorn" format="2">
	<unicode hex="01AF"/>
	<advance width="727"/>
	<outline>
		<contour>
			<point x="367" y="-15" type="curve" smooth="yes"/>
			<point x="504" y="-15"/>
			<point x="606" y="63"/>
			<point x="606" y="274" type="curve" smooth="yes"/>
			<point x="606" y="670" type="line"/>
			<point x="555" y="670" type="line"/>
			<point x="555" y="298" type="line" smooth="yes"/>
			<point x="555" y="121"/>
			<point x="497" y="56"/>
			<point x="384" y="56" type="curve" smooth="yes"/>
			<point x="282" y="56"/>
			<point x="218" y="110"/>
			<point x="218" y="281" type="curve" smooth="yes"/>
			<point x="218" y="360" type="line" smooth="yes"/>
			<point x="218" y="465"/>
			<point x="218" y="569"/>
			<point x="221" y="670" type="curve"/>
			<point x="121" y="670" type="line"/>
			<point x="124" y="567"/>
			<point x="124" y="463"/>
			<point x="124" y="360" type="curve" smooth="yes"/>
			<point x="124" y="252" type="line" smooth="yes"/>
			<point x="124" y="65"/>
			<point x="222" y="-15"/>
		</contour>
		<contour>
			<point x="591" y="618" type="line"/>
			<point x="684" y="625"/>
			<point x="744" y="660"/>
			<point x="744" y="741" type="curve" smooth="yes"/>
			<point x="744" y="760"/>
			<point x="739" y="777"/>
			<point x="730" y="796" type="curve"/>
			<point x="717" y="807"/>
			<point x="704" y="809"/>
			<point x="694" y="809" type="curve" smooth="yes"/>
			<point x="670" y="809"/>
			<point x="655" y="788"/>
			<point x="655" y="772" type="curve" smooth="yes"/>
			<point x="655" y="744"/>
			<point x="680" y="724"/>
			<point x="680" y="701" type="curve" smooth="yes"/>
			<point x="680" y="680"/>
			<point x="655" y="670"/>
			<point x="591" y="670" type="curve"/>
		</contour>
		<contour>
			<point x="39" y="629" type="line"/>
			<point x="170" y="614" type="line"/>
			<point x="191" y="614" type="line"/>
			<point x="322" y="629" type="line"/>
			<point x="322" y="670" type="line"/>
			<point x="39" y="670" type="line"/>
		</contour>
		<contour>
			<point x="453" y="629" type="line"/>
			<point x="563" y="615" type="line"/>
			<point x="583" y="615" type="line"/>
			<point x="583" y="670" type="line"/>
			<point x="453" y="670" type="line"/>
		</contour>
	</outline>
	<anchor name="aboveUC" x="385" y="690"/>
	<anchor name="belowLC" x="368" y="-20"/>
</glyph>
<glyph name="gscript" format="2">
	<unicode hex="0261"/>
	<advance width="560"/>
	<outline>
		<contour>
			<point x="247" y="-250" type="curve" smooth="yes"/>
			<point x="310" y="-250"/>
			<point x="368" y="-231"/>
			<point x="407" y="-192" type="curve" smooth="yes"/>
			<point x="468" y="-131"/>
			<point x="478" y="-71"/>
			<point x="474" y="103" type="curve"/>
			<point x="474" y="343" type="line"/>
			<point x="477" y="478" type="line"/>
			<point x="461" y="488" type="line"/>
			<point x="392" y="416" type="line"/>
			<point x="390" y="416" type="line"/>
			<point x="390" y="98" type="line"/>
			<point x="394" y="82" type="line"/>
			<point x="395" y="61"/>
			<point x="395" y="41"/>
			<point x="395" y="23" type="curve" smooth="yes"/>
			<point x="395" y="-65"/>
			<point x="387" y="-113"/>
			<point x="362" y="-150" type="curve" smooth="yes"/>
			<point x="338" y="-186"/>
			<point x="299" y="-204"/>
			<point x="251" y="-204" type="curve" smooth="yes"/>
			<point x="206" y="-204"/>
			<point x="180" y="-200"/>
			<point x="148" y="-187" type="curve"/>
			<point x="188" y="-224" type="line"/>
			<point x="168" y="-148" type="line" smooth="yes"/>
			<point x="153" y="-97"/>
			<point x="142" y="-75"/>
			<point x="109" y="-75" type="curve" smooth="yes"/>
			<point x="86" y="-75"/>
			<point x="70" y="-85"/>
			<point x="57" y="-108" type="curve"/>
			<point x="75" y="-207"/>
			<point x="147" y="-250"/>
		</contour>
		<contour>
			<point x="244" y="-3" type="curve" smooth="yes"/>
			<point x="318" y="-3"/>
			<point x="369" y="30"/>
			<point x="412" y="107" type="curve"/>
			<point x="414" y="107" type="line"/>
			<point x="403" y="133" type="line"/>
			<point x="358" y="76"/>
			<point x="323" y="54"/>
			<point x="274" y="54" type="curve" smooth="yes"/>
			<point x="195" y="54"/>
			<point x="135" y="115"/>
			<point x="135" y="238" type="curve" smooth="yes"/>
			<point x="135" y="374"/>
			<point x="201" y="431"/>
			<point x="282" y="431" type="curve" smooth="yes"/>
			<point x="323" y="431"/>
			<point x="357" y="417"/>
			<point x="406" y="361" type="curve"/>
			<point x="419" y="387" type="line"/>
			<point x="417" y="387" type="line"/>
			<point x="376" y="462"/>
			<point x="324" y="488"/>
			<point x="273" y="488" type="curve" smooth="yes"/>
			<point x="138" y="488"/>
			<point x="45" y="385"/>
			<point x="45" y="231" type="curve" smooth="yes"/>
			<point x="45" y="81"/>
			<point x="127" y="-3"/>
		</contour>
	</outline>
	<anchor name="aboveLC" x="278" y="495"/>
	<anchor name="belowLC" x="255" y="-260"/>
</glyph>
<glyph name="j.sups" format="2">
	<unicode hex="02B2"/>
	<advance width="193"/>
	<outline>
		<contour>
			<point x="10" y="268" type="curve" smooth="yes"/>
			<point x="43" y="268"/>
			<point x="71" y="279"/>
			<point x="97" y="306" type="curve" smooth="yes"/>
			<point x="129" y="338"/>
			<point x="139" y="381"/>
			<point x="139" y="476" type="curve" smooth="yes"/>
			<point x="139" y="743" type="line"/>
			<point x="128" y="750" type="line"/>
			<point x="18" y="709" type="line"/>
			<point x="18" y="685" type="line"/>
			<point x="71" y="679" type="line"/>
			<point x="71" y="477" type="line" smooth="yes"/>
			<point x="71" y="381"/>
			<point x="69" y="346"/>
			<point x="51" y="315" type="curve" smooth="yes"/>
			<point x="45" y="305"/>
			<point x="32" y="291"/>
			<point x="16" y="291" type="curve"/>
			<point x="16" y="282" type="line"/>
			<point x="57" y="282" type="line"/>
			<point x="57" y="295" type="line"/>
			<point x="36" y="317" type="line" smooth="yes"/>
			<point x="17" y="337"/>
			<point x="1" y="345"/>
			<point x="-19" y="345" type="curve" smooth="yes"/>
			<point x="-42" y="345"/>
			<point x="-57" y="332"/>
			<point x="-63" y="309" type="curve"/>
			<point x="-59" y="288"/>
			<point x="-38" y="268"/>
		</contour>
		<contour>
			<point x="104" y="811" type="curve" smooth="yes"/>
			<point x="131" y="811"/>
			<point x="153" y="830"/>
			<point x="153" y="857" type="curve" smooth="yes"/>
			<point x="153" y="884"/>
			<point x="131" y="902"/>
			<point x="104" y="902" type="curve" smooth="yes"/>
			<point x="77" y="902"/>
			<point x="56" y="884"/>
			<point x="56" y="857" type="curve" smooth="yes"/>
			<point x="56" y="830"/>
			<point x="77" y="811"/>
		</contour>
	</outline>
</glyph>
<glyph name="y.sups" format="2">
	<unicode hex="02B8"/>
	<advance width="348"/>
	<outline>
		<contour>
			<point x="61" y="271" type="curve" smooth="yes"/>
			<point x="118" y="271"/>
			<point x="162" y="315"/>
			<point x="199" y="416" type="curve" smooth="yes"/>
			<point x="317" y="739" type="line"/>
			<point x="279" y="739" type="line"/>
			<point x="183" y="463" type="line"/>
			<point x="171" y="428" type="line" smooth="yes"/>
			<point x="147" y="361"/>
			<point x="122" y="323"/>
			<point x="70" y="300" type="curve"/>
			<point x="90" y="289" type="line"/>
			<point x="116" y="301" type="line"/>
			<point x="94" y="325" type="line" smooth="yes"/>
			<point x="73" y="343"/>
			<point x="56" y="347"/>
			<point x="40" y="347" type="curve" smooth="yes"/>
			<point x="21" y="347"/>
			<point x="2" y="339"/>
			<point x="-3" y="318" type="curve"/>
			<point x="-3" y="289"/>
			<point x="26" y="271"/>
		</contour>
		<contour>
			<point x="-1" y="708" type="line"/>
			<point x="66" y="696" type="line"/>
			<point x="88" y="696" type="line"/>
			<point x="172" y="708" type="line"/>
			<point x="172" y="739" type="line"/>
			<point x="-1" y="739" type="line"/>
		</contour>
		<contour>
			<point x="211" y="708" type="line"/>
			<point x="280" y="699" type="line"/>
			<point x="293" y="699" type="line"/>
			<point x="344" y="708" type="line"/>
			<point x="344" y="739" type="line"/>
			<point x="211" y="739" type="line"/>
		</contour>
		<contour>
			<point x="169" y="388" type="line"/>
			<point x="205" y="481" type="line"/>
			<point x="203" y="481" type="line"/>
			<point x="97" y="739" type="line"/>
			<point x="23" y="739" type="line"/>
		</contour>
	</outline>
</glyph>
<glyph name="ringhalfleftmod" format="2">
	<unicode hex="02BF"/>
	<advance width="196"/>
	<outline>
		<contour>
			<point x="39" y="640" type="curve" smooth="yes"/>
			<point x="39" y="574"/>
			<point x="81" y="538"/>
			<point x="154" y="538" type="curve"/>
			<point x="154" y="577" type="line"/>
			<point x="113" y="577"/>
			<point x="91" y="609"/>
			<point x="91" y="640" type="curve" smooth="yes"/>
			<point x="91" y="671"/>
			<point x="114" y="701"/>
			<point x="154" y="701" type="curve"/>
			<point x="154" y="740" type="line"/>
			<point x="81" y="740"/>
			<point x="39" y="702"/>
		</contour>
	</outline>
</glyph>
<glyph name="circumflex" format="2">
	<unicode hex="02C6"/>
	<advance width="318"/>
	<outline>
		<contour>
			<point x="285" y="546" type="line"/>
			<point x="308" y="568" type="line"/>
			<point x="176" y="744" type="line"/>
			<point x="142" y="744" type="line"/>
			<point x="10" y="568" type="line"/>
			<point x="33" y="546" type="line"/>
			<point x="201" y="698" type="line"/>
			<point x="117" y="698" type="line"/>
		</contour>
	</outline>
</glyph>
<glyph name="caron" format="2">
	<unicode hex="02C7"/>
	<advance width="400"/>
	<outline>
		<contour>
			<point x="85" y="739" type="line"/>
			<point x="61" y="719" type="line"/>
			<point x="163" y="571" type="line"/>
			<point x="237" y="571" type="line"/>
			<point x="339" y="719" type="line"/>
			<point x="315" y="739" type="line"/>
			<point x="158" y="596" type="line"/>
			<point x="242" y="596" type="line"/>
		</contour>
	</outline>
</glyph>
<glyph name="breve" format="2">
	<unicode hex="02D8"/>
	<advance width="400"/>
	<outline>
		<contour>
			<point x="49" y="723" type="line"/>
			<point x="58" y="646"/>
			<point x="108" y="575"/>
			<point x="200" y="575" type="curve" smooth="yes"/>
			<point x="292" y="575"/>
			<point x="342" y="646"/>
			<point x="351" y="723" type="curve"/>
			<point x="321" y="734" type="line"/>
			<point x="301" y="682"/>
			<point x="266" y="641"/>
			<point x="200" y="641" type="curve" smooth="yes"/>
			<point x="134" y="641"/>
			<point x="99" y="682"/>
			<point x="79" y="734" type="curve"/>
		</contour>
	</outline>
</glyph>
<glyph name="ring" format="2">
	<unicode hex="02DA"/>
	<advance width="400"/>
	<outline>
		<contour>
			<point x="200" y="590" type="curve" smooth="yes"/>
			<point x="163" y="590"/>
			<point x="143" y="621"/>
			<point x="143" y="652" type="curve" smooth="yes"/>
			<point x="143" y="683"/>
			<point x="164" y="713"/>
			<point x="200" y="713" type="curve" smooth="yes"/>
			<point x="237" y="713"/>
			<point x="257" y="683"/>
			<point x="257" y="652" type="curve" smooth="yes"/>
			<point x="257" y="621"/>
			<point x="236" y="590"/>
		</contour>
		<contour>
			<point x="200" y="550" type="curve" smooth="yes"/>
			<point x="254" y="550"/>
			<point x="305" y="588"/>
			<point x="305" y="652" type="curve" smooth="yes"/>
			<point x="305" y="717"/>
			<point x="254" y="753"/>
			<point x="200" y="753" type="curve" smooth="yes"/>
			<point x="146" y="753"/>
			<point x="95" y="714"/>
			<point x="95" y="652" type="curve" smooth="yes"/>
			<point x="95" y="587"/>
			<point x="146" y="550"/>
		</contour>
	</outline>
</glyph>
<glyph name="l.sups" format="2">
	<unicode hex="02E1"/>
	<advance width="204"/>
	<outline>
		<contour>
			<point x="18" y="427" type="line"/>
			<point x="188" y="427" type="line"/>
			<point x="188" y="457" type="line"/>
			<point x="113" y="470" type="line"/>
			<point x="92" y="470" type="line"/>
			<point x="18" y="457" type="line"/>
		</contour>
		<contour>
			<point x="69" y="427" type="line"/>
			<point x="137" y="427" type="line"/>
			<point x="137" y="895" type="line"/>
			<point x="127" y="900" type="line"/>
			<point x="16" y="870" type="line"/>
			<point x="16" y="842" type="line"/>
			<point x="69" y="836" type="line"/>
		</contour>
	</outline>
</glyph>
<glyph name="s.sups" format="2">
	<unicode hex="02E2"/>
	<advance width="301"/>
	<outline>
		<contour>
			<point x="140" y="415" type="curve" smooth="yes"/>
			<point x="227" y="415"/>
			<point x="274" y="459"/>
			<point x="274" y="515" type="curve" smooth="yes"/>
			<point x="274" y="558"/>
			<point x="249" y="591"/>
			<point x="181" y="615" type="curve" smooth="yes"/>
			<point x="160" y="622" type="line" smooth="yes"/>
			<point x="110" y="639"/>
			<point x="96" y="652"/>
			<point x="96" y="674" type="curve" smooth="yes"/>
			<point x="96" y="701"/>
			<point x="117" y="714"/>
			<point x="159" y="714" type="curve" smooth="yes"/>
			<point x="185" y="714"/>
			<point x="207" y="704"/>
			<point x="227" y="694" type="curve"/>
			<point x="200" y="728" type="line"/>
			<point x="215" y="654" type="line"/>
			<point x="252" y="654" type="line"/>
			<point x="256" y="724" type="line"/>
			<point x="225" y="740"/>
			<point x="196" y="749"/>
			<point x="159" y="749" type="curve" smooth="yes"/>
			<point x="83" y="749"/>
			<point x="37" y="708"/>
			<point x="37" y="654" type="curve" smooth="yes"/>
			<point x="37" y="609"/>
			<point x="69" y="579"/>
			<point x="119" y="560" type="curve" smooth="yes"/>
			<point x="150" y="549" type="line" smooth="yes"/>
			<point x="196" y="533"/>
			<point x="215" y="519"/>
			<point x="215" y="493" type="curve" smooth="yes"/>
			<point x="215" y="464"/>
			<point x="191" y="450"/>
			<point x="144" y="450" type="curve" smooth="yes"/>
			<point x="109" y="450"/>
			<point x="90" y="458"/>
			<point x="56" y="481" type="curve"/>
			<point x="90" y="436" type="line"/>
			<point x="73" y="519" type="line"/>
			<point x="33" y="519" type="line"/>
			<point x="35" y="445" type="line"/>
			<point x="69" y="425"/>
			<point x="100" y="415"/>
		</contour>
	</outline>
</glyph>
<glyph name="x.sups" format="2">
	<unicode hex="02E3"/>
	<advance width="350"/>
	<outline>
		<contour>
			<point x="7" y="425" type="line"/>
			<point x="139" y="425" type="line"/>
			<point x="139" y="455" type="line"/>
			<point x="80" y="465" type="line"/>
			<point x="64" y="465" type="line"/>
			<point x="7" y="455" type="line"/>
		</contour>
		<contour>
			<point x="10" y="706" type="line"/>
			<point x="79" y="697" type="line"/>
			<point x="98" y="697" type="line"/>
			<point x="160" y="706" type="line"/>
			<point x="160" y="737" type="line"/>
			<point x="10" y="737" type="line"/>
		</contour>
		<contour>
			<point x="247" y="425" type="line"/>
			<point x="322" y="425" type="line"/>
			<point x="194" y="608" type="line"/>
			<point x="100" y="737" type="line"/>
			<point x="28" y="737" type="line"/>
			<point x="147" y="565" type="line"/>
		</contour>
		<contour>
			<point x="180" y="425" type="line"/>
			<point x="343" y="425" type="line"/>
			<point x="343" y="455" type="line"/>
			<point x="270" y="468" type="line"/>
			<point x="254" y="468" type="line"/>
			<point x="180" y="455" type="line"/>
		</contour>
		<contour>
			<point x="209" y="706" type="line"/>
			<point x="265" y="697" type="line"/>
			<point x="279" y="697" type="line"/>
			<point x="330" y="706" type="line"/>
			<point x="330" y="737" type="line"/>
			<point x="209" y="737" type="line"/>
		</contour>
		<contour>
			<point x="26" y="425" type="line"/>
			<point x="67" y="425" type="line"/>
			<point x="168" y="567" type="line"/>
			<point x="184" y="567" type="line"/>
			<point x="163" y="607" type="line"/>
		</contour>
		<contour>
			<point x="183" y="564" type="line"/>
			<point x="319" y="737" type="line"/>
			<point x="277" y="737" type="line"/>
			<point x="178" y="603" type="line"/>
			<point x="164" y="603" type="line"/>
		</contour>
	</outline>
</glyph>
<glyph name="gravecmb" format="2">
	<unicode hex="0300"/>
	<outline>
		<contour>
			<point x="55" y="576" type="line"/>
			<point x="26" y="623"/>
			<point x="-2" y="669"/>
			<point x="-34" y="717" type="curve" smooth="yes"/>
			<point x="-53" y="748"/>
			<point x="-70" y="758"/>
			<point x="-88" y="758" type="curve" smooth="yes"/>
			<point x="-108" y="758"/>
			<point x="-126" y="746"/>
			<point x="-126" y="720" type="curve" smooth="yes"/>
			<point x="-126" y="706"/>
			<point x="-120" y="691"/>
			<point x="-92" y="665" type="curve" smooth="yes"/>
			<point x="-51" y="628"/>
			<point x="-12" y="593"/>
			<point x="29" y="557" type="curve"/>
		</contour>
	</outline>
	<anchor name="_aboveLC" x="0" y="495"/>
	<anchor name="aboveLC" x="0" y="758"/>
</glyph>
<glyph name="horncmb" format="2">
	<unicode hex="031B"/>
	<outline>
		<contour>
			<point x="0" y="475" type="line"/>
			<point x="74" y="481"/>
			<point x="129" y="540"/>
			<point x="129" y="627" type="curve" smooth="yes"/>
			<point x="129" y="648"/>
			<point x="125" y="666"/>
			<point x="115" y="685" type="curve"/>
			<point x="102" y="696"/>
			<point x="89" y="697"/>
			<point x="80" y="697" type="curve" smooth="yes"/>
			<point x="55" y="697"/>
			<point x="41" y="677"/>
			<point x="41" y="660" type="curve" smooth="yes"/>
			<point x="41" y="628"/>
			<point x="65" y="618"/>
			<point x="65" y="575" type="curve" smooth="yes"/>
			<point x="65" y="532"/>
			<point x="45" y="509"/>
			<point x="0" y="502" type="curve"/>
		</contour>
	</outline>
	<anchor name="_hornLC" x="0" y="475"/>
</glyph>
<glyph name="cedillacmb" format="2">
	<unicode hex="0327"/>
	<outline>
		<contour>
			<point x="-26" y="-86" type="line"/>
			<point x="23" y="-93"/>
			<point x="46" y="-107"/>
			<point x="46" y="-138" type="curve" smooth="yes"/>
			<point x="46" y="-166"/>
			<point x="27" y="-184"/>
			<point x="-12" y="-184" type="curve" smooth="yes"/>
			<point x="-30" y="-184"/>
			<point x="-44" y="-181"/>
			<point x="-60" y="-178" type="curve"/>
			<point x="-67" y="-211" type="line"/>
			<point x="-54" y="-215"/>
			<point x="-33" y="-221"/>
			<point x="-4" y="-221" type="curve" smooth="yes"/>
			<point x="69" y="-221"/>
			<point x="108" y="-186"/>
			<point x="108" y="-140" type="curve" smooth="yes"/>
			<point x="108" y="-85"/>
			<point x="55" y="-59"/>
			<point x="-6" y="-55" type="curve"/>
			<point x="14" y="-77" type="line"/>
			<point x="24" y="3" type="line"/>
			<point x="-13" y="3" type="line"/>
		</contour>
	</outline>
	<anchor name="_baseLC" x="0" y="0"/>
</glyph>
<glyph name="Lambda" format="2">
	<unicode hex="039B"/>
	<advance width="664"/>
	<outline>
		<contour>
			<point x="5" y="0" type="line"/>
			<point x="234" y="0" type="line"/>
			<point x="234" y="41" type="line"/>
			<point x="125" y="56" type="line"/>
			<point x="105" y="56" type="line"/>
			<point x="5" y="41" type="line"/>
		</contour>
		<contour>
			<point x="71" y="0" type="line"/>
			<point x="118" y="0" type="line"/>
			<point x="314" y="576" type="line"/>
			<point x="319" y="591" type="line"/>
			<point x="299" y="591" type="line"/>
			<point x="497" y="0" type="line"/>
			<point x="595" y="0" type="line"/>
			<point x="365" y="675" type="line"/>
			<point x="302" y="675" type="line"/>
		</contour>
		<contour>
			<point x="381" y="0" type="line"/>
			<point x="653" y="0" type="line"/>
			<point x="653" y="41" type="line"/>
			<point x="529" y="56" type="line"/>
			<point x="507" y="56" type="line"/>
			<point x="381" y="41" type="line"/>
		</contour>
	</outline>
</glyph>
<glyph name="Xi" format="2">
	<unicode hex="039E"/>
	<advance width="594"/>
	<outline>
		<contour>
			<point x="44" y="0" type="line"/>
			<point x="549" y="0" type="line"/>
			<point x="559" y="188" type="line"/>
			<point x="499" y="188" type="line"/>
			<point x="459" y="0" type="line"/>
			<point x="515" y="77" type="line"/>
			<point x="79" y="77" type="line"/>
			<point x="134" y="0" type="line"/>
			<point x="95" y="188" type="line"/>
			<point x="34" y="188" type="line"/>
		</contour>
		<contour>
			<point x="129" y="233" type="line"/>
			<point x="175" y="233" type="line"/>
			<point x="190" y="332" type="line"/>
			<point x="190" y="352" type="line"/>
			<point x="175" y="449" type="line"/>
			<point x="129" y="449" type="line"/>
		</contour>
		<contour>
			<point x="152" y="312" type="line"/>
			<point x="441" y="312" type="line"/>
			<point x="441" y="371" type="line"/>
			<point x="152" y="371" type="line"/>
		</contour>
		<contour>
			<point x="419" y="233" type="line"/>
			<point x="465" y="233" type="line"/>
			<point x="465" y="449" type="line"/>
			<point x="419" y="449" type="line"/>
			<point x="404" y="352" type="line"/>
			<point x="404" y="332" type="line"/>
		</contour>
		<contour>
			<point x="46" y="491" type="line"/>
			<point x="103" y="491" type="line"/>
			<point x="135" y="670" type="line"/>
			<point x="89" y="593" type="line"/>
			<point x="505" y="593" type="line"/>
			<point x="459" y="670" type="line"/>
			<point x="491" y="491" type="line"/>
			<point x="547" y="491" type="line"/>
			<point x="539" y="670" type="line"/>
			<point x="54" y="670" type="line"/>
		</contour>
	</outline>
</glyph>
<glyph name="Sigma" format="2">
	<unicode hex="03A3"/>
	<advance width="558"/>
	<outline>
		<contour>
			<point x="27" y="0" type="line"/>
			<point x="529" y="0" type="line"/>
			<point x="538" y="212" type="line"/>
			<point x="477" y="212" type="line"/>
			<point x="439" y="32" type="line"/>
			<point x="494" y="82" type="line"/>
			<point x="103" y="82" type="line"/>
			<point x="103" y="108" type="line"/>
			<point x="90" y="45" type="line"/>
			<point x="213" y="200" type="line"/>
			<point x="336" y="355" type="line"/>
			<point x="112" y="658" type="line"/>
			<point x="131" y="603" type="line"/>
			<point x="131" y="620" type="line"/>
			<point x="298" y="620" type="line"/>
			<point x="466" y="620" type="line"/>
			<point x="410" y="670" type="line"/>
			<point x="448" y="491" type="line"/>
			<point x="509" y="491" type="line"/>
			<point x="501" y="670" type="line"/>
			<point x="26" y="670" type="line"/>
			<point x="26" y="634" type="line"/>
			<point x="271" y="304" type="line"/>
			<point x="271" y="358" type="line"/>
			<point x="27" y="57" type="line"/>
		</contour>
	</outline>
</glyph>
<glyph name="Phi" format="2">
	<unicode hex="03A6"/>
	<advance width="742"/>
	<outline>
		<contour>
			<point x="38" y="349" type="curve" smooth="yes"/>
			<point x="38" y="225"/>
			<point x="112" y="113"/>
			<point x="330" y="113" type="curve" smooth="yes"/>
			<point x="361" y="113" type="line"/>
			<point x="361" y="160" type="line"/>
			<point x="331" y="160" type="line" smooth="yes"/>
			<point x="200" y="160"/>
			<point x="137" y="241"/>
			<point x="137" y="350" type="curve" smooth="yes"/>
			<point x="137" y="460"/>
			<point x="200" y="530"/>
			<point x="331" y="530" type="curve" smooth="yes"/>
			<point x="361" y="530" type="line"/>
			<point x="361" y="577" type="line"/>
			<point x="330" y="577" type="line"/>
			<point x="135" y="577"/>
			<point x="38" y="480"/>
		</contour>
		<contour>
			<point x="380" y="113" type="line"/>
			<point x="411" y="113" type="line" smooth="yes"/>
			<point x="631" y="113"/>
			<point x="703" y="225"/>
			<point x="703" y="349" type="curve" smooth="yes"/>
			<point x="703" y="477"/>
			<point x="614" y="577"/>
			<point x="411" y="577" type="curve"/>
			<point x="380" y="577" type="line"/>
			<point x="380" y="530" type="line"/>
			<point x="411" y="530" type="line" smooth="yes"/>
			<point x="542" y="530"/>
			<point x="605" y="460"/>
			<point x="605" y="350" type="curve" smooth="yes"/>
			<point x="605" y="241"/>
			<point x="541" y="160"/>
			<point x="411" y="160" type="curve" smooth="yes"/>
			<point x="380" y="160" type="line"/>
		</contour>
		<contour>
			<point x="326" y="0" type="curve"/>
			<point x="416" y="0" type="line"/>
			<point x="414" y="101"/>
			<point x="413" y="220"/>
			<point x="413" y="320" type="curve" smooth="yes"/>
			<point x="413" y="371" type="line" smooth="yes"/>
			<point x="413" y="477"/>
			<point x="414" y="575"/>
			<point x="416" y="680" type="curve"/>
			<point x="326" y="680" type="line"/>
			<point x="329" y="574"/>
			<point x="329" y="475"/>
			<point x="329" y="369" type="curve" smooth="yes"/>
			<point x="329" y="320" type="line" smooth="yes"/>
			<point x="329" y="215"/>
			<point x="329" y="101"/>
		</contour>
		<contour>
			<point x="230" y="640" type="line"/>
			<point x="360" y="625" type="line"/>
			<point x="386" y="625" type="line"/>
			<point x="511" y="640" type="line"/>
			<point x="511" y="680" type="line"/>
			<point x="230" y="680" type="line"/>
		</contour>
		<contour>
			<point x="230" y="0" type="line"/>
			<point x="511" y="0" type="line"/>
			<point x="511" y="41" type="line"/>
			<point x="387" y="56" type="line"/>
			<point x="361" y="56" type="line"/>
			<point x="230" y="41" type="line"/>
		</contour>
	</outline>
</glyph>
<glyph name="Psi" format="2">
	<unicode hex="03A8"/>
	<advance width="770"/>
	<outline>
		<contour>
			<point x="385" y="234" type="curve" smooth="yes"/>
			<point x="593" y="234"/>
			<point x="649" y="299"/>
			<point x="680" y="506" type="curve" smooth="yes"/>
			<point x="691" y="577" type="line" smooth="yes"/>
			<point x="696" y="608"/>
			<point x="705" y="622"/>
			<point x="734" y="626" type="curve" smooth="yes"/>
			<point x="760" y="629" type="line"/>
			<point x="760" y="670" type="line"/>
			<point x="710" y="670" type="line" smooth="yes"/>
			<point x="625" y="670"/>
			<point x="605" y="638"/>
			<point x="595" y="550" type="curve" smooth="yes"/>
			<point x="590" y="507" type="line" smooth="yes"/>
			<point x="570" y="343"/>
			<point x="546" y="280"/>
			<point x="385" y="280" type="curve" smooth="yes"/>
			<point x="223" y="280"/>
			<point x="199" y="343"/>
			<point x="180" y="507" type="curve" smooth="yes"/>
			<point x="175" y="550" type="line" smooth="yes"/>
			<point x="165" y="638"/>
			<point x="144" y="670"/>
			<point x="60" y="670" type="curve" smooth="yes"/>
			<point x="9" y="670" type="line"/>
			<point x="9" y="629" type="line"/>
			<point x="36" y="626" type="line" smooth="yes"/>
			<point x="64" y="622"/>
			<point x="74" y="608"/>
			<point x="78" y="577" type="curve" smooth="yes"/>
			<point x="89" y="506" type="line" smooth="yes"/>
			<point x="121" y="299"/>
			<point x="177" y="234"/>
		</contour>
		<contour>
			<point x="335" y="0" type="curve"/>
			<point x="435" y="0" type="line"/>
			<point x="432" y="103"/>
			<point x="432" y="207"/>
			<point x="432" y="310" type="curve" smooth="yes"/>
			<point x="432" y="359" type="line" smooth="yes"/>
			<point x="432" y="464"/>
			<point x="432" y="569"/>
			<point x="435" y="670" type="curve"/>
			<point x="335" y="670" type="line"/>
			<point x="338" y="567"/>
			<point x="338" y="462"/>
			<point x="338" y="359" type="curve" smooth="yes"/>
			<point x="338" y="310" type="line" smooth="yes"/>
			<point x="338" y="205"/>
			<point x="338" y="101"/>
		</contour>
		<contour>
			<point x="244" y="0" type="line"/>
			<point x="526" y="0" type="line"/>
			<point x="526" y="41" type="line"/>
			<point x="395" y="56" type="line"/>
			<point x="374" y="56" type="line"/>
			<point x="244" y="41" type="line"/>
		</contour>
		<contour>
			<point x="245" y="629" type="line"/>
			<point x="374" y="614" type="line"/>
			<point x="395" y="614" type="line"/>
			<point x="525" y="629" type="line"/>
			<point x="525" y="670" type="line"/>
			<point x="245" y="670" type="line"/>
		</contour>
	</outline>
</glyph>
<glyph name="beta" format="2">
	<unicode hex="03B2"/>
	<advance width="563"/>
	<outline>
		<contour>
			<point x="79" y="-180" type="line"/>
			<point x="94" y="-190" type="line"/>
			<point x="175" y="-172" type="line"/>
			<point x="159" y="66" type="line"/>
			<point x="167" y="81" type="line"/>
			<point x="167" y="520" type="line" smooth="yes"/>
			<point x="167" y="631"/>
			<point x="215" y="695"/>
			<point x="287" y="695" type="curve" smooth="yes"/>
			<point x="354" y="695"/>
			<point x="392" y="644"/>
			<point x="392" y="568" type="curve" smooth="yes"/>
			<point x="392" y="480"/>
			<point x="335" y="426"/>
			<point x="222" y="408" type="curve"/>
			<point x="234" y="353" type="line"/>
			<point x="388" y="358"/>
			<point x="434" y="282"/>
			<point x="434" y="200" type="curve" smooth="yes"/>
			<point x="434" y="114"/>
			<point x="385" y="54"/>
			<point x="290" y="54" type="curve" smooth="yes"/>
			<point x="229" y="54"/>
			<point x="181" y="79"/>
			<point x="135" y="111" type="curve"/>
			<point x="122" y="100" type="line"/>
			<point x="124" y="100" type="line"/>
			<point x="164" y="21"/>
			<point x="229" y="-13"/>
			<point x="305" y="-13" type="curve" smooth="yes"/>
			<point x="404" y="-13"/>
			<point x="517" y="58"/>
			<point x="517" y="197" type="curve" smooth="yes"/>
			<point x="517" y="326"/>
			<point x="426" y="396"/>
			<point x="272" y="395" type="curve"/>
			<point x="272" y="375" type="line"/>
			<point x="430" y="398"/>
			<point x="475" y="496"/>
			<point x="475" y="572" type="curve" smooth="yes"/>
			<point x="475" y="678"/>
			<point x="398" y="740"/>
			<point x="298" y="740" type="curve" smooth="yes"/>
			<point x="175" y="740"/>
			<point x="85" y="645"/>
			<point x="85" y="496" type="curve" smooth="yes"/>
			<point x="85" y="12" type="line"/>
		</contour>
	</outline>
</glyph>
<glyph name="delta" format="2">
	<unicode hex="03B4"/>
	<advance width="528"/>
	<outline>
		<contour>
			<point x="244" y="-13" type="curve" smooth="yes"/>
			<point x="398" y="-13"/>
			<point x="477" y="99"/>
			<point x="477" y="210" type="curve" smooth="yes"/>
			<point x="477" y="317"/>
			<point x="441" y="376"/>
			<point x="309" y="468" type="curve" smooth="yes"/>
			<point x="193" y="549"/>
			<point x="161" y="570"/>
			<point x="161" y="617" type="curve" smooth="yes"/>
			<point x="161" y="669"/>
			<point x="213" y="705"/>
			<point x="281" y="705" type="curve" smooth="yes"/>
			<point x="310" y="705"/>
			<point x="327" y="700"/>
			<point x="343" y="693" type="curve"/>
			<point x="336" y="718" type="line"/>
			<point x="252" y="726" type="line"/>
			<point x="337" y="647" type="line" smooth="yes"/>
			<point x="371" y="615"/>
			<point x="397" y="600"/>
			<point x="418" y="600" type="curve" smooth="yes"/>
			<point x="441" y="600"/>
			<point x="459" y="619"/>
			<point x="465" y="647" type="curve"/>
			<point x="434" y="703"/>
			<point x="361" y="740"/>
			<point x="277" y="740" type="curve" smooth="yes"/>
			<point x="167" y="740"/>
			<point x="93" y="683"/>
			<point x="93" y="593" type="curve" smooth="yes"/>
			<point x="93" y="531"/>
			<point x="135" y="487"/>
			<point x="250" y="418" type="curve" smooth="yes"/>
			<point x="341" y="362"/>
			<point x="389" y="305"/>
			<point x="389" y="206" type="curve" smooth="yes"/>
			<point x="389" y="104"/>
			<point x="341" y="32"/>
			<point x="251" y="32" type="curve" smooth="yes"/>
			<point x="179" y="32"/>
			<point x="120" y="84"/>
			<point x="120" y="204" type="curve" smooth="yes"/>
			<point x="120" y="319"/>
			<point x="171" y="396"/>
			<point x="285" y="426" type="curve"/>
			<point x="252" y="464" type="line"/>
			<point x="252" y="454" type="line"/>
			<point x="124" y="427"/>
			<point x="28" y="337"/>
			<point x="28" y="201" type="curve" smooth="yes"/>
			<point x="28" y="71"/>
			<point x="125" y="-13"/>
		</contour>
	</outline>
</glyph>
<glyph name="zeta" format="2">
	<unicode hex="03B6"/>
	<advance width="444"/>
	<outline>
		<contour>
			<point x="316" y="-205" type="curve"/>
			<point x="360" y="-205" type="line"/>
			<point x="396" y="-142"/>
			<point x="409" y="-104"/>
			<point x="409" y="-59" type="curve" smooth="yes"/>
			<point x="409" y="5"/>
			<point x="375" y="44"/>
			<point x="265" y="70" type="curve" smooth="yes"/>
			<point x="165" y="95"/>
			<point x="129" y="130"/>
			<point x="129" y="193" type="curve" smooth="yes"/>
			<point x="129" y="296"/>
			<point x="182" y="384"/>
			<point x="429" y="676" type="curve"/>
			<point x="428" y="730" type="line"/>
			<point x="72" y="746" type="line"/>
			<point x="72" y="667" type="line"/>
			<point x="370" y="670" type="line"/>
			<point x="370" y="653" type="line"/>
			<point x="392" y="708" type="line"/>
			<point x="132" y="425"/>
			<point x="45" y="288"/>
			<point x="45" y="174" type="curve" smooth="yes"/>
			<point x="45" y="71"/>
			<point x="107" y="25"/>
			<point x="243" y="-8" type="curve" smooth="yes"/>
			<point x="322" y="-27"/>
			<point x="341" y="-50"/>
			<point x="341" y="-94" type="curve" smooth="yes"/>
			<point x="341" y="-131"/>
			<point x="330" y="-164"/>
		</contour>
	</outline>
</glyph>
<glyph name="eta" format="2">
	<unicode hex="03B7"/>
	<advance width="550"/>
	<outline>
		<contour>
			<point x="94" y="0" type="line"/>
			<point x="104" y="-10" type="line"/>
			<point x="186" y="0" type="line"/>
			<point x="181" y="344" type="line"/>
			<point x="181" y="346" type="line" smooth="yes"/>
			<point x="180" y="443"/>
			<point x="155" y="486"/>
			<point x="97" y="486" type="curve" smooth="yes"/>
			<point x="63" y="486"/>
			<point x="43" y="469"/>
			<point x="23" y="444" type="curve"/>
			<point x="34" y="414" type="line"/>
			<point x="47" y="416"/>
			<point x="60" y="418"/>
			<point x="73" y="418" type="curve" smooth="yes"/>
			<point x="102" y="418"/>
			<point x="110" y="400"/>
			<point x="110" y="370" type="curve" smooth="yes"/>
			<point x="107" y="181" type="line"/>
		</contour>
		<contour>
			<point x="389" y="-180" type="line"/>
			<point x="399" y="-190" type="line"/>
			<point x="481" y="-172" type="line"/>
			<point x="473" y="313" type="line" smooth="yes"/>
			<point x="471" y="444"/>
			<point x="422" y="488"/>
			<point x="343" y="488" type="curve" smooth="yes"/>
			<point x="277" y="488"/>
			<point x="185" y="422"/>
			<point x="163" y="321" type="curve"/>
			<point x="161" y="321" type="line"/>
			<point x="176" y="306" type="line"/>
			<point x="202" y="363"/>
			<point x="263" y="416"/>
			<point x="319" y="416" type="curve" smooth="yes"/>
			<point x="377" y="416"/>
			<point x="414" y="383"/>
			<point x="412" y="304" type="curve" smooth="yes"/>
			<point x="402" y="11" type="line"/>
		</contour>
	</outline>
	<anchor name="aboveLC" x="294" y="495"/>
	<anchor name="belowLC" x="143" y="-20"/>
</glyph>
<glyph name="mu" format="2">
	<unicode hex="03BC"/>
	<unicode hex="00B5"/>
	<advance width="569"/>
	<outline>
		<contour>
			<point x="79" y="-180" type="line"/>
			<point x="91" y="-190" type="line"/>
			<point x="174" y="-172" type="line"/>
			<point x="147" y="84" type="line"/>
			<point x="161" y="104" type="line"/>
			<point x="161" y="191"/>
			<point x="170" y="280"/>
			<point x="181" y="478" type="curve"/>
			<point x="170" y="488" type="line"/>
			<point x="85" y="469" type="line"/>
			<point x="100" y="102" type="line"/>
		</contour>
		<contour>
			<point x="471" y="-13" type="curve" smooth="yes"/>
			<point x="511" y="-13"/>
			<point x="539" y="10"/>
			<point x="555" y="40" type="curve"/>
			<point x="546" y="65" type="line"/>
			<point x="534" y="60"/>
			<point x="518" y="56"/>
			<point x="505" y="56" type="curve" smooth="yes"/>
			<point x="472" y="56"/>
			<point x="462" y="73"/>
			<point x="460" y="136" type="curve" smooth="yes"/>
			<point x="458" y="205"/>
			<point x="467" y="278"/>
			<point x="483" y="478" type="curve"/>
			<point x="473" y="488" type="line"/>
			<point x="387" y="469" type="line"/>
			<point x="394" y="127" type="line"/>
			<point x="394" y="124" type="line" smooth="yes"/>
			<point x="397" y="38"/>
			<point x="412" y="-13"/>
		</contour>
		<contour>
			<point x="261" y="-13" type="curve" smooth="yes"/>
			<point x="329" y="-13"/>
			<point x="382" y="39"/>
			<point x="416" y="164" type="curve"/>
			<point x="418" y="164" type="line"/>
			<point x="398" y="183" type="line"/>
			<point x="362" y="86"/>
			<point x="324" y="64"/>
			<point x="271" y="64" type="curve" smooth="yes"/>
			<point x="232" y="64"/>
			<point x="190" y="81"/>
			<point x="159" y="153" type="curve"/>
			<point x="135" y="94" type="line"/>
			<point x="137" y="94" type="line"/>
			<point x="159" y="23"/>
			<point x="215" y="-13"/>
		</contour>
	</outline>
</glyph>
<glyph name="omicron" format="2">
	<unicode hex="03BF"/>
	<advance width="520"/>
	<outline>
		<contour>
			<point x="252" y="-13" type="curve" smooth="yes"/>
			<point x="368" y="-13"/>
			<point x="480" y="83"/>
			<point x="480" y="244" type="curve" smooth="yes"/>
			<point x="480" y="399"/>
			<point x="385" y="488"/>
			<point x="269" y="488" type="curve" smooth="yes"/>
			<point x="152" y="488"/>
			<point x="39" y="393"/>
			<point x="39" y="232" type="curve" smooth="yes"/>
			<point x="39" y="71"/>
			<point x="136" y="-13"/>
		</contour>
		<contour>
			<point x="265" y="33" type="curve" smooth="yes"/>
			<point x="189" y="33"/>
			<point x="127" y="107"/>
			<point x="127" y="252" type="curve" smooth="yes"/>
			<point x="127" y="356"/>
			<point x="168" y="442"/>
			<point x="254" y="442" type="curve" smooth="yes"/>
			<point x="332" y="442"/>
			<point x="393" y="364"/>
			<point x="393" y="220" type="curve" smooth="yes"/>
			<point x="393" y="116"/>
			<point x="351" y="33"/>
		</contour>
	</outline>
	<anchor name="aboveLC" x="260" y="495"/>
</glyph>
<glyph name="pi" format="2">
	<unicode hex="03C0"/>
	<advance width="593"/>
	<outline>
		<contour>
			<point x="107" y="-13" type="curve" smooth="yes"/>
			<point x="166" y="-13"/>
			<point x="201" y="21"/>
			<point x="208" y="107" type="curve" smooth="yes"/>
			<point x="216" y="214"/>
			<point x="216" y="329"/>
			<point x="217" y="441" type="curve"/>
			<point x="173" y="441" type="line"/>
			<point x="169" y="311"/>
			<point x="165" y="181"/>
			<point x="150" y="52" type="curve"/>
			<point x="185" y="97" type="line"/>
			<point x="143" y="96"/>
			<point x="101" y="91"/>
			<point x="67" y="84" type="curve"/>
			<point x="54" y="73"/>
			<point x="46" y="61"/>
			<point x="46" y="37" type="curve" smooth="yes"/>
			<point x="46" y="6"/>
			<point x="71" y="-13"/>
		</contour>
		<contour>
			<point x="27" y="385" type="line"/>
			<point x="188" y="408" type="line"/>
			<point x="409" y="408" type="line"/>
			<point x="565" y="403" type="line"/>
			<point x="561" y="475" type="line"/>
			<point x="211" y="475" type="line" smooth="yes"/>
			<point x="107" y="475"/>
			<point x="69" y="461"/>
			<point x="19" y="422" type="curve"/>
		</contour>
		<contour>
			<point x="468" y="-13" type="curve" smooth="yes"/>
			<point x="508" y="-13"/>
			<point x="533" y="4"/>
			<point x="557" y="40" type="curve"/>
			<point x="549" y="65" type="line"/>
			<point x="535" y="60"/>
			<point x="518" y="56"/>
			<point x="505" y="56" type="curve" smooth="yes"/>
			<point x="466" y="56"/>
			<point x="446" y="73"/>
			<point x="444" y="140" type="curve" smooth="yes"/>
			<point x="435" y="441" type="line"/>
			<point x="380" y="441" type="line"/>
			<point x="373" y="329"/>
			<point x="367" y="201"/>
			<point x="367" y="110" type="curve" smooth="yes"/>
			<point x="367" y="27"/>
			<point x="398" y="-13"/>
		</contour>
	</outline>
</glyph>
<glyph name="omega" format="2">
	<unicode hex="03C9"/>
	<advance width="743"/>
	<outline>
		<contour>
			<point x="231" y="-13" type="curve" smooth="yes"/>
			<point x="307" y="-13"/>
			<point x="362" y="31"/>
			<point x="374" y="141" type="curve"/>
			<point x="362" y="141" type="line"/>
			<point x="376" y="34"/>
			<point x="426" y="-13"/>
			<point x="505" y="-13" type="curve" smooth="yes"/>
			<point x="617" y="-13"/>
			<point x="694" y="74"/>
			<point x="694" y="202" type="curve" smooth="yes"/>
			<point x="694" y="359"/>
			<point x="602" y="442"/>
			<point x="502" y="488" type="curve"/>
			<point x="482" y="453" type="line"/>
			<point x="561" y="401"/>
			<point x="607" y="346"/>
			<point x="607" y="201" type="curve" smooth="yes"/>
			<point x="607" y="103"/>
			<point x="567" y="43"/>
			<point x="501" y="43" type="curve" smooth="yes"/>
			<point x="439" y="43"/>
			<point x="407" y="84"/>
			<point x="407" y="169" type="curve" smooth="yes"/>
			<point x="407" y="206"/>
			<point x="412" y="272"/>
			<point x="417" y="340" type="curve"/>
			<point x="408" y="345" type="line"/>
			<point x="325" y="336" type="line"/>
			<point x="331" y="259"/>
			<point x="334" y="205"/>
			<point x="334" y="169" type="curve" smooth="yes"/>
			<point x="334" y="78"/>
			<point x="288" y="43"/>
			<point x="236" y="43" type="curve" smooth="yes"/>
			<point x="166" y="43"/>
			<point x="137" y="102"/>
			<point x="137" y="202" type="curve" smooth="yes"/>
			<point x="137" y="344"/>
			<point x="182" y="400"/>
			<point x="262" y="453" type="curve"/>
			<point x="241" y="488" type="line"/>
			<point x="139" y="442"/>
			<point x="49" y="358"/>
			<point x="49" y="203" type="curve" smooth="yes"/>
			<point x="49" y="62"/>
			<point x="128" y="-13"/>
		</contour>
	</outline>
	<anchor name="aboveLC" x="372" y="495"/>
	<anchor name="belowLC" x="367" y="-20"/>
</glyph>
<glyph name="stigma" format="2">
	<unicode hex="03DB"/>
	<advance width="443"/>
	<outline>
		<contour>
			<point x="307" y="-205" type="curve"/>
			<point x="345" y="-205" type="line"/>
			<point x="384" y="-142"/>
			<point x="403" y="-104"/>
			<point x="403" y="-60" type="curve" smooth="yes"/>
			<point x="403" y="4"/>
			<point x="370" y="44"/>
			<point x="259" y="70" type="curve" smooth="yes"/>
			<point x="126" y="103"/>
			<point x="94" y="157"/>
			<point x="94" y="233" type="curve" smooth="yes"/>
			<point x="94" y="329"/>
			<point x="143" y="379"/>
			<point x="235" y="388" type="curve" smooth="yes"/>
			<point x="299" y="394" type="line" smooth="yes"/>
			<point x="367" y="400"/>
			<point x="397" y="418"/>
			<point x="417" y="500" type="curve" smooth="yes"/>
			<point x="436" y="574" type="line"/>
			<point x="396" y="580" type="line"/>
			<point x="382" y="539" type="line" smooth="yes"/>
			<point x="368" y="499"/>
			<point x="351" y="479"/>
			<point x="306" y="475" type="curve" smooth="yes"/>
			<point x="243" y="468" type="line" smooth="yes"/>
			<point x="134" y="457"/>
			<point x="38" y="373"/>
			<point x="38" y="218" type="curve" smooth="yes"/>
			<point x="38" y="71"/>
			<point x="101" y="26"/>
			<point x="236" y="-8" type="curve" smooth="yes"/>
			<point x="316" y="-29"/>
			<point x="335" y="-50"/>
			<point x="335" y="-94" type="curve" smooth="yes"/>
			<point x="335" y="-132"/>
			<point x="324" y="-164"/>
		</contour>
	</outline>
</glyph>
<glyph name="digamma" format="2">
	<unicode hex="03DD"/>
	<advance width="413"/>
	<outline>
		<contour>
			<point x="79" y="-180" type="line"/>
			<point x="91" y="-190" type="line"/>
			<point x="174" y="-172" type="line"/>
			<point x="161" y="104" type="line"/>
			<point x="161" y="187"/>
			<point x="168" y="272"/>
			<point x="178" y="459" type="curve"/>
			<point x="136" y="428" type="line"/>
			<point x="409" y="417" type="line"/>
			<point x="409" y="480" type="line"/>
			<point x="83" y="468" type="line"/>
			<point x="100" y="112" type="line"/>
		</contour>
		<contour>
			<point x="132" y="163" type="line"/>
			<point x="389" y="148" type="line"/>
			<point x="389" y="211" type="line"/>
			<point x="132" y="205" type="line"/>
		</contour>
	</outline>
	<anchor name="aboveLC" x="257" y="495"/>
</glyph>
<glyph name="sampi" format="2">
	<unicode hex="03E1"/>
	<advance width="579"/>
	<outline>
		<contour>
			<point x="133" y="92" type="line"/>
			<point x="467" y="230" type="line"/>
			<point x="459" y="271" type="line"/>
			<point x="110" y="158" type="line"/>
		</contour>
		<contour>
			<point x="359" y="-164" type="curve"/>
			<point x="402" y="-181" type="line"/>
			<point x="446" y="-105"/>
			<point x="507" y="24"/>
			<point x="507" y="203" type="curve" smooth="yes"/>
			<point x="507" y="462"/>
			<point x="335" y="709"/>
			<point x="58" y="731" type="curve"/>
			<point x="52" y="694" type="line"/>
			<point x="254" y="649"/>
			<point x="428" y="452"/>
			<point x="428" y="175" type="curve" smooth="yes"/>
			<point x="428" y="21"/>
			<point x="387" y="-96"/>
		</contour>
		<contour>
			<point x="58" y="313" type="line"/>
			<point x="407" y="452" type="line"/>
			<point x="393" y="489" type="line"/>
			<point x="42" y="380" type="line"/>
		</contour>
	</outline>
</glyph>
<glyph name="Dje" format="2">
	<unicode hex="0402"/>
	<advance width="701"/>
	<outline>
		<contour>
			<point x="30" y="492" type="line"/>
			<point x="87" y="492" type="line"/>
			<point x="119" y="670" type="line"/>
			<point x="72" y="620" type="line"/>
			<point x="532" y="620" type="line"/>
			<point x="485" y="670" type="line"/>
			<point x="517" y="493" type="line"/>
			<point x="574" y="493" type="line"/>
			<point x="567" y="670" type="line"/>
			<point x="37" y="670" type="line"/>
		</contour>
		<contour>
			<point x="232" y="0" type="curve"/>
			<point x="332" y="0" type="line"/>
			<point x="329" y="103"/>
			<point x="329" y="207"/>
			<point x="329" y="310" type="curve" smooth="yes"/>
			<point x="329" y="360" type="line" smooth="yes"/>
			<point x="329" y="464"/>
			<point x="329" y="569"/>
			<point x="332" y="670" type="curve"/>
			<point x="232" y="670" type="line"/>
			<point x="235" y="567"/>
			<point x="235" y="462"/>
			<point x="235" y="359" type="curve" smooth="yes"/>
			<point x="235" y="310" type="line" smooth="yes"/>
			<point x="235" y="205"/>
			<point x="235" y="101"/>
		</contour>
		<contour>
			<point x="439" y="-59" type="line"/>
			<point x="615" y="-48"/>
			<point x="681" y="70"/>
			<point x="681" y="179" type="curve" smooth="yes"/>
			<point x="681" y="319"/>
			<point x="614" y="394"/>
			<point x="449" y="394" type="curve" smooth="yes"/>
			<point x="397" y="394"/>
			<point x="338" y="390"/>
			<point x="282" y="383" type="curve"/>
			<point x="282" y="333" type="line"/>
			<point x="327" y="343"/>
			<point x="372" y="343"/>
			<point x="433" y="343" type="curve" smooth="yes"/>
			<point x="540" y="343"/>
			<point x="582" y="305"/>
			<point x="582" y="178" type="curve" smooth="yes"/>
			<point x="582" y="65"/>
			<point x="528" y="-2"/>
			<point x="427" y="-20" type="curve"/>
		</contour>
		<contour>
			<point x="131" y="0" type="line"/>
			<point x="282" y="0" type="line"/>
			<point x="282" y="56" type="line"/>
			<point x="272" y="56" type="line"/>
			<point x="131" y="41" type="line"/>
		</contour>
	</outline>
</glyph>
<glyph name="Ieukran" format="2">
	<unicode hex="0404"/>
	<advance width="615"/>
	<outline>
		<contour>
			<point x="369" y="-15" type="curve" smooth="yes"/>
			<point x="440" y="-15"/>
			<point x="509" y="-1"/>
			<point x="571" y="33" type="curve"/>
			<point x="575" y="178" type="line"/>
			<point x="513" y="178" type="line"/>
			<point x="488" y="30" type="line"/>
			<point x="550" y="45" type="line"/>
			<point x="550" y="99" type="line"/>
			<point x="494" y="52"/>
			<point x="430" y="35"/>
			<point x="374" y="35" type="curve" smooth="yes"/>
			<point x="224" y="35"/>
			<point x="146" y="117"/>
			<point x="146" y="335" type="curve" smooth="yes"/>
			<point x="146" y="552"/>
			<point x="233" y="635"/>
			<point x="380" y="635" type="curve" smooth="yes"/>
			<point x="434" y="635"/>
			<point x="483" y="619"/>
			<point x="540" y="570" type="curve"/>
			<point x="540" y="624" type="line"/>
			<point x="478" y="640" type="line"/>
			<point x="503" y="492" type="line"/>
			<point x="565" y="492" type="line"/>
			<point x="561" y="637" type="line"/>
			<point x="494" y="676"/>
			<point x="423" y="685"/>
			<point x="368" y="685" type="curve" smooth="yes"/>
			<point x="175" y="685"/>
			<point x="47" y="537"/>
			<point x="47" y="335" type="curve" smooth="yes"/>
			<point x="47" y="129"/>
			<point x="169" y="-15"/>
		</contour>
		<contour>
			<point x="119" y="316" type="line"/>
			<point x="394" y="316" type="line"/>
			<point x="394" y="363" type="line"/>
			<point x="119" y="363" type="line"/>
		</contour>
		<contour>
			<point x="377" y="222" type="line"/>
			<point x="423" y="222" type="line"/>
			<point x="423" y="458" type="line"/>
			<point x="377" y="458" type="line"/>
			<point x="362" y="353" type="line"/>
			<point x="362" y="333" type="line"/>
		</contour>
	</outline>
	<anchor name="aboveUC" x="372" y="690"/>
</glyph>
<glyph name="Nje" format="2">
	<unicode hex="040A"/>
	<advance width="1002"/>
	<outline>
		<contour>
			<point x="44" y="0" type="line"/>
			<point x="326" y="0" type="line"/>
			<point x="326" y="41" type="line"/>
			<point x="195" y="56" type="line"/>
			<point x="175" y="56" type="line"/>
			<point x="44" y="41" type="line"/>
		</contour>
		<contour>
			<point x="135" y="0" type="curve"/>
			<point x="236" y="0" type="line"/>
			<point x="233" y="103"/>
			<point x="233" y="207"/>
			<point x="233" y="329" type="curve" smooth="yes"/>
			<point x="233" y="359" type="line" smooth="yes"/>
			<point x="233" y="464"/>
			<point x="233" y="569"/>
			<point x="236" y="670" type="curve"/>
			<point x="135" y="670" type="line"/>
			<point x="138" y="567"/>
			<point x="138" y="462"/>
			<point x="138" y="359" type="curve" smooth="yes"/>
			<point x="138" y="310" type="line" smooth="yes"/>
			<point x="138" y="205"/>
			<point x="138" y="101"/>
		</contour>
		<contour>
			<point x="175" y="614" type="line"/>
			<point x="195" y="614" type="line"/>
			<point x="326" y="629" type="line"/>
			<point x="326" y="670" type="line"/>
			<point x="44" y="670" type="line"/>
			<point x="44" y="629" type="line"/>
		</contour>
		<contour>
			<point x="185" y="331" type="line"/>
			<point x="583" y="331" type="line"/>
			<point x="583" y="377" type="line"/>
			<point x="185" y="377" type="line"/>
		</contour>
		<contour>
			<point x="443" y="0" type="line"/>
			<point x="584" y="0" type="line"/>
			<point x="584" y="56" type="line"/>
			<point x="573" y="56" type="line"/>
			<point x="443" y="41" type="line"/>
		</contour>
		<contour>
			<point x="533" y="0" type="curve"/>
			<point x="634" y="0" type="line"/>
			<point x="631" y="103"/>
			<point x="631" y="207"/>
			<point x="631" y="310" type="curve" smooth="yes"/>
			<point x="631" y="360" type="line" smooth="yes"/>
			<point x="631" y="464"/>
			<point x="631" y="569"/>
			<point x="634" y="670" type="curve"/>
			<point x="533" y="670" type="line"/>
			<point x="536" y="567"/>
			<point x="536" y="462"/>
			<point x="536" y="359" type="curve" smooth="yes"/>
			<point x="536" y="329" type="line" smooth="yes"/>
			<point x="536" y="205"/>
			<point x="536" y="101"/>
		</contour>
		<contour>
			<point x="573" y="614" type="line"/>
			<point x="603" y="614" type="line"/>
			<point x="734" y="629" type="line"/>
			<point x="734" y="670" type="line"/>
			<point x="443" y="670" type="line"/>
			<point x="443" y="629" type="line"/>
		</contour>
		<contour>
			<point x="584" y="0" type="line"/>
			<point x="710" y="0" type="line" smooth="yes"/>
			<point x="915" y="0"/>
			<point x="982" y="105"/>
			<point x="982" y="199" type="curve" smooth="yes"/>
			<point x="982" y="309"/>
			<point x="900" y="387"/>
			<point x="730" y="387" type="curve" smooth="yes"/>
			<point x="693" y="387"/>
			<point x="623" y="384"/>
			<point x="584" y="380" type="curve"/>
			<point x="584" y="330" type="line"/>
			<point x="612" y="335"/>
			<point x="670" y="337"/>
			<point x="708" y="337" type="curve" smooth="yes"/>
			<point x="841" y="337"/>
			<point x="883" y="290"/>
			<point x="883" y="193" type="curve" smooth="yes"/>
			<point x="883" y="103"/>
			<point x="829" y="47"/>
			<point x="698" y="47" type="curve" smooth="yes"/>
			<point x="584" y="47" type="line"/>
		</contour>
	</outline>
</glyph>
<glyph name="Dzhe" format="2">
	<unicode hex="040F"/>
	<advance width="769"/>
	<outline>
		<contour>
			<point x="135" y="0" type="curve"/>
			<point x="236" y="0" type="line"/>
			<point x="233" y="101"/>
			<point x="233" y="205"/>
			<point x="233" y="310" type="curve" smooth="yes"/>
			<point x="233" y="359" type="line" smooth="yes"/>
			<point x="233" y="462"/>
			<point x="233" y="567"/>
			<point x="236" y="670" type="curve"/>
			<point x="135" y="670" type="line"/>
			<point x="138" y="569"/>
			<point x="138" y="464"/>
			<point x="138" y="359" type="curve" smooth="yes"/>
			<point x="138" y="310" type="line" smooth="yes"/>
			<point x="138" y="207"/>
			<point x="138" y="103"/>
		</contour>
		<contour>
			<point x="533" y="0" type="curve"/>
			<point x="634" y="0" type="line"/>
			<point x="631" y="101"/>
			<point x="631" y="205"/>
			<point x="631" y="310" type="curve" smooth="yes"/>
			<point x="631" y="359" type="line" smooth="yes"/>
			<point x="631" y="462"/>
			<point x="631" y="567"/>
			<point x="634" y="670" type="curve"/>
			<point x="533" y="670" type="line"/>
			<point x="536" y="569"/>
			<point x="536" y="464"/>
			<point x="536" y="359" type="curve" smooth="yes"/>
			<point x="536" y="310" type="line" smooth="yes"/>
			<point x="536" y="207"/>
			<point x="536" y="103"/>
		</contour>
		<contour>
			<point x="44" y="629" type="line"/>
			<point x="175" y="614" type="line"/>
			<point x="195" y="614" type="line"/>
			<point x="326" y="629" type="line"/>
			<point x="326" y="670" type="line"/>
			<point x="44" y="670" type="line"/>
		</contour>
		<contour>
			<point x="443" y="629" type="line"/>
			<point x="573" y="614" type="line"/>
			<point x="594" y="614" type="line"/>
			<point x="725" y="629" type="line"/>
			<point x="725" y="670" type="line"/>
			<point x="443" y="670" type="line"/>
		</contour>
		<contour>
			<point x="44" y="0" type="line"/>
			<point x="185" y="0" type="line"/>
			<point x="185" y="56" type="line"/>
			<point x="175" y="56" type="line"/>
			<point x="44" y="41" type="line"/>
		</contour>
		<contour>
			<point x="725" y="0" type="line"/>
			<point x="725" y="41" type="line"/>
			<point x="594" y="56" type="line"/>
			<point x="583" y="56" type="line"/>
			<point x="583" y="0" type="line"/>
		</contour>
		<contour>
			<point x="339" y="31" type="line"/>
			<point x="354" y="-221" type="line"/>
			<point x="415" y="-221" type="line"/>
			<point x="430" y="31" type="line"/>
		</contour>
		<contour>
			<point x="583" y="0" type="line"/>
			<point x="583" y="51" type="line"/>
			<point x="185" y="51" type="line"/>
			<point x="185" y="0" type="line"/>
		</contour>
	</outline>
</glyph>
<glyph name="Be" format="2">
	<unicode hex="0411"/>
	<advance width="618"/>
	<outline>
		<contour>
			<point x="44" y="0" type="line"/>
			<point x="185" y="0" type="line"/>
			<point x="185" y="56" type="line"/>
			<point x="175" y="56" type="line"/>
			<point x="44" y="41" type="line"/>
		</contour>
		<contour>
			<point x="135" y="0" type="curve"/>
			<point x="235" y="0" type="line"/>
			<point x="232" y="103"/>
			<point x="232" y="207"/>
			<point x="232" y="310" type="curve" smooth="yes"/>
			<point x="232" y="360" type="line" smooth="yes"/>
			<point x="232" y="464"/>
			<point x="232" y="569"/>
			<point x="235" y="670" type="curve"/>
			<point x="135" y="670" type="line"/>
			<point x="138" y="567"/>
			<point x="138" y="462"/>
			<point x="138" y="359" type="curve" smooth="yes"/>
			<point x="138" y="310" type="line" smooth="yes"/>
			<point x="138" y="205"/>
			<point x="138" y="101"/>
		</contour>
		<contour>
			<point x="185" y="0" type="line"/>
			<point x="313" y="0" type="line" smooth="yes"/>
			<point x="521" y="0"/>
			<point x="584" y="100"/>
			<point x="584" y="198" type="curve" smooth="yes"/>
			<point x="584" y="307"/>
			<point x="502" y="388"/>
			<point x="332" y="388" type="curve" smooth="yes"/>
			<point x="287" y="388"/>
			<point x="235" y="384"/>
			<point x="185" y="378" type="curve"/>
			<point x="185" y="328" type="line"/>
			<point x="222" y="336"/>
			<point x="260" y="338"/>
			<point x="310" y="338" type="curve" smooth="yes"/>
			<point x="445" y="338"/>
			<point x="485" y="288"/>
			<point x="485" y="196" type="curve" smooth="yes"/>
			<point x="485" y="95"/>
			<point x="432" y="47"/>
			<point x="300" y="47" type="curve" smooth="yes"/>
			<point x="185" y="47" type="line"/>
		</contour>
		<contour>
			<point x="44" y="629" type="line"/>
			<point x="175" y="614" type="line"/>
			<point x="185" y="614" type="line"/>
			<point x="185" y="670" type="line"/>
			<point x="44" y="670" type="line"/>
		</contour>
		<contour>
			<point x="477" y="492" type="line"/>
			<point x="535" y="492" type="line"/>
			<point x="528" y="670" type="line"/>
			<point x="185" y="670" type="line"/>
			<point x="185" y="620" type="line"/>
			<point x="493" y="620" type="line"/>
			<point x="446" y="670" type="line"/>
		</contour>
	</outline>
</glyph>
<glyph name="De" format="2">
	<unicode hex="0414"/>
	<advance width="691"/>
	<outline>
		<contour>
			<point x="11" y="-188" type="line"/>
			<point x="68" y="-188" type="line"/>
			<point x="102" y="50" type="line"/>
			<point x="50" y="0" type="line"/>
			<point x="611" y="0" type="line"/>
			<point x="566" y="50" type="line"/>
			<point x="594" y="-188" type="line"/>
			<point x="652" y="-188" type="line"/>
			<point x="657" y="51" type="line"/>
			<point x="5" y="51" type="line"/>
		</contour>
		<contour>
			<point x="164" y="629" type="line"/>
			<point x="275" y="614" type="line"/>
			<point x="283" y="614" type="line"/>
			<point x="283" y="670" type="line"/>
			<point x="164" y="670" type="line"/>
		</contour>
		<contour>
			<point x="283" y="620" type="line"/>
			<point x="505" y="620" type="line"/>
			<point x="505" y="670" type="line"/>
			<point x="283" y="670" type="line"/>
		</contour>
		<contour>
			<point x="455" y="0" type="curve"/>
			<point x="556" y="0" type="line"/>
			<point x="553" y="101"/>
			<point x="553" y="205"/>
			<point x="553" y="310" type="curve" smooth="yes"/>
			<point x="553" y="359" type="line" smooth="yes"/>
			<point x="553" y="462"/>
			<point x="553" y="567"/>
			<point x="556" y="670" type="curve"/>
			<point x="455" y="670" type="line"/>
			<point x="458" y="569"/>
			<point x="458" y="464"/>
			<point x="458" y="359" type="curve" smooth="yes"/>
			<point x="458" y="310" type="line" smooth="yes"/>
			<point x="458" y="207"/>
			<point x="458" y="103"/>
		</contour>
		<contour>
			<point x="505" y="614" type="line"/>
			<point x="516" y="614" type="line"/>
			<point x="646" y="629" type="line"/>
			<point x="646" y="670" type="line"/>
			<point x="505" y="670" type="line"/>
		</contour>
		<contour>
			<point x="58" y="49" type="curve"/>
			<point x="124" y="29" type="line"/>
			<point x="124" y="40" type="line"/>
			<point x="163" y="83"/>
			<point x="198" y="139"/>
			<point x="228" y="209" type="curve" smooth="yes"/>
			<point x="277" y="322"/>
			<point x="311" y="473"/>
			<point x="320" y="670" type="curve"/>
			<point x="258" y="670" type="line"/>
			<point x="246" y="362"/>
			<point x="169" y="174"/>
		</contour>
	</outline>
</glyph>
<glyph name="Zhe" format="2">
	<unicode hex="0416"/>
	<advance width="918"/>
	<outline>
		<contour>
			<point x="321" y="0" type="line"/>
			<point x="597" y="0" type="line"/>
			<point x="597" y="41" type="line"/>
			<point x="469" y="56" type="line"/>
			<point x="449" y="56" type="line"/>
			<point x="321" y="41" type="line"/>
		</contour>
		<contour>
			<point x="321" y="629" type="line"/>
			<point x="449" y="614" type="line"/>
			<point x="469" y="614" type="line"/>
			<point x="597" y="629" type="line"/>
			<point x="597" y="670" type="line"/>
			<point x="321" y="670" type="line"/>
		</contour>
		<contour>
			<point x="412" y="0" type="curve"/>
			<point x="506" y="0" type="line"/>
			<point x="503" y="103"/>
			<point x="503" y="207"/>
			<point x="503" y="323" type="curve" smooth="yes"/>
			<point x="503" y="344" type="line" smooth="yes"/>
			<point x="503" y="464"/>
			<point x="503" y="569"/>
			<point x="506" y="670" type="curve"/>
			<point x="412" y="670" type="line"/>
			<point x="415" y="567"/>
			<point x="415" y="462"/>
			<point x="415" y="344" type="curve" smooth="yes"/>
			<point x="415" y="323" type="line" smooth="yes"/>
			<point x="415" y="205"/>
			<point x="415" y="101"/>
		</contour>
		<contour>
			<point x="714" y="54" type="line" smooth="yes"/>
			<point x="728" y="5"/>
			<point x="761" y="-10"/>
			<point x="826" y="-10" type="curve" smooth="yes"/>
			<point x="856" y="-10"/>
			<point x="896" y="-6"/>
			<point x="915" y="0" type="curve"/>
			<point x="915" y="41" type="line"/>
			<point x="793" y="53" type="line"/>
			<point x="819" y="33" type="line"/>
			<point x="758" y="211" type="line" smooth="yes"/>
			<point x="730" y="294"/>
			<point x="682" y="346"/>
			<point x="547" y="352" type="curve"/>
			<point x="555" y="325" type="line"/>
			<point x="633" y="337"/>
			<point x="673" y="362"/>
			<point x="720" y="468" type="curve" smooth="yes"/>
			<point x="755" y="549"/>
			<point x="773" y="586"/>
			<point x="814" y="631" type="curve"/>
			<point x="731" y="587" type="line"/>
			<point x="751" y="581"/>
			<point x="785" y="575"/>
			<point x="816" y="575" type="curve" smooth="yes"/>
			<point x="866" y="575"/>
			<point x="887" y="605"/>
			<point x="887" y="631" type="curve" smooth="yes"/>
			<point x="887" y="657"/>
			<point x="866" y="683"/>
			<point x="832" y="685" type="curve"/>
			<point x="777" y="676"/>
			<point x="737" y="644"/>
			<point x="675" y="490" type="curve" smooth="yes"/>
			<point x="632" y="381"/>
			<point x="596" y="363"/>
			<point x="526" y="363" type="curve" smooth="yes"/>
			<point x="459" y="363" type="line"/>
			<point x="459" y="318" type="line"/>
			<point x="538" y="318" type="line" smooth="yes"/>
			<point x="602" y="318"/>
			<point x="641" y="293"/>
			<point x="660" y="231" type="curve" smooth="yes"/>
		</contour>
		<contour>
			<point x="204" y="54" type="curve" smooth="yes"/>
			<point x="258" y="231" type="line" smooth="yes"/>
			<point x="276" y="293"/>
			<point x="315" y="318"/>
			<point x="379" y="318" type="curve" smooth="yes"/>
			<point x="459" y="318" type="line"/>
			<point x="459" y="363" type="line"/>
			<point x="391" y="363" type="line" smooth="yes"/>
			<point x="324" y="363"/>
			<point x="287" y="380"/>
			<point x="242" y="490" type="curve" smooth="yes"/>
			<point x="181" y="644"/>
			<point x="140" y="676"/>
			<point x="86" y="685" type="curve"/>
			<point x="51" y="683"/>
			<point x="31" y="657"/>
			<point x="31" y="631" type="curve" smooth="yes"/>
			<point x="31" y="605"/>
			<point x="52" y="575"/>
			<point x="101" y="575" type="curve" smooth="yes"/>
			<point x="132" y="575"/>
			<point x="167" y="581"/>
			<point x="186" y="587" type="curve"/>
			<point x="104" y="631" type="line"/>
			<point x="144" y="586"/>
			<point x="163" y="549"/>
			<point x="198" y="468" type="curve" smooth="yes"/>
			<point x="244" y="362"/>
			<point x="285" y="337"/>
			<point x="362" y="325" type="curve"/>
			<point x="371" y="352" type="line"/>
			<point x="236" y="346"/>
			<point x="188" y="294"/>
			<point x="160" y="211" type="curve" smooth="yes"/>
			<point x="99" y="33" type="line"/>
			<point x="125" y="53" type="line"/>
			<point x="2" y="41" type="line"/>
			<point x="2" y="0" type="line"/>
			<point x="21" y="-6"/>
			<point x="62" y="-10"/>
			<point x="92" y="-10" type="curve" smooth="yes"/>
			<point x="157" y="-10"/>
			<point x="190" y="5"/>
		</contour>
	</outline>
	<anchor name="aboveUC" x="459" y="690"/>
</glyph>
<glyph name="Icyr" format="2">
	<unicode hex="0418"/>
	<advance width="797"/>
	<outline>
		<contour>
			<point x="135" y="0" type="curve"/>
			<point x="232" y="0" type="line"/>
			<point x="232" y="359" type="line" smooth="yes"/>
			<point x="232" y="464"/>
			<point x="232" y="569"/>
			<point x="235" y="670" type="curve"/>
			<point x="135" y="670" type="line"/>
			<point x="138" y="567"/>
			<point x="138" y="462"/>
			<point x="138" y="359" type="curve" smooth="yes"/>
			<point x="138" y="310" type="line" smooth="yes"/>
			<point x="138" y="205"/>
			<point x="138" y="101"/>
		</contour>
		<contour>
			<point x="562" y="0" type="curve"/>
			<point x="662" y="0" type="line"/>
			<point x="659" y="103"/>
			<point x="659" y="207"/>
			<point x="659" y="310" type="curve" smooth="yes"/>
			<point x="659" y="359" type="line" smooth="yes"/>
			<point x="659" y="464"/>
			<point x="659" y="569"/>
			<point x="662" y="670" type="curve"/>
			<point x="565" y="670" type="line"/>
			<point x="565" y="329" type="line" smooth="yes"/>
			<point x="565" y="205"/>
			<point x="565" y="101"/>
		</contour>
		<contour>
			<point x="44" y="0" type="line"/>
			<point x="326" y="0" type="line"/>
			<point x="326" y="41" type="line"/>
			<point x="195" y="56" type="line"/>
			<point x="175" y="56" type="line"/>
			<point x="44" y="41" type="line"/>
		</contour>
		<contour>
			<point x="44" y="629" type="line"/>
			<point x="175" y="614" type="line"/>
			<point x="195" y="614" type="line"/>
			<point x="326" y="629" type="line"/>
			<point x="326" y="670" type="line"/>
			<point x="44" y="670" type="line"/>
		</contour>
		<contour>
			<point x="471" y="0" type="line"/>
			<point x="753" y="0" type="line"/>
			<point x="753" y="41" type="line"/>
			<point x="622" y="56" type="line"/>
			<point x="601" y="56" type="line"/>
			<point x="471" y="41" type="line"/>
		</contour>
		<contour>
			<point x="471" y="629" type="line"/>
			<point x="601" y="614" type="line"/>
			<point x="622" y="614" type="line"/>
			<point x="753" y="629" type="line"/>
			<point x="753" y="670" type="line"/>
			<point x="471" y="670" type="line"/>
		</contour>
		<contour>
			<point x="177" y="27" type="line"/>
			<point x="398" y="299" type="line"/>
			<point x="620" y="571" type="line"/>
			<point x="633" y="571" type="line"/>
			<point x="620" y="645" type="line"/>
			<point x="398" y="372" type="line"/>
			<point x="176" y="98" type="line"/>
			<point x="165" y="98" type="line"/>
		</contour>
	</outline>
	<anchor name="aboveUC" x="399" y="690"/>
</glyph>
<glyph name="Ucyr" format="2">
	<unicode hex="0423"/>
	<advance width="670"/>
	<outline>
		<contour>
			<point x="102" y="11" type="curve"/>
			<point x="110" y="-29"/>
			<point x="139" y="-51"/>
			<point x="186" y="-51" type="curve" smooth="yes"/>
			<point x="266" y="-51"/>
			<point x="306" y="16"/>
			<point x="345" y="102" type="curve" smooth="yes"/>
			<point x="603" y="670" type="line"/>
			<point x="543" y="670" type="line"/>
			<point x="431" y="406" type="line"/>
			<point x="343" y="199" type="line"/>
			<point x="342" y="199" type="line"/>
			<point x="306" y="117"/>
			<point x="279" y="49"/>
			<point x="232" y="9" type="curve"/>
			<point x="234" y="-21" type="line"/>
			<point x="267" y="-1" type="line"/>
			<point x="224" y="47"/>
			<point x="202" y="62"/>
			<point x="168" y="62" type="curve" smooth="yes"/>
			<point x="138" y="62"/>
			<point x="110" y="51"/>
		</contour>
		<contour>
			<point x="11" y="629" type="line"/>
			<point x="126" y="614" type="line"/>
			<point x="148" y="614" type="line"/>
			<point x="274" y="629" type="line"/>
			<point x="274" y="670" type="line"/>
			<point x="11" y="670" type="line"/>
		</contour>
		<contour>
			<point x="440" y="629" type="line"/>
			<point x="539" y="615" type="line"/>
			<point x="560" y="615" type="line"/>
			<point x="660" y="629" type="line"/>
			<point x="660" y="670" type="line"/>
			<point x="440" y="670" type="line"/>
		</contour>
		<contour>
			<point x="308" y="95" type="line"/>
			<point x="353" y="192" type="line"/>
			<point x="164" y="670" type="line"/>
			<point x="61" y="670" type="line"/>
		</contour>
	</outline>
	<anchor name="aboveUC" x="363" y="690"/>
</glyph>
<glyph name="Che" format="2">
	<unicode hex="0427"/>
	<advance width="701"/>
	<outline>
		<contour>
			<point x="145" y="614" type="line"/>
			<point x="165" y="614" type="line"/>
			<point x="297" y="629" type="line"/>
			<point x="297" y="670" type="line"/>
			<point x="24" y="670" type="line"/>
			<point x="24" y="629" type="line"/>
		</contour>
		<contour>
			<point x="316" y="270" type="curve" smooth="yes"/>
			<point x="381" y="270"/>
			<point x="453" y="283"/>
			<point x="515" y="298" type="curve"/>
			<point x="515" y="344" type="line"/>
			<point x="440" y="331"/>
			<point x="389" y="327"/>
			<point x="343" y="327" type="curve" smooth="yes"/>
			<point x="240" y="327"/>
			<point x="203" y="361"/>
			<point x="203" y="471" type="curve" smooth="yes"/>
			<point x="203" y="538"/>
			<point x="204" y="605"/>
			<point x="206" y="670" type="curve"/>
			<point x="111" y="670" type="line"/>
			<point x="109" y="603"/>
			<point x="108" y="528"/>
			<point x="108" y="459" type="curve" smooth="yes"/>
			<point x="108" y="306"/>
			<point x="193" y="270"/>
		</contour>
		<contour>
			<point x="374" y="0" type="line"/>
			<point x="657" y="0" type="line"/>
			<point x="657" y="41" type="line"/>
			<point x="526" y="56" type="line"/>
			<point x="505" y="56" type="line"/>
			<point x="374" y="41" type="line"/>
		</contour>
		<contour>
			<point x="465" y="0" type="curve"/>
			<point x="566" y="0" type="line"/>
			<point x="563" y="103"/>
			<point x="563" y="207"/>
			<point x="563" y="310" type="curve" smooth="yes"/>
			<point x="563" y="359" type="line" smooth="yes"/>
			<point x="563" y="464"/>
			<point x="563" y="569"/>
			<point x="566" y="670" type="curve"/>
			<point x="465" y="670" type="line"/>
			<point x="468" y="567"/>
			<point x="468" y="462"/>
			<point x="468" y="359" type="curve" smooth="yes"/>
			<point x="468" y="313" type="line" smooth="yes"/>
			<point x="468" y="205"/>
			<point x="468" y="101"/>
		</contour>
		<contour>
			<point x="505" y="614" type="line"/>
			<point x="526" y="614" type="line"/>
			<point x="657" y="629" type="line"/>
			<point x="657" y="670" type="line"/>
			<point x="375" y="670" type="line"/>
			<point x="375" y="629" type="line"/>
		</contour>
	</outline>
	<anchor name="aboveUC" x="341" y="690"/>
</glyph>
